M48
; DRILL file {KiCad (5.1.8)-1} date 11/12/20 22:30:37
; FORMAT={-:-/ absolute / inch / decimal}
; #@! TF.CreationDate,2020-11-12T22:30:37-08:00
; #@! TF.GenerationSoftware,Kicad,Pcbnew,(5.1.8)-1
; #@! TF.FileFunction,Plated,1,2,PTH
FMAT,2
INCH
T1C0.0118
T2C0.0197
T3C0.0320
T4C0.0339
T5C0.0340
T6C0.0390
T7C0.0394
T8C0.0400
T9C0.0402
T10C0.0512
T11C0.0630
T12C0.1260
%
G90
G05
T1
X0.125Y0.8
X0.125Y0.7
X0.125Y0.6
X0.125Y0.5
X0.125Y0.4
X0.125Y0.3
X0.125Y0.2
X0.125Y0.1
X0.125Y0.0
X0.2559Y1.0236
X0.2559Y0.8661
X0.2559Y-0.7087
X0.2559Y-0.8661
X0.2559Y-1.0236
X0.2854Y-0.6004
X0.2953Y0.374
X0.2953Y0.2264
X0.4134Y1.0236
X0.4134Y0.8661
X0.4134Y0.7087
X0.4134Y0.5512
X0.4134Y-0.0787
X0.4134Y-0.8661
X0.4429Y0.3248
X0.45Y-0.475
X0.4823Y-1.2106
X0.55Y-0.825
X0.5709Y1.1811
X0.5709Y1.0236
X0.5709Y0.8661
X0.5709Y0.7087
X0.5709Y0.5512
X0.5709Y0.3051
X0.5709Y0.0787
X0.5709Y-0.0787
X0.5709Y-0.374
X0.5709Y-1.1909
X0.6496Y0.6299
X0.6949Y0.0787
X0.6949Y-0.0787
X0.6988Y-0.7087
X0.6988Y-0.775
X0.7087Y0.5118
X0.7087Y0.3445
X0.7283Y1.1811
X0.7283Y1.0236
X0.7283Y0.8661
X0.7283Y0.7087
X0.7283Y0.3051
X0.7283Y-0.8661
X0.7283Y-1.0236
X0.7283Y-1.1713
X0.7579Y-0.374
X0.8169Y-0.2756
X0.8858Y1.0236
X0.8858Y0.8661
X0.8858Y0.7087
X0.8858Y0.374
X0.8858Y0.0787
X0.8858Y-1.0236
X0.8858Y-1.1713
X1.0236Y-0.4331
X1.0335Y0.3937
X1.0335Y0.1772
X1.0335Y0.128
X1.0335Y0.0787
X1.0335Y0.0295
X1.0335Y-0.0984
X1.0335Y-0.1476
X1.0433Y1.1811
X1.0433Y1.0236
X1.0433Y0.9252
X1.0433Y0.8268
X1.0433Y0.7283
X1.0433Y0.5512
X1.0531Y-0.5118
X1.0728Y0.2165
X1.1319Y-0.2657
X1.1417Y0.128
X1.1516Y-0.0098
X1.1811Y0.5118
X1.1811Y0.3839
X1.2008Y1.1811
X1.2008Y1.0236
X1.2106Y-0.6102
X1.2205Y0.0492
X1.2303Y0.1575
X1.2303Y-0.2657
X1.25Y-1.063
X1.2697Y-0.0984
X1.2697Y-0.1476
X1.3287Y0.876
X1.3287Y0.748
X1.3287Y-0.2165
X1.3287Y-0.2657
X1.3484Y0.4331
X1.3681Y0.0591
X1.3681Y-0.0394
X1.378Y0.2067
X1.4449Y-0.0866
X1.4469Y-1.063
X1.4862Y-0.0984
X1.4862Y-0.1476
X1.5157Y0.5512
X1.565Y0.876
X1.565Y0.748
X1.565Y-0.0984
X1.565Y-0.1476
X1.5748Y-0.6791
X1.5748Y-0.9252
X1.6437Y-0.4724
X1.6437Y-0.5807
X1.6535Y-1.0433
X1.6732Y0.5512
X1.6732Y0.3937
X1.7126Y1.0039
X1.7126Y0.8957
X1.7224Y-0.0984
X1.7224Y-0.1476
X1.7323Y-0.3346
X1.7323Y-0.9646
X1.7323Y-1.122
X1.811Y-1.0433
X1.8307Y1.1811
X1.8307Y0.7087
X1.8307Y0.5512
X1.8307Y0.3937
X1.8307Y0.2362
X1.9882Y1.1811
X1.9882Y1.0236
X1.9882Y0.7087
X1.9882Y0.5512
X1.9882Y0.3937
X1.9882Y0.2362
X1.9882Y-0.5512
X1.9882Y-0.7087
X2.0079Y0.0492
X2.0276Y-0.9055
X2.0276Y-1.122
X2.048Y-0.2961
X2.1457Y1.1811
X2.1457Y1.0236
X2.1457Y0.7087
X2.1457Y0.5512
X2.1457Y0.3937
X2.1457Y0.2362
X2.1457Y0.0787
X2.1457Y-0.5512
X2.1457Y-0.7087
X2.1457Y-0.8366
X2.3031Y1.0236
X2.3031Y-0.0787
X2.3031Y-0.2362
X2.3031Y-0.7087
X2.5295Y0.8661
X2.5295Y0.7087
X2.5295Y0.5512
X2.5295Y0.3937
X2.5295Y0.2362
X2.5295Y0.0787
X2.5295Y-0.0787
X2.5295Y-0.2362
X2.5295Y-0.3937
X2.5295Y-0.5512
X2.5295Y-0.7087
X2.5295Y-0.8661
T2
X0.0433Y1.1417
X0.0433Y-1.1417
X0.071Y1.2085
X0.071Y1.0749
X0.071Y-1.0749
X0.071Y-1.2085
X0.1378Y1.2362
X0.1378Y1.0472
X0.1378Y-1.0472
X0.1378Y-1.2362
X0.2046Y1.2085
X0.2046Y1.0749
X0.2046Y-1.0749
X0.2046Y-1.2085
X0.2323Y1.1417
X0.2323Y-1.1417
X2.3268Y1.1417
X2.3268Y-1.1417
X2.3544Y1.2085
X2.3544Y1.0749
X2.3544Y-1.0749
X2.3544Y-1.2085
X2.4213Y1.2362
X2.4213Y1.0472
X2.4213Y-1.0472
X2.4213Y-1.2362
X2.4881Y1.2085
X2.4881Y1.0749
X2.4881Y-1.0749
X2.4881Y-1.2085
X2.5157Y1.1417
X2.5157Y-1.1417
T3
X2.0941Y-0.4315
X2.0941Y-0.9465
X2.1941Y-0.4315
X2.1941Y-0.9465
X2.2941Y-0.4315
X2.2941Y-0.9465
X2.3941Y-0.4315
X2.3941Y-0.9465
T4
X1.4937Y-0.575
X1.4937Y-0.675
X1.4937Y-0.775
X1.4937Y-0.875
X1.4937Y-0.975
X1.7937Y-0.575
X1.7937Y-0.675
X1.7937Y-0.775
X1.7937Y-0.875
X1.7937Y-0.975
X1.0795Y0.3
X1.0795Y-0.3
X1.1795Y0.3
X1.1795Y-0.3
X1.2795Y0.3
X1.2795Y-0.3
X1.3795Y0.3
X1.3795Y-0.3
X1.4795Y0.3
X1.4795Y-0.3
X0.35Y1.175
X0.35Y1.075
X0.35Y0.975
X0.35Y0.875
X0.35Y0.775
X0.35Y0.675
X0.35Y0.575
X0.35Y0.475
X0.35Y0.375
X0.35Y0.275
X0.35Y0.175
X0.35Y0.075
X0.35Y-0.025
X0.35Y-0.125
X0.35Y-0.225
X0.35Y-0.325
X0.35Y-0.425
X0.35Y-0.525
X0.35Y-0.625
X0.35Y-0.725
X0.35Y-0.825
X0.35Y-0.925
X0.35Y-1.025
X0.35Y-1.125
X0.45Y-0.625
X0.55Y-0.625
X0.65Y-0.625
X0.75Y-0.625
X0.85Y1.075
X0.85Y-0.625
X0.95Y1.175
X0.95Y1.075
X0.95Y0.975
X0.95Y0.875
X0.95Y0.775
X0.95Y0.675
X0.95Y0.575
X0.95Y0.475
X0.95Y0.375
X0.95Y0.275
X0.95Y0.175
X0.95Y0.075
X0.95Y-0.025
X0.95Y-0.125
X0.95Y-0.225
X0.95Y-0.325
X0.95Y-0.425
X0.95Y-0.525
X0.95Y-0.625
X0.95Y-0.725
X0.95Y-0.825
X0.95Y-0.925
X0.95Y-1.025
X0.95Y-1.125
T5
X1.8594Y0.1
X1.8594Y0.0
X1.8594Y-0.1
X1.9594Y0.1
X1.9594Y0.0
X1.9594Y-0.1
T6
X2.4075Y0.2854
X2.4075Y0.1083
T7
X2.1457Y-0.0984
X2.1457Y-0.1984
T8
X1.546Y0.4724
X1.939Y0.4724
T9
X0.0591Y0.95
X0.0591Y0.85
X0.0591Y0.75
X0.0591Y0.65
X0.0591Y0.55
X0.0591Y0.45
X0.0591Y0.35
X0.0591Y0.25
X0.0591Y0.15
X0.0591Y0.05
X0.0591Y-0.05
X0.0591Y-0.15
X0.0591Y-0.25
X0.0591Y-0.35
X0.0591Y-0.45
X0.0591Y-0.55
X0.0591Y-0.65
X0.0591Y-0.75
X0.0591Y-0.85
X0.0591Y-0.95
T10
X2.3094Y0.3346
X2.3094Y0.0587
T11
X1.6437Y-0.2362
X1.6437Y0.2362
T12
X0.1378Y1.1417
X0.1378Y-1.1417
X2.4213Y1.1417
X2.4213Y-1.1417
T0
M30
