%TF.GenerationSoftware,KiCad,Pcbnew,(5.1.8)-1*%
%TF.CreationDate,2020-11-12T22:30:36-08:00*%
%TF.ProjectId,IRIS-core,49524953-2d63-46f7-9265-2e6b69636164,rev?*%
%TF.SameCoordinates,Original*%
%TF.FileFunction,Soldermask,Bot*%
%TF.FilePolarity,Negative*%
%FSLAX46Y46*%
G04 Gerber Fmt 4.6, Leading zero omitted, Abs format (unit mm)*
G04 Created by KiCad (PCBNEW (5.1.8)-1) date 2020-11-12 22:30:36*
%MOMM*%
%LPD*%
G01*
G04 APERTURE LIST*
%ADD10C,0.100000*%
%ADD11C,0.800000*%
%ADD12C,6.400000*%
%ADD13C,1.370000*%
%ADD14R,1.370000X1.370000*%
%ADD15C,1.500000*%
%ADD16C,1.800000*%
%ADD17C,1.524000*%
%ADD18C,1.460000*%
%ADD19C,3.048000*%
%ADD20C,1.778000*%
%ADD21R,1.460000X1.460000*%
%ADD22O,1.700000X1.700000*%
%ADD23R,1.700000X1.700000*%
%ADD24C,2.100000*%
%ADD25C,1.750000*%
%ADD26C,2.800000*%
G04 APERTURE END LIST*
D10*
%TO.C,U2*%
X33280999Y7620000D02*
G75*
G03*
X33280999Y7620000I-780999J0D01*
G01*
X38360999Y7620000D02*
G75*
G03*
X38360999Y7620000I-780999J0D01*
G01*
X35820999Y7620000D02*
G75*
G03*
X35820999Y7620000I-780999J0D01*
G01*
X30740999Y7620000D02*
G75*
G03*
X30740999Y7620000I-780999J0D01*
G01*
X28200999Y7620000D02*
G75*
G03*
X28200999Y7620000I-780999J0D01*
G01*
X33280999Y-7620000D02*
G75*
G03*
X33280999Y-7620000I-780999J0D01*
G01*
X28200999Y-7620000D02*
G75*
G03*
X28200999Y-7620000I-780999J0D01*
G01*
X30740999Y-7620000D02*
G75*
G03*
X30740999Y-7620000I-780999J0D01*
G01*
X35820999Y-7620000D02*
G75*
G03*
X35820999Y-7620000I-780999J0D01*
G01*
X38360999Y-7620000D02*
G75*
G03*
X38360999Y-7620000I-780999J0D01*
G01*
%TO.C,U5*%
X38720999Y-22225000D02*
G75*
G03*
X38720999Y-22225000I-780999J0D01*
G01*
X38720999Y-19685000D02*
G75*
G03*
X38720999Y-19685000I-780999J0D01*
G01*
X38720999Y-14605000D02*
G75*
G03*
X38720999Y-14605000I-780999J0D01*
G01*
X38720999Y-17145000D02*
G75*
G03*
X38720999Y-17145000I-780999J0D01*
G01*
X38720999Y-24765000D02*
G75*
G03*
X38720999Y-24765000I-780999J0D01*
G01*
X46340999Y-17145000D02*
G75*
G03*
X46340999Y-17145000I-780999J0D01*
G01*
X46340999Y-19685000D02*
G75*
G03*
X46340999Y-19685000I-780999J0D01*
G01*
X46340999Y-24765000D02*
G75*
G03*
X46340999Y-24765000I-780999J0D01*
G01*
X46340999Y-22225000D02*
G75*
G03*
X46340999Y-22225000I-780999J0D01*
G01*
X46340999Y-14605000D02*
G75*
G03*
X46340999Y-14605000I-780999J0D01*
G01*
%TD*%
D11*
%TO.C,J1*%
X5900000Y29000000D03*
D12*
X3500000Y29000000D03*
D11*
X3500000Y26600000D03*
X1802944Y30697056D03*
X1802944Y27302944D03*
X1100000Y29000000D03*
X3500000Y31400000D03*
X5197056Y27302944D03*
X5197056Y30697056D03*
X63900000Y29000000D03*
D12*
X61500000Y29000000D03*
D11*
X61500000Y26600000D03*
X59802944Y30697056D03*
X59802944Y27302944D03*
X59100000Y29000000D03*
X61500000Y31400000D03*
X63197056Y27302944D03*
X63197056Y30697056D03*
X63900000Y-29000000D03*
D12*
X61500000Y-29000000D03*
D11*
X61500000Y-31400000D03*
X59802944Y-27302944D03*
X59802944Y-30697056D03*
X59100000Y-29000000D03*
X61500000Y-26600000D03*
X63197056Y-30697056D03*
X63197056Y-27302944D03*
X5900000Y-29000000D03*
X1802944Y-30697056D03*
D12*
X3500000Y-29000000D03*
D11*
X3500000Y-26600000D03*
X5197056Y-27302944D03*
X1100000Y-29000000D03*
X1802944Y-27302944D03*
X5197056Y-30697056D03*
X3500000Y-31400000D03*
D13*
X1500000Y-13970000D03*
X1500000Y-16510000D03*
X1500000Y-3810000D03*
X1500000Y11430000D03*
X1500000Y8890000D03*
X1500000Y1270000D03*
X1500000Y19050000D03*
X1500000Y-1270000D03*
X1500000Y-11430000D03*
D14*
X1500000Y24130000D03*
D13*
X1500000Y13970000D03*
X1500000Y3810000D03*
X1500000Y-8890000D03*
X1500000Y-19050000D03*
X1500000Y-24130000D03*
X1500000Y-6350000D03*
X1500000Y6350000D03*
X1500000Y-21590000D03*
X1500000Y21590000D03*
X1500000Y16510000D03*
%TD*%
D15*
%TO.C,U6*%
X60810000Y-10960000D03*
X58270000Y-10960000D03*
X55730000Y-10960000D03*
X53190000Y-10960000D03*
X53190000Y-24040000D03*
X55730000Y-24040000D03*
X58270000Y-24040000D03*
X60810000Y-24040000D03*
%TD*%
D16*
%TO.C,J2*%
X28500000Y15000000D03*
X28500000Y-15000000D03*
D17*
X49770000Y-2540000D03*
X47230000Y-2540000D03*
X49770000Y0D03*
X47230000Y0D03*
X49770000Y2540000D03*
X47230000Y2540000D03*
%TD*%
D18*
%TO.C,U2*%
X37580000Y-7620000D03*
X32500000Y-7620000D03*
X27420000Y-7620000D03*
X35040000Y-7620000D03*
X29960000Y-7620000D03*
X27420000Y7620000D03*
X32500000Y7620000D03*
X37580000Y7620000D03*
X29960000Y7620000D03*
X35040000Y7620000D03*
%TD*%
%TO.C,U5*%
X37940000Y-24765000D03*
X37940000Y-17145000D03*
X37940000Y-22225000D03*
X37940000Y-19685000D03*
X37940000Y-14605000D03*
X45560000Y-14605000D03*
X45560000Y-22225000D03*
X45560000Y-17145000D03*
X45560000Y-19685000D03*
X45560000Y-24765000D03*
D19*
X34384000Y-12319000D03*
X34384000Y-27051000D03*
X49116000Y-27051000D03*
X49116000Y-12319000D03*
%TD*%
D20*
%TO.C,BT1*%
X39267800Y12000000D03*
X49250000Y12000000D03*
%TD*%
D18*
%TO.C,U1*%
X21590000Y-15875000D03*
X19050000Y-15875000D03*
X16510000Y-15875000D03*
X13970000Y-15875000D03*
X11430000Y-15875000D03*
X8890000Y-10795000D03*
X8890000Y-13335000D03*
X8890000Y-15875000D03*
X8890000Y-18415000D03*
X8890000Y-8255000D03*
X8890000Y-5715000D03*
X8890000Y-3175000D03*
X8890000Y-20955000D03*
X8890000Y-23495000D03*
X8890000Y-26035000D03*
X8890000Y-28575000D03*
X24130000Y-28575000D03*
X24130000Y-26035000D03*
X24130000Y-23495000D03*
X24130000Y-20955000D03*
X24130000Y-18415000D03*
X24130000Y-15875000D03*
X24130000Y-13335000D03*
X24130000Y-10795000D03*
X24130000Y-8255000D03*
X24130000Y-5715000D03*
X8890000Y-635000D03*
X8890000Y1905000D03*
X8890000Y4445000D03*
X8890000Y6985000D03*
X8890000Y9525000D03*
X8890000Y12065000D03*
X8890000Y14605000D03*
X8890000Y17145000D03*
X8890000Y19685000D03*
X8890000Y22225000D03*
X8890000Y24765000D03*
X8890000Y27305000D03*
D21*
X8890000Y29845000D03*
D18*
X24130000Y-3175000D03*
X24130000Y-635000D03*
X24130000Y1905000D03*
X24130000Y4445000D03*
X24130000Y6985000D03*
X24130000Y9525000D03*
X24130000Y12065000D03*
X24130000Y14605000D03*
X24130000Y17145000D03*
X24130000Y19685000D03*
X24130000Y22225000D03*
X24130000Y24765000D03*
X24130000Y27305000D03*
X24130000Y29845000D03*
X21590000Y27305000D03*
%TD*%
D22*
%TO.C,JP2*%
X54500000Y-5040000D03*
D23*
X54500000Y-2500000D03*
%TD*%
D24*
%TO.C,SW1*%
X58660000Y1490000D03*
D25*
X61150000Y2750000D03*
X61150000Y7250000D03*
D24*
X58660000Y8500000D03*
%TD*%
D26*
%TO.C,TP1*%
X41750000Y6000000D03*
%TD*%
%TO.C,TP2*%
X41750000Y-6000000D03*
%TD*%
M02*
