%TF.GenerationSoftware,KiCad,Pcbnew,(5.1.8)-1*%
%TF.CreationDate,2020-11-12T22:30:36-08:00*%
%TF.ProjectId,IRIS-core,49524953-2d63-46f7-9265-2e6b69636164,rev?*%
%TF.SameCoordinates,Original*%
%TF.FileFunction,Soldermask,Top*%
%TF.FilePolarity,Negative*%
%FSLAX46Y46*%
G04 Gerber Fmt 4.6, Leading zero omitted, Abs format (unit mm)*
G04 Created by KiCad (PCBNEW (5.1.8)-1) date 2020-11-12 22:30:36*
%MOMM*%
%LPD*%
G01*
G04 APERTURE LIST*
%ADD10C,0.100000*%
%ADD11C,0.800000*%
%ADD12C,6.400000*%
%ADD13C,1.370000*%
%ADD14R,1.370000X1.370000*%
%ADD15R,1.143000X1.397000*%
%ADD16C,1.500000*%
%ADD17C,1.800000*%
%ADD18C,1.524000*%
%ADD19C,1.460000*%
%ADD20C,3.048000*%
%ADD21C,1.778000*%
%ADD22R,1.460000X1.460000*%
%ADD23R,1.200000X0.900000*%
%ADD24R,0.900000X1.200000*%
%ADD25O,1.700000X1.700000*%
%ADD26R,1.700000X1.700000*%
%ADD27R,0.650000X1.060000*%
%ADD28R,1.500000X0.700000*%
%ADD29R,1.500000X1.000000*%
%ADD30R,0.700000X1.500000*%
%ADD31C,2.100000*%
%ADD32C,1.750000*%
%ADD33C,2.800000*%
G04 APERTURE END LIST*
D10*
%TO.C,U2*%
X33280999Y7620000D02*
G75*
G03*
X33280999Y7620000I-780999J0D01*
G01*
X38360999Y7620000D02*
G75*
G03*
X38360999Y7620000I-780999J0D01*
G01*
X30740999Y7620000D02*
G75*
G03*
X30740999Y7620000I-780999J0D01*
G01*
X35820999Y7620000D02*
G75*
G03*
X35820999Y7620000I-780999J0D01*
G01*
X28200999Y7620000D02*
G75*
G03*
X28200999Y7620000I-780999J0D01*
G01*
X33280999Y-7620000D02*
G75*
G03*
X33280999Y-7620000I-780999J0D01*
G01*
X28200999Y-7620000D02*
G75*
G03*
X28200999Y-7620000I-780999J0D01*
G01*
X35820999Y-7620000D02*
G75*
G03*
X35820999Y-7620000I-780999J0D01*
G01*
X30740999Y-7620000D02*
G75*
G03*
X30740999Y-7620000I-780999J0D01*
G01*
X38360999Y-7620000D02*
G75*
G03*
X38360999Y-7620000I-780999J0D01*
G01*
%TO.C,U5*%
X38720999Y-17145000D02*
G75*
G03*
X38720999Y-17145000I-780999J0D01*
G01*
X38720999Y-19685000D02*
G75*
G03*
X38720999Y-19685000I-780999J0D01*
G01*
X38720999Y-14605000D02*
G75*
G03*
X38720999Y-14605000I-780999J0D01*
G01*
X38720999Y-22225000D02*
G75*
G03*
X38720999Y-22225000I-780999J0D01*
G01*
X38720999Y-24765000D02*
G75*
G03*
X38720999Y-24765000I-780999J0D01*
G01*
X46340999Y-22225000D02*
G75*
G03*
X46340999Y-22225000I-780999J0D01*
G01*
X46340999Y-19685000D02*
G75*
G03*
X46340999Y-19685000I-780999J0D01*
G01*
X46340999Y-24765000D02*
G75*
G03*
X46340999Y-24765000I-780999J0D01*
G01*
X46340999Y-17145000D02*
G75*
G03*
X46340999Y-17145000I-780999J0D01*
G01*
X46340999Y-14605000D02*
G75*
G03*
X46340999Y-14605000I-780999J0D01*
G01*
%TD*%
%TO.C,C1*%
G36*
G01*
X42075000Y-3250000D02*
X42075000Y-2750000D01*
G75*
G02*
X42300000Y-2525000I225000J0D01*
G01*
X42750000Y-2525000D01*
G75*
G02*
X42975000Y-2750000I0J-225000D01*
G01*
X42975000Y-3250000D01*
G75*
G02*
X42750000Y-3475000I-225000J0D01*
G01*
X42300000Y-3475000D01*
G75*
G02*
X42075000Y-3250000I0J225000D01*
G01*
G37*
G36*
G01*
X40525000Y-3250000D02*
X40525000Y-2750000D01*
G75*
G02*
X40750000Y-2525000I225000J0D01*
G01*
X41200000Y-2525000D01*
G75*
G02*
X41425000Y-2750000I0J-225000D01*
G01*
X41425000Y-3250000D01*
G75*
G02*
X41200000Y-3475000I-225000J0D01*
G01*
X40750000Y-3475000D01*
G75*
G02*
X40525000Y-3250000I0J225000D01*
G01*
G37*
%TD*%
%TO.C,C2*%
G36*
G01*
X33500000Y-3325000D02*
X34000000Y-3325000D01*
G75*
G02*
X34225000Y-3550000I0J-225000D01*
G01*
X34225000Y-4000000D01*
G75*
G02*
X34000000Y-4225000I-225000J0D01*
G01*
X33500000Y-4225000D01*
G75*
G02*
X33275000Y-4000000I0J225000D01*
G01*
X33275000Y-3550000D01*
G75*
G02*
X33500000Y-3325000I225000J0D01*
G01*
G37*
G36*
G01*
X33500000Y-1775000D02*
X34000000Y-1775000D01*
G75*
G02*
X34225000Y-2000000I0J-225000D01*
G01*
X34225000Y-2450000D01*
G75*
G02*
X34000000Y-2675000I-225000J0D01*
G01*
X33500000Y-2675000D01*
G75*
G02*
X33275000Y-2450000I0J225000D01*
G01*
X33275000Y-2000000D01*
G75*
G02*
X33500000Y-1775000I225000J0D01*
G01*
G37*
%TD*%
%TO.C,C3*%
G36*
G01*
X35250000Y-3325000D02*
X35750000Y-3325000D01*
G75*
G02*
X35975000Y-3550000I0J-225000D01*
G01*
X35975000Y-4000000D01*
G75*
G02*
X35750000Y-4225000I-225000J0D01*
G01*
X35250000Y-4225000D01*
G75*
G02*
X35025000Y-4000000I0J225000D01*
G01*
X35025000Y-3550000D01*
G75*
G02*
X35250000Y-3325000I225000J0D01*
G01*
G37*
G36*
G01*
X35250000Y-1775000D02*
X35750000Y-1775000D01*
G75*
G02*
X35975000Y-2000000I0J-225000D01*
G01*
X35975000Y-2450000D01*
G75*
G02*
X35750000Y-2675000I-225000J0D01*
G01*
X35250000Y-2675000D01*
G75*
G02*
X35025000Y-2450000I0J225000D01*
G01*
X35025000Y-2000000D01*
G75*
G02*
X35250000Y-1775000I225000J0D01*
G01*
G37*
%TD*%
%TO.C,C5*%
G36*
G01*
X29500000Y-2675000D02*
X29000000Y-2675000D01*
G75*
G02*
X28775000Y-2450000I0J225000D01*
G01*
X28775000Y-2000000D01*
G75*
G02*
X29000000Y-1775000I225000J0D01*
G01*
X29500000Y-1775000D01*
G75*
G02*
X29725000Y-2000000I0J-225000D01*
G01*
X29725000Y-2450000D01*
G75*
G02*
X29500000Y-2675000I-225000J0D01*
G01*
G37*
G36*
G01*
X29500000Y-4225000D02*
X29000000Y-4225000D01*
G75*
G02*
X28775000Y-4000000I0J225000D01*
G01*
X28775000Y-3550000D01*
G75*
G02*
X29000000Y-3325000I225000J0D01*
G01*
X29500000Y-3325000D01*
G75*
G02*
X29725000Y-3550000I0J-225000D01*
G01*
X29725000Y-4000000D01*
G75*
G02*
X29500000Y-4225000I-225000J0D01*
G01*
G37*
%TD*%
%TO.C,C6*%
G36*
G01*
X20575000Y8500000D02*
X20575000Y9000000D01*
G75*
G02*
X20800000Y9225000I225000J0D01*
G01*
X21250000Y9225000D01*
G75*
G02*
X21475000Y9000000I0J-225000D01*
G01*
X21475000Y8500000D01*
G75*
G02*
X21250000Y8275000I-225000J0D01*
G01*
X20800000Y8275000D01*
G75*
G02*
X20575000Y8500000I0J225000D01*
G01*
G37*
G36*
G01*
X19025000Y8500000D02*
X19025000Y9000000D01*
G75*
G02*
X19250000Y9225000I225000J0D01*
G01*
X19700000Y9225000D01*
G75*
G02*
X19925000Y9000000I0J-225000D01*
G01*
X19925000Y8500000D01*
G75*
G02*
X19700000Y8275000I-225000J0D01*
G01*
X19250000Y8275000D01*
G75*
G02*
X19025000Y8500000I0J225000D01*
G01*
G37*
%TD*%
%TO.C,C7*%
G36*
G01*
X60075000Y-9000000D02*
X60075000Y-8500000D01*
G75*
G02*
X60300000Y-8275000I225000J0D01*
G01*
X60750000Y-8275000D01*
G75*
G02*
X60975000Y-8500000I0J-225000D01*
G01*
X60975000Y-9000000D01*
G75*
G02*
X60750000Y-9225000I-225000J0D01*
G01*
X60300000Y-9225000D01*
G75*
G02*
X60075000Y-9000000I0J225000D01*
G01*
G37*
G36*
G01*
X58525000Y-9000000D02*
X58525000Y-8500000D01*
G75*
G02*
X58750000Y-8275000I225000J0D01*
G01*
X59200000Y-8275000D01*
G75*
G02*
X59425000Y-8500000I0J-225000D01*
G01*
X59425000Y-9000000D01*
G75*
G02*
X59200000Y-9225000I-225000J0D01*
G01*
X58750000Y-9225000D01*
G75*
G02*
X58525000Y-9000000I0J225000D01*
G01*
G37*
%TD*%
%TO.C,C8*%
G36*
G01*
X45500000Y28325000D02*
X45000000Y28325000D01*
G75*
G02*
X44775000Y28550000I0J225000D01*
G01*
X44775000Y29000000D01*
G75*
G02*
X45000000Y29225000I225000J0D01*
G01*
X45500000Y29225000D01*
G75*
G02*
X45725000Y29000000I0J-225000D01*
G01*
X45725000Y28550000D01*
G75*
G02*
X45500000Y28325000I-225000J0D01*
G01*
G37*
G36*
G01*
X45500000Y26775000D02*
X45000000Y26775000D01*
G75*
G02*
X44775000Y27000000I0J225000D01*
G01*
X44775000Y27450000D01*
G75*
G02*
X45000000Y27675000I225000J0D01*
G01*
X45500000Y27675000D01*
G75*
G02*
X45725000Y27450000I0J-225000D01*
G01*
X45725000Y27000000D01*
G75*
G02*
X45500000Y26775000I-225000J0D01*
G01*
G37*
%TD*%
%TO.C,C9*%
G36*
G01*
X43500000Y28325000D02*
X43000000Y28325000D01*
G75*
G02*
X42775000Y28550000I0J225000D01*
G01*
X42775000Y29000000D01*
G75*
G02*
X43000000Y29225000I225000J0D01*
G01*
X43500000Y29225000D01*
G75*
G02*
X43725000Y29000000I0J-225000D01*
G01*
X43725000Y28550000D01*
G75*
G02*
X43500000Y28325000I-225000J0D01*
G01*
G37*
G36*
G01*
X43500000Y26775000D02*
X43000000Y26775000D01*
G75*
G02*
X42775000Y27000000I0J225000D01*
G01*
X42775000Y27450000D01*
G75*
G02*
X43000000Y27675000I225000J0D01*
G01*
X43500000Y27675000D01*
G75*
G02*
X43725000Y27450000I0J-225000D01*
G01*
X43725000Y27000000D01*
G75*
G02*
X43500000Y26775000I-225000J0D01*
G01*
G37*
%TD*%
%TO.C,C4*%
G36*
G01*
X30525000Y-3450000D02*
X31475000Y-3450000D01*
G75*
G02*
X31725000Y-3700000I0J-250000D01*
G01*
X31725000Y-4200000D01*
G75*
G02*
X31475000Y-4450000I-250000J0D01*
G01*
X30525000Y-4450000D01*
G75*
G02*
X30275000Y-4200000I0J250000D01*
G01*
X30275000Y-3700000D01*
G75*
G02*
X30525000Y-3450000I250000J0D01*
G01*
G37*
G36*
G01*
X30525000Y-1550000D02*
X31475000Y-1550000D01*
G75*
G02*
X31725000Y-1800000I0J-250000D01*
G01*
X31725000Y-2300000D01*
G75*
G02*
X31475000Y-2550000I-250000J0D01*
G01*
X30525000Y-2550000D01*
G75*
G02*
X30275000Y-2300000I0J250000D01*
G01*
X30275000Y-1800000D01*
G75*
G02*
X30525000Y-1550000I250000J0D01*
G01*
G37*
%TD*%
%TO.C,R1*%
G36*
G01*
X19525000Y11675000D02*
X18975000Y11675000D01*
G75*
G02*
X18775000Y11875000I0J200000D01*
G01*
X18775000Y12275000D01*
G75*
G02*
X18975000Y12475000I200000J0D01*
G01*
X19525000Y12475000D01*
G75*
G02*
X19725000Y12275000I0J-200000D01*
G01*
X19725000Y11875000D01*
G75*
G02*
X19525000Y11675000I-200000J0D01*
G01*
G37*
G36*
G01*
X19525000Y10025000D02*
X18975000Y10025000D01*
G75*
G02*
X18775000Y10225000I0J200000D01*
G01*
X18775000Y10625000D01*
G75*
G02*
X18975000Y10825000I200000J0D01*
G01*
X19525000Y10825000D01*
G75*
G02*
X19725000Y10625000I0J-200000D01*
G01*
X19725000Y10225000D01*
G75*
G02*
X19525000Y10025000I-200000J0D01*
G01*
G37*
%TD*%
%TO.C,R2*%
G36*
G01*
X21525000Y11675000D02*
X20975000Y11675000D01*
G75*
G02*
X20775000Y11875000I0J200000D01*
G01*
X20775000Y12275000D01*
G75*
G02*
X20975000Y12475000I200000J0D01*
G01*
X21525000Y12475000D01*
G75*
G02*
X21725000Y12275000I0J-200000D01*
G01*
X21725000Y11875000D01*
G75*
G02*
X21525000Y11675000I-200000J0D01*
G01*
G37*
G36*
G01*
X21525000Y10025000D02*
X20975000Y10025000D01*
G75*
G02*
X20775000Y10225000I0J200000D01*
G01*
X20775000Y10625000D01*
G75*
G02*
X20975000Y10825000I200000J0D01*
G01*
X21525000Y10825000D01*
G75*
G02*
X21725000Y10625000I0J-200000D01*
G01*
X21725000Y10225000D01*
G75*
G02*
X21525000Y10025000I-200000J0D01*
G01*
G37*
%TD*%
%TO.C,R3*%
G36*
G01*
X42175000Y2725000D02*
X42175000Y3275000D01*
G75*
G02*
X42375000Y3475000I200000J0D01*
G01*
X42775000Y3475000D01*
G75*
G02*
X42975000Y3275000I0J-200000D01*
G01*
X42975000Y2725000D01*
G75*
G02*
X42775000Y2525000I-200000J0D01*
G01*
X42375000Y2525000D01*
G75*
G02*
X42175000Y2725000I0J200000D01*
G01*
G37*
G36*
G01*
X40525000Y2725000D02*
X40525000Y3275000D01*
G75*
G02*
X40725000Y3475000I200000J0D01*
G01*
X41125000Y3475000D01*
G75*
G02*
X41325000Y3275000I0J-200000D01*
G01*
X41325000Y2725000D01*
G75*
G02*
X41125000Y2525000I-200000J0D01*
G01*
X40725000Y2525000D01*
G75*
G02*
X40525000Y2725000I0J200000D01*
G01*
G37*
%TD*%
%TO.C,R4*%
G36*
G01*
X42175000Y725000D02*
X42175000Y1275000D01*
G75*
G02*
X42375000Y1475000I200000J0D01*
G01*
X42775000Y1475000D01*
G75*
G02*
X42975000Y1275000I0J-200000D01*
G01*
X42975000Y725000D01*
G75*
G02*
X42775000Y525000I-200000J0D01*
G01*
X42375000Y525000D01*
G75*
G02*
X42175000Y725000I0J200000D01*
G01*
G37*
G36*
G01*
X40525000Y725000D02*
X40525000Y1275000D01*
G75*
G02*
X40725000Y1475000I200000J0D01*
G01*
X41125000Y1475000D01*
G75*
G02*
X41325000Y1275000I0J-200000D01*
G01*
X41325000Y725000D01*
G75*
G02*
X41125000Y525000I-200000J0D01*
G01*
X40725000Y525000D01*
G75*
G02*
X40525000Y725000I0J200000D01*
G01*
G37*
%TD*%
%TO.C,R5*%
G36*
G01*
X42175000Y-1275000D02*
X42175000Y-725000D01*
G75*
G02*
X42375000Y-525000I200000J0D01*
G01*
X42775000Y-525000D01*
G75*
G02*
X42975000Y-725000I0J-200000D01*
G01*
X42975000Y-1275000D01*
G75*
G02*
X42775000Y-1475000I-200000J0D01*
G01*
X42375000Y-1475000D01*
G75*
G02*
X42175000Y-1275000I0J200000D01*
G01*
G37*
G36*
G01*
X40525000Y-1275000D02*
X40525000Y-725000D01*
G75*
G02*
X40725000Y-525000I200000J0D01*
G01*
X41125000Y-525000D01*
G75*
G02*
X41325000Y-725000I0J-200000D01*
G01*
X41325000Y-1275000D01*
G75*
G02*
X41125000Y-1475000I-200000J0D01*
G01*
X40725000Y-1475000D01*
G75*
G02*
X40525000Y-1275000I0J200000D01*
G01*
G37*
%TD*%
%TO.C,R6*%
G36*
G01*
X38175000Y4975000D02*
X38175000Y5525000D01*
G75*
G02*
X38375000Y5725000I200000J0D01*
G01*
X38775000Y5725000D01*
G75*
G02*
X38975000Y5525000I0J-200000D01*
G01*
X38975000Y4975000D01*
G75*
G02*
X38775000Y4775000I-200000J0D01*
G01*
X38375000Y4775000D01*
G75*
G02*
X38175000Y4975000I0J200000D01*
G01*
G37*
G36*
G01*
X36525000Y4975000D02*
X36525000Y5525000D01*
G75*
G02*
X36725000Y5725000I200000J0D01*
G01*
X37125000Y5725000D01*
G75*
G02*
X37325000Y5525000I0J-200000D01*
G01*
X37325000Y4975000D01*
G75*
G02*
X37125000Y4775000I-200000J0D01*
G01*
X36725000Y4775000D01*
G75*
G02*
X36525000Y4975000I0J200000D01*
G01*
G37*
%TD*%
%TO.C,R7*%
G36*
G01*
X33675000Y4975000D02*
X33675000Y5525000D01*
G75*
G02*
X33875000Y5725000I200000J0D01*
G01*
X34275000Y5725000D01*
G75*
G02*
X34475000Y5525000I0J-200000D01*
G01*
X34475000Y4975000D01*
G75*
G02*
X34275000Y4775000I-200000J0D01*
G01*
X33875000Y4775000D01*
G75*
G02*
X33675000Y4975000I0J200000D01*
G01*
G37*
G36*
G01*
X32025000Y4975000D02*
X32025000Y5525000D01*
G75*
G02*
X32225000Y5725000I200000J0D01*
G01*
X32625000Y5725000D01*
G75*
G02*
X32825000Y5525000I0J-200000D01*
G01*
X32825000Y4975000D01*
G75*
G02*
X32625000Y4775000I-200000J0D01*
G01*
X32225000Y4775000D01*
G75*
G02*
X32025000Y4975000I0J200000D01*
G01*
G37*
%TD*%
%TO.C,R8*%
G36*
G01*
X27775000Y3925000D02*
X27225000Y3925000D01*
G75*
G02*
X27025000Y4125000I0J200000D01*
G01*
X27025000Y4525000D01*
G75*
G02*
X27225000Y4725000I200000J0D01*
G01*
X27775000Y4725000D01*
G75*
G02*
X27975000Y4525000I0J-200000D01*
G01*
X27975000Y4125000D01*
G75*
G02*
X27775000Y3925000I-200000J0D01*
G01*
G37*
G36*
G01*
X27775000Y2275000D02*
X27225000Y2275000D01*
G75*
G02*
X27025000Y2475000I0J200000D01*
G01*
X27025000Y2875000D01*
G75*
G02*
X27225000Y3075000I200000J0D01*
G01*
X27775000Y3075000D01*
G75*
G02*
X27975000Y2875000I0J-200000D01*
G01*
X27975000Y2475000D01*
G75*
G02*
X27775000Y2275000I-200000J0D01*
G01*
G37*
%TD*%
%TO.C,R9*%
G36*
G01*
X29575000Y-5225000D02*
X29575000Y-5775000D01*
G75*
G02*
X29375000Y-5975000I-200000J0D01*
G01*
X28975000Y-5975000D01*
G75*
G02*
X28775000Y-5775000I0J200000D01*
G01*
X28775000Y-5225000D01*
G75*
G02*
X28975000Y-5025000I200000J0D01*
G01*
X29375000Y-5025000D01*
G75*
G02*
X29575000Y-5225000I0J-200000D01*
G01*
G37*
G36*
G01*
X31225000Y-5225000D02*
X31225000Y-5775000D01*
G75*
G02*
X31025000Y-5975000I-200000J0D01*
G01*
X30625000Y-5975000D01*
G75*
G02*
X30425000Y-5775000I0J200000D01*
G01*
X30425000Y-5225000D01*
G75*
G02*
X30625000Y-5025000I200000J0D01*
G01*
X31025000Y-5025000D01*
G75*
G02*
X31225000Y-5225000I0J-200000D01*
G01*
G37*
%TD*%
%TO.C,R10*%
G36*
G01*
X27775000Y-4325000D02*
X27225000Y-4325000D01*
G75*
G02*
X27025000Y-4125000I0J200000D01*
G01*
X27025000Y-3725000D01*
G75*
G02*
X27225000Y-3525000I200000J0D01*
G01*
X27775000Y-3525000D01*
G75*
G02*
X27975000Y-3725000I0J-200000D01*
G01*
X27975000Y-4125000D01*
G75*
G02*
X27775000Y-4325000I-200000J0D01*
G01*
G37*
G36*
G01*
X27775000Y-5975000D02*
X27225000Y-5975000D01*
G75*
G02*
X27025000Y-5775000I0J200000D01*
G01*
X27025000Y-5375000D01*
G75*
G02*
X27225000Y-5175000I200000J0D01*
G01*
X27775000Y-5175000D01*
G75*
G02*
X27975000Y-5375000I0J-200000D01*
G01*
X27975000Y-5775000D01*
G75*
G02*
X27775000Y-5975000I-200000J0D01*
G01*
G37*
%TD*%
%TO.C,R11*%
G36*
G01*
X20675000Y6725000D02*
X20675000Y7275000D01*
G75*
G02*
X20875000Y7475000I200000J0D01*
G01*
X21275000Y7475000D01*
G75*
G02*
X21475000Y7275000I0J-200000D01*
G01*
X21475000Y6725000D01*
G75*
G02*
X21275000Y6525000I-200000J0D01*
G01*
X20875000Y6525000D01*
G75*
G02*
X20675000Y6725000I0J200000D01*
G01*
G37*
G36*
G01*
X19025000Y6725000D02*
X19025000Y7275000D01*
G75*
G02*
X19225000Y7475000I200000J0D01*
G01*
X19625000Y7475000D01*
G75*
G02*
X19825000Y7275000I0J-200000D01*
G01*
X19825000Y6725000D01*
G75*
G02*
X19625000Y6525000I-200000J0D01*
G01*
X19225000Y6525000D01*
G75*
G02*
X19025000Y6725000I0J200000D01*
G01*
G37*
%TD*%
%TO.C,R12*%
G36*
G01*
X11925000Y-7275000D02*
X11925000Y-6725000D01*
G75*
G02*
X12125000Y-6525000I200000J0D01*
G01*
X12525000Y-6525000D01*
G75*
G02*
X12725000Y-6725000I0J-200000D01*
G01*
X12725000Y-7275000D01*
G75*
G02*
X12525000Y-7475000I-200000J0D01*
G01*
X12125000Y-7475000D01*
G75*
G02*
X11925000Y-7275000I0J200000D01*
G01*
G37*
G36*
G01*
X10275000Y-7275000D02*
X10275000Y-6725000D01*
G75*
G02*
X10475000Y-6525000I200000J0D01*
G01*
X10875000Y-6525000D01*
G75*
G02*
X11075000Y-6725000I0J-200000D01*
G01*
X11075000Y-7275000D01*
G75*
G02*
X10875000Y-7475000I-200000J0D01*
G01*
X10475000Y-7475000D01*
G75*
G02*
X10275000Y-7275000I0J200000D01*
G01*
G37*
%TD*%
%TO.C,R13*%
G36*
G01*
X41325000Y-23225000D02*
X41325000Y-23775000D01*
G75*
G02*
X41125000Y-23975000I-200000J0D01*
G01*
X40725000Y-23975000D01*
G75*
G02*
X40525000Y-23775000I0J200000D01*
G01*
X40525000Y-23225000D01*
G75*
G02*
X40725000Y-23025000I200000J0D01*
G01*
X41125000Y-23025000D01*
G75*
G02*
X41325000Y-23225000I0J-200000D01*
G01*
G37*
G36*
G01*
X42975000Y-23225000D02*
X42975000Y-23775000D01*
G75*
G02*
X42775000Y-23975000I-200000J0D01*
G01*
X42375000Y-23975000D01*
G75*
G02*
X42175000Y-23775000I0J200000D01*
G01*
X42175000Y-23225000D01*
G75*
G02*
X42375000Y-23025000I200000J0D01*
G01*
X42775000Y-23025000D01*
G75*
G02*
X42975000Y-23225000I0J-200000D01*
G01*
G37*
%TD*%
%TO.C,R14*%
G36*
G01*
X53925000Y-26525000D02*
X53925000Y-25975000D01*
G75*
G02*
X54125000Y-25775000I200000J0D01*
G01*
X54525000Y-25775000D01*
G75*
G02*
X54725000Y-25975000I0J-200000D01*
G01*
X54725000Y-26525000D01*
G75*
G02*
X54525000Y-26725000I-200000J0D01*
G01*
X54125000Y-26725000D01*
G75*
G02*
X53925000Y-26525000I0J200000D01*
G01*
G37*
G36*
G01*
X52275000Y-26525000D02*
X52275000Y-25975000D01*
G75*
G02*
X52475000Y-25775000I200000J0D01*
G01*
X52875000Y-25775000D01*
G75*
G02*
X53075000Y-25975000I0J-200000D01*
G01*
X53075000Y-26525000D01*
G75*
G02*
X52875000Y-26725000I-200000J0D01*
G01*
X52475000Y-26725000D01*
G75*
G02*
X52275000Y-26525000I0J200000D01*
G01*
G37*
%TD*%
%TO.C,R15*%
G36*
G01*
X60325000Y11775000D02*
X60325000Y11225000D01*
G75*
G02*
X60125000Y11025000I-200000J0D01*
G01*
X59725000Y11025000D01*
G75*
G02*
X59525000Y11225000I0J200000D01*
G01*
X59525000Y11775000D01*
G75*
G02*
X59725000Y11975000I200000J0D01*
G01*
X60125000Y11975000D01*
G75*
G02*
X60325000Y11775000I0J-200000D01*
G01*
G37*
G36*
G01*
X61975000Y11775000D02*
X61975000Y11225000D01*
G75*
G02*
X61775000Y11025000I-200000J0D01*
G01*
X61375000Y11025000D01*
G75*
G02*
X61175000Y11225000I0J200000D01*
G01*
X61175000Y11775000D01*
G75*
G02*
X61375000Y11975000I200000J0D01*
G01*
X61775000Y11975000D01*
G75*
G02*
X61975000Y11775000I0J-200000D01*
G01*
G37*
%TD*%
%TO.C,R16*%
G36*
G01*
X60325000Y21775000D02*
X60325000Y21225000D01*
G75*
G02*
X60125000Y21025000I-200000J0D01*
G01*
X59725000Y21025000D01*
G75*
G02*
X59525000Y21225000I0J200000D01*
G01*
X59525000Y21775000D01*
G75*
G02*
X59725000Y21975000I200000J0D01*
G01*
X60125000Y21975000D01*
G75*
G02*
X60325000Y21775000I0J-200000D01*
G01*
G37*
G36*
G01*
X61975000Y21775000D02*
X61975000Y21225000D01*
G75*
G02*
X61775000Y21025000I-200000J0D01*
G01*
X61375000Y21025000D01*
G75*
G02*
X61175000Y21225000I0J200000D01*
G01*
X61175000Y21775000D01*
G75*
G02*
X61375000Y21975000I200000J0D01*
G01*
X61775000Y21975000D01*
G75*
G02*
X61975000Y21775000I0J-200000D01*
G01*
G37*
%TD*%
%TO.C,R17*%
G36*
G01*
X60325000Y16775000D02*
X60325000Y16225000D01*
G75*
G02*
X60125000Y16025000I-200000J0D01*
G01*
X59725000Y16025000D01*
G75*
G02*
X59525000Y16225000I0J200000D01*
G01*
X59525000Y16775000D01*
G75*
G02*
X59725000Y16975000I200000J0D01*
G01*
X60125000Y16975000D01*
G75*
G02*
X60325000Y16775000I0J-200000D01*
G01*
G37*
G36*
G01*
X61975000Y16775000D02*
X61975000Y16225000D01*
G75*
G02*
X61775000Y16025000I-200000J0D01*
G01*
X61375000Y16025000D01*
G75*
G02*
X61175000Y16225000I0J200000D01*
G01*
X61175000Y16775000D01*
G75*
G02*
X61375000Y16975000I200000J0D01*
G01*
X61775000Y16975000D01*
G75*
G02*
X61975000Y16775000I0J-200000D01*
G01*
G37*
%TD*%
%TO.C,R18*%
G36*
G01*
X28825000Y20775000D02*
X28825000Y20225000D01*
G75*
G02*
X28625000Y20025000I-200000J0D01*
G01*
X28225000Y20025000D01*
G75*
G02*
X28025000Y20225000I0J200000D01*
G01*
X28025000Y20775000D01*
G75*
G02*
X28225000Y20975000I200000J0D01*
G01*
X28625000Y20975000D01*
G75*
G02*
X28825000Y20775000I0J-200000D01*
G01*
G37*
G36*
G01*
X30475000Y20775000D02*
X30475000Y20225000D01*
G75*
G02*
X30275000Y20025000I-200000J0D01*
G01*
X29875000Y20025000D01*
G75*
G02*
X29675000Y20225000I0J200000D01*
G01*
X29675000Y20775000D01*
G75*
G02*
X29875000Y20975000I200000J0D01*
G01*
X30275000Y20975000D01*
G75*
G02*
X30475000Y20775000I0J-200000D01*
G01*
G37*
%TD*%
%TO.C,R19*%
G36*
G01*
X28825000Y19025000D02*
X28825000Y18475000D01*
G75*
G02*
X28625000Y18275000I-200000J0D01*
G01*
X28225000Y18275000D01*
G75*
G02*
X28025000Y18475000I0J200000D01*
G01*
X28025000Y19025000D01*
G75*
G02*
X28225000Y19225000I200000J0D01*
G01*
X28625000Y19225000D01*
G75*
G02*
X28825000Y19025000I0J-200000D01*
G01*
G37*
G36*
G01*
X30475000Y19025000D02*
X30475000Y18475000D01*
G75*
G02*
X30275000Y18275000I-200000J0D01*
G01*
X29875000Y18275000D01*
G75*
G02*
X29675000Y18475000I0J200000D01*
G01*
X29675000Y19025000D01*
G75*
G02*
X29875000Y19225000I200000J0D01*
G01*
X30275000Y19225000D01*
G75*
G02*
X30475000Y19025000I0J-200000D01*
G01*
G37*
%TD*%
%TO.C,R20*%
G36*
G01*
X44675000Y21025000D02*
X44675000Y21575000D01*
G75*
G02*
X44875000Y21775000I200000J0D01*
G01*
X45275000Y21775000D01*
G75*
G02*
X45475000Y21575000I0J-200000D01*
G01*
X45475000Y21025000D01*
G75*
G02*
X45275000Y20825000I-200000J0D01*
G01*
X44875000Y20825000D01*
G75*
G02*
X44675000Y21025000I0J200000D01*
G01*
G37*
G36*
G01*
X43025000Y21025000D02*
X43025000Y21575000D01*
G75*
G02*
X43225000Y21775000I200000J0D01*
G01*
X43625000Y21775000D01*
G75*
G02*
X43825000Y21575000I0J-200000D01*
G01*
X43825000Y21025000D01*
G75*
G02*
X43625000Y20825000I-200000J0D01*
G01*
X43225000Y20825000D01*
G75*
G02*
X43025000Y21025000I0J200000D01*
G01*
G37*
%TD*%
%TO.C,R21*%
G36*
G01*
X44675000Y24025000D02*
X44675000Y24575000D01*
G75*
G02*
X44875000Y24775000I200000J0D01*
G01*
X45275000Y24775000D01*
G75*
G02*
X45475000Y24575000I0J-200000D01*
G01*
X45475000Y24025000D01*
G75*
G02*
X45275000Y23825000I-200000J0D01*
G01*
X44875000Y23825000D01*
G75*
G02*
X44675000Y24025000I0J200000D01*
G01*
G37*
G36*
G01*
X43025000Y24025000D02*
X43025000Y24575000D01*
G75*
G02*
X43225000Y24775000I200000J0D01*
G01*
X43625000Y24775000D01*
G75*
G02*
X43825000Y24575000I0J-200000D01*
G01*
X43825000Y24025000D01*
G75*
G02*
X43625000Y23825000I-200000J0D01*
G01*
X43225000Y23825000D01*
G75*
G02*
X43025000Y24025000I0J200000D01*
G01*
G37*
%TD*%
D11*
%TO.C,J1*%
X5900000Y29000000D03*
D12*
X3500000Y29000000D03*
D11*
X3500000Y26600000D03*
X1802944Y30697056D03*
X1802944Y27302944D03*
X1100000Y29000000D03*
X3500000Y31400000D03*
X5197056Y27302944D03*
X5197056Y30697056D03*
X63900000Y29000000D03*
D12*
X61500000Y29000000D03*
D11*
X61500000Y26600000D03*
X59802944Y30697056D03*
X59802944Y27302944D03*
X59100000Y29000000D03*
X61500000Y31400000D03*
X63197056Y27302944D03*
X63197056Y30697056D03*
X63900000Y-29000000D03*
D12*
X61500000Y-29000000D03*
D11*
X61500000Y-31400000D03*
X59802944Y-27302944D03*
X59802944Y-30697056D03*
X59100000Y-29000000D03*
X61500000Y-26600000D03*
X63197056Y-30697056D03*
X63197056Y-27302944D03*
X5900000Y-29000000D03*
X1802944Y-30697056D03*
D12*
X3500000Y-29000000D03*
D11*
X3500000Y-26600000D03*
X5197056Y-27302944D03*
X1100000Y-29000000D03*
X1802944Y-27302944D03*
X5197056Y-30697056D03*
X3500000Y-31400000D03*
D13*
X1500000Y-13970000D03*
X1500000Y-16510000D03*
X1500000Y-3810000D03*
X1500000Y11430000D03*
X1500000Y8890000D03*
X1500000Y1270000D03*
X1500000Y19050000D03*
X1500000Y-1270000D03*
X1500000Y-11430000D03*
D14*
X1500000Y24130000D03*
D13*
X1500000Y13970000D03*
X1500000Y3810000D03*
X1500000Y-8890000D03*
X1500000Y-19050000D03*
X1500000Y-24130000D03*
X1500000Y-6350000D03*
X1500000Y6350000D03*
X1500000Y-21590000D03*
X1500000Y21590000D03*
X1500000Y16510000D03*
%TD*%
D15*
%TO.C,U6*%
X53190000Y-22897500D03*
X55730000Y-22897500D03*
X58270000Y-22897500D03*
X60810000Y-22897500D03*
X53190000Y-12102500D03*
X55730000Y-12102500D03*
X58270000Y-12102500D03*
X60810000Y-12102500D03*
D16*
X60810000Y-10960000D03*
X58270000Y-10960000D03*
X55730000Y-10960000D03*
X53190000Y-10960000D03*
X53190000Y-24040000D03*
X55730000Y-24040000D03*
X58270000Y-24040000D03*
X60810000Y-24040000D03*
%TD*%
D17*
%TO.C,J2*%
X28500000Y15000000D03*
X28500000Y-15000000D03*
D18*
X49770000Y-2540000D03*
X47230000Y-2540000D03*
X49770000Y0D03*
X47230000Y0D03*
X49770000Y2540000D03*
X47230000Y2540000D03*
%TD*%
D19*
%TO.C,U2*%
X37580000Y-7620000D03*
X32500000Y-7620000D03*
X27420000Y-7620000D03*
X35040000Y-7620000D03*
X29960000Y-7620000D03*
X27420000Y7620000D03*
X32500000Y7620000D03*
X37580000Y7620000D03*
X29960000Y7620000D03*
X35040000Y7620000D03*
%TD*%
%TO.C,U5*%
X37940000Y-24765000D03*
X37940000Y-17145000D03*
X37940000Y-22225000D03*
X37940000Y-19685000D03*
X37940000Y-14605000D03*
X45560000Y-14605000D03*
X45560000Y-22225000D03*
X45560000Y-17145000D03*
X45560000Y-19685000D03*
X45560000Y-24765000D03*
D20*
X34384000Y-12319000D03*
X34384000Y-27051000D03*
X49116000Y-27051000D03*
X49116000Y-12319000D03*
%TD*%
D21*
%TO.C,BT1*%
X39267800Y12000000D03*
X49250000Y12000000D03*
%TD*%
D19*
%TO.C,U1*%
X21590000Y-15875000D03*
X19050000Y-15875000D03*
X16510000Y-15875000D03*
X13970000Y-15875000D03*
X11430000Y-15875000D03*
X8890000Y-10795000D03*
X8890000Y-13335000D03*
X8890000Y-15875000D03*
X8890000Y-18415000D03*
X8890000Y-8255000D03*
X8890000Y-5715000D03*
X8890000Y-3175000D03*
X8890000Y-20955000D03*
X8890000Y-23495000D03*
X8890000Y-26035000D03*
X8890000Y-28575000D03*
X24130000Y-28575000D03*
X24130000Y-26035000D03*
X24130000Y-23495000D03*
X24130000Y-20955000D03*
X24130000Y-18415000D03*
X24130000Y-15875000D03*
X24130000Y-13335000D03*
X24130000Y-10795000D03*
X24130000Y-8255000D03*
X24130000Y-5715000D03*
X8890000Y-635000D03*
X8890000Y1905000D03*
X8890000Y4445000D03*
X8890000Y6985000D03*
X8890000Y9525000D03*
X8890000Y12065000D03*
X8890000Y14605000D03*
X8890000Y17145000D03*
X8890000Y19685000D03*
X8890000Y22225000D03*
X8890000Y24765000D03*
X8890000Y27305000D03*
D22*
X8890000Y29845000D03*
D19*
X24130000Y-3175000D03*
X24130000Y-635000D03*
X24130000Y1905000D03*
X24130000Y4445000D03*
X24130000Y6985000D03*
X24130000Y9525000D03*
X24130000Y12065000D03*
X24130000Y14605000D03*
X24130000Y17145000D03*
X24130000Y19685000D03*
X24130000Y22225000D03*
X24130000Y24765000D03*
X24130000Y27305000D03*
X24130000Y29845000D03*
X21590000Y27305000D03*
%TD*%
D23*
%TO.C,D1*%
X29500000Y1850000D03*
X29500000Y5150000D03*
%TD*%
D24*
%TO.C,D2*%
X30900000Y0D03*
X27600000Y0D03*
%TD*%
D25*
%TO.C,JP2*%
X54500000Y-5040000D03*
D26*
X54500000Y-2500000D03*
%TD*%
%TO.C,U3*%
G36*
G01*
X38950000Y-255000D02*
X38950000Y-555000D01*
G75*
G02*
X38800000Y-705000I-150000J0D01*
G01*
X37150000Y-705000D01*
G75*
G02*
X37000000Y-555000I0J150000D01*
G01*
X37000000Y-255000D01*
G75*
G02*
X37150000Y-105000I150000J0D01*
G01*
X38800000Y-105000D01*
G75*
G02*
X38950000Y-255000I0J-150000D01*
G01*
G37*
G36*
G01*
X38950000Y1015000D02*
X38950000Y715000D01*
G75*
G02*
X38800000Y565000I-150000J0D01*
G01*
X37150000Y565000D01*
G75*
G02*
X37000000Y715000I0J150000D01*
G01*
X37000000Y1015000D01*
G75*
G02*
X37150000Y1165000I150000J0D01*
G01*
X38800000Y1165000D01*
G75*
G02*
X38950000Y1015000I0J-150000D01*
G01*
G37*
G36*
G01*
X38950000Y2285000D02*
X38950000Y1985000D01*
G75*
G02*
X38800000Y1835000I-150000J0D01*
G01*
X37150000Y1835000D01*
G75*
G02*
X37000000Y1985000I0J150000D01*
G01*
X37000000Y2285000D01*
G75*
G02*
X37150000Y2435000I150000J0D01*
G01*
X38800000Y2435000D01*
G75*
G02*
X38950000Y2285000I0J-150000D01*
G01*
G37*
G36*
G01*
X38950000Y3555000D02*
X38950000Y3255000D01*
G75*
G02*
X38800000Y3105000I-150000J0D01*
G01*
X37150000Y3105000D01*
G75*
G02*
X37000000Y3255000I0J150000D01*
G01*
X37000000Y3555000D01*
G75*
G02*
X37150000Y3705000I150000J0D01*
G01*
X38800000Y3705000D01*
G75*
G02*
X38950000Y3555000I0J-150000D01*
G01*
G37*
G36*
G01*
X34000000Y3555000D02*
X34000000Y3255000D01*
G75*
G02*
X33850000Y3105000I-150000J0D01*
G01*
X32200000Y3105000D01*
G75*
G02*
X32050000Y3255000I0J150000D01*
G01*
X32050000Y3555000D01*
G75*
G02*
X32200000Y3705000I150000J0D01*
G01*
X33850000Y3705000D01*
G75*
G02*
X34000000Y3555000I0J-150000D01*
G01*
G37*
G36*
G01*
X34000000Y2285000D02*
X34000000Y1985000D01*
G75*
G02*
X33850000Y1835000I-150000J0D01*
G01*
X32200000Y1835000D01*
G75*
G02*
X32050000Y1985000I0J150000D01*
G01*
X32050000Y2285000D01*
G75*
G02*
X32200000Y2435000I150000J0D01*
G01*
X33850000Y2435000D01*
G75*
G02*
X34000000Y2285000I0J-150000D01*
G01*
G37*
G36*
G01*
X34000000Y1015000D02*
X34000000Y715000D01*
G75*
G02*
X33850000Y565000I-150000J0D01*
G01*
X32200000Y565000D01*
G75*
G02*
X32050000Y715000I0J150000D01*
G01*
X32050000Y1015000D01*
G75*
G02*
X32200000Y1165000I150000J0D01*
G01*
X33850000Y1165000D01*
G75*
G02*
X34000000Y1015000I0J-150000D01*
G01*
G37*
G36*
G01*
X34000000Y-255000D02*
X34000000Y-555000D01*
G75*
G02*
X33850000Y-705000I-150000J0D01*
G01*
X32200000Y-705000D01*
G75*
G02*
X32050000Y-555000I0J150000D01*
G01*
X32050000Y-255000D01*
G75*
G02*
X32200000Y-105000I150000J0D01*
G01*
X33850000Y-105000D01*
G75*
G02*
X34000000Y-255000I0J-150000D01*
G01*
G37*
%TD*%
%TO.C,U4*%
G36*
G01*
X20795000Y5675000D02*
X21095000Y5675000D01*
G75*
G02*
X21245000Y5525000I0J-150000D01*
G01*
X21245000Y3775000D01*
G75*
G02*
X21095000Y3625000I-150000J0D01*
G01*
X20795000Y3625000D01*
G75*
G02*
X20645000Y3775000I0J150000D01*
G01*
X20645000Y5525000D01*
G75*
G02*
X20795000Y5675000I150000J0D01*
G01*
G37*
G36*
G01*
X19525000Y5675000D02*
X19825000Y5675000D01*
G75*
G02*
X19975000Y5525000I0J-150000D01*
G01*
X19975000Y3775000D01*
G75*
G02*
X19825000Y3625000I-150000J0D01*
G01*
X19525000Y3625000D01*
G75*
G02*
X19375000Y3775000I0J150000D01*
G01*
X19375000Y5525000D01*
G75*
G02*
X19525000Y5675000I150000J0D01*
G01*
G37*
G36*
G01*
X18255000Y5675000D02*
X18555000Y5675000D01*
G75*
G02*
X18705000Y5525000I0J-150000D01*
G01*
X18705000Y3775000D01*
G75*
G02*
X18555000Y3625000I-150000J0D01*
G01*
X18255000Y3625000D01*
G75*
G02*
X18105000Y3775000I0J150000D01*
G01*
X18105000Y5525000D01*
G75*
G02*
X18255000Y5675000I150000J0D01*
G01*
G37*
G36*
G01*
X16985000Y5675000D02*
X17285000Y5675000D01*
G75*
G02*
X17435000Y5525000I0J-150000D01*
G01*
X17435000Y3775000D01*
G75*
G02*
X17285000Y3625000I-150000J0D01*
G01*
X16985000Y3625000D01*
G75*
G02*
X16835000Y3775000I0J150000D01*
G01*
X16835000Y5525000D01*
G75*
G02*
X16985000Y5675000I150000J0D01*
G01*
G37*
G36*
G01*
X15715000Y5675000D02*
X16015000Y5675000D01*
G75*
G02*
X16165000Y5525000I0J-150000D01*
G01*
X16165000Y3775000D01*
G75*
G02*
X16015000Y3625000I-150000J0D01*
G01*
X15715000Y3625000D01*
G75*
G02*
X15565000Y3775000I0J150000D01*
G01*
X15565000Y5525000D01*
G75*
G02*
X15715000Y5675000I150000J0D01*
G01*
G37*
G36*
G01*
X14445000Y5675000D02*
X14745000Y5675000D01*
G75*
G02*
X14895000Y5525000I0J-150000D01*
G01*
X14895000Y3775000D01*
G75*
G02*
X14745000Y3625000I-150000J0D01*
G01*
X14445000Y3625000D01*
G75*
G02*
X14295000Y3775000I0J150000D01*
G01*
X14295000Y5525000D01*
G75*
G02*
X14445000Y5675000I150000J0D01*
G01*
G37*
G36*
G01*
X13175000Y5675000D02*
X13475000Y5675000D01*
G75*
G02*
X13625000Y5525000I0J-150000D01*
G01*
X13625000Y3775000D01*
G75*
G02*
X13475000Y3625000I-150000J0D01*
G01*
X13175000Y3625000D01*
G75*
G02*
X13025000Y3775000I0J150000D01*
G01*
X13025000Y5525000D01*
G75*
G02*
X13175000Y5675000I150000J0D01*
G01*
G37*
G36*
G01*
X11905000Y5675000D02*
X12205000Y5675000D01*
G75*
G02*
X12355000Y5525000I0J-150000D01*
G01*
X12355000Y3775000D01*
G75*
G02*
X12205000Y3625000I-150000J0D01*
G01*
X11905000Y3625000D01*
G75*
G02*
X11755000Y3775000I0J150000D01*
G01*
X11755000Y5525000D01*
G75*
G02*
X11905000Y5675000I150000J0D01*
G01*
G37*
G36*
G01*
X11905000Y-3625000D02*
X12205000Y-3625000D01*
G75*
G02*
X12355000Y-3775000I0J-150000D01*
G01*
X12355000Y-5525000D01*
G75*
G02*
X12205000Y-5675000I-150000J0D01*
G01*
X11905000Y-5675000D01*
G75*
G02*
X11755000Y-5525000I0J150000D01*
G01*
X11755000Y-3775000D01*
G75*
G02*
X11905000Y-3625000I150000J0D01*
G01*
G37*
G36*
G01*
X13175000Y-3625000D02*
X13475000Y-3625000D01*
G75*
G02*
X13625000Y-3775000I0J-150000D01*
G01*
X13625000Y-5525000D01*
G75*
G02*
X13475000Y-5675000I-150000J0D01*
G01*
X13175000Y-5675000D01*
G75*
G02*
X13025000Y-5525000I0J150000D01*
G01*
X13025000Y-3775000D01*
G75*
G02*
X13175000Y-3625000I150000J0D01*
G01*
G37*
G36*
G01*
X14445000Y-3625000D02*
X14745000Y-3625000D01*
G75*
G02*
X14895000Y-3775000I0J-150000D01*
G01*
X14895000Y-5525000D01*
G75*
G02*
X14745000Y-5675000I-150000J0D01*
G01*
X14445000Y-5675000D01*
G75*
G02*
X14295000Y-5525000I0J150000D01*
G01*
X14295000Y-3775000D01*
G75*
G02*
X14445000Y-3625000I150000J0D01*
G01*
G37*
G36*
G01*
X15715000Y-3625000D02*
X16015000Y-3625000D01*
G75*
G02*
X16165000Y-3775000I0J-150000D01*
G01*
X16165000Y-5525000D01*
G75*
G02*
X16015000Y-5675000I-150000J0D01*
G01*
X15715000Y-5675000D01*
G75*
G02*
X15565000Y-5525000I0J150000D01*
G01*
X15565000Y-3775000D01*
G75*
G02*
X15715000Y-3625000I150000J0D01*
G01*
G37*
G36*
G01*
X16985000Y-3625000D02*
X17285000Y-3625000D01*
G75*
G02*
X17435000Y-3775000I0J-150000D01*
G01*
X17435000Y-5525000D01*
G75*
G02*
X17285000Y-5675000I-150000J0D01*
G01*
X16985000Y-5675000D01*
G75*
G02*
X16835000Y-5525000I0J150000D01*
G01*
X16835000Y-3775000D01*
G75*
G02*
X16985000Y-3625000I150000J0D01*
G01*
G37*
G36*
G01*
X18255000Y-3625000D02*
X18555000Y-3625000D01*
G75*
G02*
X18705000Y-3775000I0J-150000D01*
G01*
X18705000Y-5525000D01*
G75*
G02*
X18555000Y-5675000I-150000J0D01*
G01*
X18255000Y-5675000D01*
G75*
G02*
X18105000Y-5525000I0J150000D01*
G01*
X18105000Y-3775000D01*
G75*
G02*
X18255000Y-3625000I150000J0D01*
G01*
G37*
G36*
G01*
X19525000Y-3625000D02*
X19825000Y-3625000D01*
G75*
G02*
X19975000Y-3775000I0J-150000D01*
G01*
X19975000Y-5525000D01*
G75*
G02*
X19825000Y-5675000I-150000J0D01*
G01*
X19525000Y-5675000D01*
G75*
G02*
X19375000Y-5525000I0J150000D01*
G01*
X19375000Y-3775000D01*
G75*
G02*
X19525000Y-3625000I150000J0D01*
G01*
G37*
G36*
G01*
X20795000Y-3625000D02*
X21095000Y-3625000D01*
G75*
G02*
X21245000Y-3775000I0J-150000D01*
G01*
X21245000Y-5525000D01*
G75*
G02*
X21095000Y-5675000I-150000J0D01*
G01*
X20795000Y-5675000D01*
G75*
G02*
X20645000Y-5525000I0J150000D01*
G01*
X20645000Y-3775000D01*
G75*
G02*
X20795000Y-3625000I150000J0D01*
G01*
G37*
%TD*%
D27*
%TO.C,U7*%
X6200000Y18880000D03*
X5250000Y18880000D03*
X4300000Y18880000D03*
X4300000Y16680000D03*
X6200000Y16680000D03*
X5250000Y16680000D03*
%TD*%
%TO.C,U8*%
X5250000Y6520000D03*
X6200000Y6520000D03*
X4300000Y6520000D03*
X4300000Y8720000D03*
X5250000Y8720000D03*
X6200000Y8720000D03*
%TD*%
%TO.C,U9*%
X6200000Y-1440000D03*
X5250000Y-1440000D03*
X4300000Y-1440000D03*
X4300000Y-3640000D03*
X6200000Y-3640000D03*
X5250000Y-3640000D03*
%TD*%
D28*
%TO.C,U10*%
X41150000Y19300000D03*
X41150000Y20300000D03*
X41150000Y21300000D03*
X41150000Y22300000D03*
X41150000Y23300000D03*
X41150000Y24300000D03*
X41150000Y25300000D03*
X41150000Y26300000D03*
X41150000Y27300000D03*
X41150000Y28300000D03*
X41150000Y29300000D03*
X41150000Y30300000D03*
D29*
X41150000Y31450000D03*
X32350000Y31450000D03*
D28*
X32350000Y30300000D03*
X32350000Y29300000D03*
X32350000Y28300000D03*
X32350000Y27300000D03*
X32350000Y26300000D03*
X32350000Y25300000D03*
X32350000Y24300000D03*
X32350000Y23300000D03*
X32350000Y22300000D03*
X32350000Y21300000D03*
X32350000Y20300000D03*
X32350000Y19300000D03*
D30*
X34750000Y18900000D03*
X35750000Y18900000D03*
X36750000Y18900000D03*
X37750000Y18900000D03*
X38750000Y18900000D03*
%TD*%
%TO.C,FB1*%
G36*
G01*
X37475000Y-5243750D02*
X37475000Y-5756250D01*
G75*
G02*
X37256250Y-5975000I-218750J0D01*
G01*
X36818750Y-5975000D01*
G75*
G02*
X36600000Y-5756250I0J218750D01*
G01*
X36600000Y-5243750D01*
G75*
G02*
X36818750Y-5025000I218750J0D01*
G01*
X37256250Y-5025000D01*
G75*
G02*
X37475000Y-5243750I0J-218750D01*
G01*
G37*
G36*
G01*
X35900000Y-5243750D02*
X35900000Y-5756250D01*
G75*
G02*
X35681250Y-5975000I-218750J0D01*
G01*
X35243750Y-5975000D01*
G75*
G02*
X35025000Y-5756250I0J218750D01*
G01*
X35025000Y-5243750D01*
G75*
G02*
X35243750Y-5025000I218750J0D01*
G01*
X35681250Y-5025000D01*
G75*
G02*
X35900000Y-5243750I0J-218750D01*
G01*
G37*
%TD*%
D31*
%TO.C,SW1*%
X58660000Y1490000D03*
D32*
X61150000Y2750000D03*
X61150000Y7250000D03*
D31*
X58660000Y8500000D03*
%TD*%
D10*
%TO.C,JP1*%
G36*
X5900000Y-14000602D02*
G01*
X5924534Y-14000602D01*
X5973365Y-14005412D01*
X6021490Y-14014984D01*
X6068445Y-14029228D01*
X6113778Y-14048005D01*
X6157051Y-14071136D01*
X6197850Y-14098396D01*
X6235779Y-14129524D01*
X6270476Y-14164221D01*
X6301604Y-14202150D01*
X6328864Y-14242949D01*
X6351995Y-14286222D01*
X6370772Y-14331555D01*
X6385016Y-14378510D01*
X6394588Y-14426635D01*
X6399398Y-14475466D01*
X6399398Y-14500000D01*
X6400000Y-14500000D01*
X6400000Y-15000000D01*
X6399398Y-15000000D01*
X6399398Y-15024534D01*
X6394588Y-15073365D01*
X6385016Y-15121490D01*
X6370772Y-15168445D01*
X6351995Y-15213778D01*
X6328864Y-15257051D01*
X6301604Y-15297850D01*
X6270476Y-15335779D01*
X6235779Y-15370476D01*
X6197850Y-15401604D01*
X6157051Y-15428864D01*
X6113778Y-15451995D01*
X6068445Y-15470772D01*
X6021490Y-15485016D01*
X5973365Y-15494588D01*
X5924534Y-15499398D01*
X5900000Y-15499398D01*
X5900000Y-15500000D01*
X5400000Y-15500000D01*
X5400000Y-14000000D01*
X5900000Y-14000000D01*
X5900000Y-14000602D01*
G37*
G36*
X5100000Y-15500000D02*
G01*
X4600000Y-15500000D01*
X4600000Y-15499398D01*
X4575466Y-15499398D01*
X4526635Y-15494588D01*
X4478510Y-15485016D01*
X4431555Y-15470772D01*
X4386222Y-15451995D01*
X4342949Y-15428864D01*
X4302150Y-15401604D01*
X4264221Y-15370476D01*
X4229524Y-15335779D01*
X4198396Y-15297850D01*
X4171136Y-15257051D01*
X4148005Y-15213778D01*
X4129228Y-15168445D01*
X4114984Y-15121490D01*
X4105412Y-15073365D01*
X4100602Y-15024534D01*
X4100602Y-15000000D01*
X4100000Y-15000000D01*
X4100000Y-14500000D01*
X4100602Y-14500000D01*
X4100602Y-14475466D01*
X4105412Y-14426635D01*
X4114984Y-14378510D01*
X4129228Y-14331555D01*
X4148005Y-14286222D01*
X4171136Y-14242949D01*
X4198396Y-14202150D01*
X4229524Y-14164221D01*
X4264221Y-14129524D01*
X4302150Y-14098396D01*
X4342949Y-14071136D01*
X4386222Y-14048005D01*
X4431555Y-14029228D01*
X4478510Y-14014984D01*
X4526635Y-14005412D01*
X4575466Y-14000602D01*
X4600000Y-14000602D01*
X4600000Y-14000000D01*
X5100000Y-14000000D01*
X5100000Y-15500000D01*
G37*
%TD*%
%TO.C,JP3*%
G36*
X37000000Y11850000D02*
G01*
X37000000Y11350000D01*
X36999398Y11350000D01*
X36999398Y11325466D01*
X36994588Y11276635D01*
X36985016Y11228510D01*
X36970772Y11181555D01*
X36951995Y11136222D01*
X36928864Y11092949D01*
X36901604Y11052150D01*
X36870476Y11014221D01*
X36835779Y10979524D01*
X36797850Y10948396D01*
X36757051Y10921136D01*
X36713778Y10898005D01*
X36668445Y10879228D01*
X36621490Y10864984D01*
X36573365Y10855412D01*
X36524534Y10850602D01*
X36500000Y10850602D01*
X36500000Y10850000D01*
X36000000Y10850000D01*
X36000000Y10850602D01*
X35975466Y10850602D01*
X35926635Y10855412D01*
X35878510Y10864984D01*
X35831555Y10879228D01*
X35786222Y10898005D01*
X35742949Y10921136D01*
X35702150Y10948396D01*
X35664221Y10979524D01*
X35629524Y11014221D01*
X35598396Y11052150D01*
X35571136Y11092949D01*
X35548005Y11136222D01*
X35529228Y11181555D01*
X35514984Y11228510D01*
X35505412Y11276635D01*
X35500602Y11325466D01*
X35500602Y11350000D01*
X35500000Y11350000D01*
X35500000Y11850000D01*
X37000000Y11850000D01*
G37*
G36*
X35500602Y12650000D02*
G01*
X35500602Y12674534D01*
X35505412Y12723365D01*
X35514984Y12771490D01*
X35529228Y12818445D01*
X35548005Y12863778D01*
X35571136Y12907051D01*
X35598396Y12947850D01*
X35629524Y12985779D01*
X35664221Y13020476D01*
X35702150Y13051604D01*
X35742949Y13078864D01*
X35786222Y13101995D01*
X35831555Y13120772D01*
X35878510Y13135016D01*
X35926635Y13144588D01*
X35975466Y13149398D01*
X36000000Y13149398D01*
X36000000Y13150000D01*
X36500000Y13150000D01*
X36500000Y13149398D01*
X36524534Y13149398D01*
X36573365Y13144588D01*
X36621490Y13135016D01*
X36668445Y13120772D01*
X36713778Y13101995D01*
X36757051Y13078864D01*
X36797850Y13051604D01*
X36835779Y13020476D01*
X36870476Y12985779D01*
X36901604Y12947850D01*
X36928864Y12907051D01*
X36951995Y12863778D01*
X36970772Y12818445D01*
X36985016Y12771490D01*
X36994588Y12723365D01*
X36999398Y12674534D01*
X36999398Y12650000D01*
X37000000Y12650000D01*
X37000000Y12150000D01*
X35500000Y12150000D01*
X35500000Y12650000D01*
X35500602Y12650000D01*
G37*
%TD*%
%TO.C,D3*%
G36*
G01*
X60300000Y13950001D02*
X60300000Y13049999D01*
G75*
G02*
X60050001Y12800000I-249999J0D01*
G01*
X59399999Y12800000D01*
G75*
G02*
X59150000Y13049999I0J249999D01*
G01*
X59150000Y13950001D01*
G75*
G02*
X59399999Y14200000I249999J0D01*
G01*
X60050001Y14200000D01*
G75*
G02*
X60300000Y13950001I0J-249999D01*
G01*
G37*
G36*
G01*
X62350000Y13950001D02*
X62350000Y13049999D01*
G75*
G02*
X62100001Y12800000I-249999J0D01*
G01*
X61449999Y12800000D01*
G75*
G02*
X61200000Y13049999I0J249999D01*
G01*
X61200000Y13950001D01*
G75*
G02*
X61449999Y14200000I249999J0D01*
G01*
X62100001Y14200000D01*
G75*
G02*
X62350000Y13950001I0J-249999D01*
G01*
G37*
%TD*%
%TO.C,D4*%
G36*
G01*
X62350000Y23950001D02*
X62350000Y23049999D01*
G75*
G02*
X62100001Y22800000I-249999J0D01*
G01*
X61449999Y22800000D01*
G75*
G02*
X61200000Y23049999I0J249999D01*
G01*
X61200000Y23950001D01*
G75*
G02*
X61449999Y24200000I249999J0D01*
G01*
X62100001Y24200000D01*
G75*
G02*
X62350000Y23950001I0J-249999D01*
G01*
G37*
G36*
G01*
X60300000Y23950001D02*
X60300000Y23049999D01*
G75*
G02*
X60050001Y22800000I-249999J0D01*
G01*
X59399999Y22800000D01*
G75*
G02*
X59150000Y23049999I0J249999D01*
G01*
X59150000Y23950001D01*
G75*
G02*
X59399999Y24200000I249999J0D01*
G01*
X60050001Y24200000D01*
G75*
G02*
X60300000Y23950001I0J-249999D01*
G01*
G37*
%TD*%
%TO.C,D5*%
G36*
G01*
X62350000Y18950001D02*
X62350000Y18049999D01*
G75*
G02*
X62100001Y17800000I-249999J0D01*
G01*
X61449999Y17800000D01*
G75*
G02*
X61200000Y18049999I0J249999D01*
G01*
X61200000Y18950001D01*
G75*
G02*
X61449999Y19200000I249999J0D01*
G01*
X62100001Y19200000D01*
G75*
G02*
X62350000Y18950001I0J-249999D01*
G01*
G37*
G36*
G01*
X60300000Y18950001D02*
X60300000Y18049999D01*
G75*
G02*
X60050001Y17800000I-249999J0D01*
G01*
X59399999Y17800000D01*
G75*
G02*
X59150000Y18049999I0J249999D01*
G01*
X59150000Y18950001D01*
G75*
G02*
X59399999Y19200000I249999J0D01*
G01*
X60050001Y19200000D01*
G75*
G02*
X60300000Y18950001I0J-249999D01*
G01*
G37*
%TD*%
D33*
%TO.C,TP1*%
X41750000Y6000000D03*
%TD*%
%TO.C,TP2*%
X41750000Y-6000000D03*
%TD*%
M02*
