%TF.GenerationSoftware,KiCad,Pcbnew,(5.1.8)-1*%
%TF.CreationDate,2020-11-12T22:30:36-08:00*%
%TF.ProjectId,IRIS-core,49524953-2d63-46f7-9265-2e6b69636164,rev?*%
%TF.SameCoordinates,Original*%
%TF.FileFunction,Legend,Top*%
%TF.FilePolarity,Positive*%
%FSLAX46Y46*%
G04 Gerber Fmt 4.6, Leading zero omitted, Abs format (unit mm)*
G04 Created by KiCad (PCBNEW (5.1.8)-1) date 2020-11-12 22:30:36*
%MOMM*%
%LPD*%
G01*
G04 APERTURE LIST*
%ADD10C,0.150000*%
%ADD11C,0.120000*%
%ADD12C,0.010000*%
%ADD13C,0.200000*%
%ADD14C,0.100000*%
G04 APERTURE END LIST*
D10*
X11714285Y-31452380D02*
X11714285Y-30452380D01*
X12761904Y-31452380D02*
X12428571Y-30976190D01*
X12190476Y-31452380D02*
X12190476Y-30452380D01*
X12571428Y-30452380D01*
X12666666Y-30500000D01*
X12714285Y-30547619D01*
X12761904Y-30642857D01*
X12761904Y-30785714D01*
X12714285Y-30880952D01*
X12666666Y-30928571D01*
X12571428Y-30976190D01*
X12190476Y-30976190D01*
X13190476Y-31452380D02*
X13190476Y-30452380D01*
X13619047Y-31404761D02*
X13761904Y-31452380D01*
X14000000Y-31452380D01*
X14095238Y-31404761D01*
X14142857Y-31357142D01*
X14190476Y-31261904D01*
X14190476Y-31166666D01*
X14142857Y-31071428D01*
X14095238Y-31023809D01*
X14000000Y-30976190D01*
X13809523Y-30928571D01*
X13714285Y-30880952D01*
X13666666Y-30833333D01*
X13619047Y-30738095D01*
X13619047Y-30642857D01*
X13666666Y-30547619D01*
X13714285Y-30500000D01*
X13809523Y-30452380D01*
X14047619Y-30452380D01*
X14190476Y-30500000D01*
X15952380Y-31357142D02*
X15904761Y-31404761D01*
X15761904Y-31452380D01*
X15666666Y-31452380D01*
X15523809Y-31404761D01*
X15428571Y-31309523D01*
X15380952Y-31214285D01*
X15333333Y-31023809D01*
X15333333Y-30880952D01*
X15380952Y-30690476D01*
X15428571Y-30595238D01*
X15523809Y-30500000D01*
X15666666Y-30452380D01*
X15761904Y-30452380D01*
X15904761Y-30500000D01*
X15952380Y-30547619D01*
X16523809Y-31452380D02*
X16428571Y-31404761D01*
X16380952Y-31357142D01*
X16333333Y-31261904D01*
X16333333Y-30976190D01*
X16380952Y-30880952D01*
X16428571Y-30833333D01*
X16523809Y-30785714D01*
X16666666Y-30785714D01*
X16761904Y-30833333D01*
X16809523Y-30880952D01*
X16857142Y-30976190D01*
X16857142Y-31261904D01*
X16809523Y-31357142D01*
X16761904Y-31404761D01*
X16666666Y-31452380D01*
X16523809Y-31452380D01*
X17285714Y-31452380D02*
X17285714Y-30785714D01*
X17285714Y-30976190D02*
X17333333Y-30880952D01*
X17380952Y-30833333D01*
X17476190Y-30785714D01*
X17571428Y-30785714D01*
X18285714Y-31404761D02*
X18190476Y-31452380D01*
X18000000Y-31452380D01*
X17904761Y-31404761D01*
X17857142Y-31309523D01*
X17857142Y-30928571D01*
X17904761Y-30833333D01*
X18000000Y-30785714D01*
X18190476Y-30785714D01*
X18285714Y-30833333D01*
X18333333Y-30928571D01*
X18333333Y-31023809D01*
X17857142Y-31119047D01*
X19380952Y-30452380D02*
X19714285Y-31452380D01*
X20047619Y-30452380D01*
X20809523Y-30785714D02*
X20809523Y-31452380D01*
X20571428Y-30404761D02*
X20333333Y-31119047D01*
X20952380Y-31119047D01*
X21333333Y-31357142D02*
X21380952Y-31404761D01*
X21333333Y-31452380D01*
X21285714Y-31404761D01*
X21333333Y-31357142D01*
X21333333Y-31452380D01*
X22000000Y-30452380D02*
X22095238Y-30452380D01*
X22190476Y-30500000D01*
X22238095Y-30547619D01*
X22285714Y-30642857D01*
X22333333Y-30833333D01*
X22333333Y-31071428D01*
X22285714Y-31261904D01*
X22238095Y-31357142D01*
X22190476Y-31404761D01*
X22095238Y-31452380D01*
X22000000Y-31452380D01*
X21904761Y-31404761D01*
X21857142Y-31357142D01*
X21809523Y-31261904D01*
X21761904Y-31071428D01*
X21761904Y-30833333D01*
X21809523Y-30642857D01*
X21857142Y-30547619D01*
X21904761Y-30500000D01*
X22000000Y-30452380D01*
X16686904Y10261904D02*
X15886904Y10261904D01*
X15886904Y10452380D01*
X15925000Y10566666D01*
X16001190Y10642857D01*
X16077380Y10680952D01*
X16229761Y10719047D01*
X16344047Y10719047D01*
X16496428Y10680952D01*
X16572619Y10642857D01*
X16648809Y10566666D01*
X16686904Y10452380D01*
X16686904Y10261904D01*
X16686904Y11061904D02*
X15886904Y11061904D01*
X16686904Y11519047D01*
X15886904Y11519047D01*
X16686904Y11900000D02*
X15886904Y11900000D01*
X15886904Y12204761D01*
X15925000Y12280952D01*
X15963095Y12319047D01*
X16039285Y12357142D01*
X16153571Y12357142D01*
X16229761Y12319047D01*
X16267857Y12280952D01*
X16305952Y12204761D01*
X16305952Y11900000D01*
X16686904Y13309523D02*
X16153571Y13309523D01*
X15886904Y13309523D02*
X15925000Y13271428D01*
X15963095Y13309523D01*
X15925000Y13347619D01*
X15886904Y13309523D01*
X15963095Y13309523D01*
X16153571Y13576190D02*
X16153571Y13880952D01*
X16686904Y13690476D02*
X16001190Y13690476D01*
X15925000Y13728571D01*
X15886904Y13804761D01*
X15886904Y13880952D01*
X15886904Y14757142D02*
X16534523Y14757142D01*
X16610714Y14795238D01*
X16648809Y14833333D01*
X16686904Y14909523D01*
X16686904Y15061904D01*
X16648809Y15138095D01*
X16610714Y15176190D01*
X16534523Y15214285D01*
X15886904Y15214285D01*
X16686904Y16014285D02*
X16686904Y15557142D01*
X16686904Y15785714D02*
X15886904Y15785714D01*
X16001190Y15709523D01*
X16077380Y15633333D01*
X16115476Y15557142D01*
X15886904Y16509523D02*
X15886904Y16585714D01*
X15925000Y16661904D01*
X15963095Y16700000D01*
X16039285Y16738095D01*
X16191666Y16776190D01*
X16382142Y16776190D01*
X16534523Y16738095D01*
X16610714Y16700000D01*
X16648809Y16661904D01*
X16686904Y16585714D01*
X16686904Y16509523D01*
X16648809Y16433333D01*
X16610714Y16395238D01*
X16534523Y16357142D01*
X16382142Y16319047D01*
X16191666Y16319047D01*
X16039285Y16357142D01*
X15963095Y16395238D01*
X15925000Y16433333D01*
X15886904Y16509523D01*
X18036904Y10700000D02*
X17236904Y10700000D01*
X17236904Y11004761D01*
X17275000Y11080952D01*
X17313095Y11119047D01*
X17389285Y11157142D01*
X17503571Y11157142D01*
X17579761Y11119047D01*
X17617857Y11080952D01*
X17655952Y11004761D01*
X17655952Y10700000D01*
X18036904Y11614285D02*
X17998809Y11538095D01*
X17960714Y11500000D01*
X17884523Y11461904D01*
X17655952Y11461904D01*
X17579761Y11500000D01*
X17541666Y11538095D01*
X17503571Y11614285D01*
X17503571Y11728571D01*
X17541666Y11804761D01*
X17579761Y11842857D01*
X17655952Y11880952D01*
X17884523Y11880952D01*
X17960714Y11842857D01*
X17998809Y11804761D01*
X18036904Y11728571D01*
X18036904Y11614285D01*
X17503571Y12223809D02*
X18303571Y12223809D01*
X17541666Y12223809D02*
X17503571Y12300000D01*
X17503571Y12452380D01*
X17541666Y12528571D01*
X17579761Y12566666D01*
X17655952Y12604761D01*
X17884523Y12604761D01*
X17960714Y12566666D01*
X17998809Y12528571D01*
X18036904Y12452380D01*
X18036904Y12300000D01*
X17998809Y12223809D01*
X17503571Y13290476D02*
X18036904Y13290476D01*
X17503571Y12947619D02*
X17922619Y12947619D01*
X17998809Y12985714D01*
X18036904Y13061904D01*
X18036904Y13176190D01*
X17998809Y13252380D01*
X17960714Y13290476D01*
X18036904Y13785714D02*
X17998809Y13709523D01*
X17922619Y13671428D01*
X17236904Y13671428D01*
X18036904Y14433333D02*
X17617857Y14433333D01*
X17541666Y14395238D01*
X17503571Y14319047D01*
X17503571Y14166666D01*
X17541666Y14090476D01*
X17998809Y14433333D02*
X18036904Y14357142D01*
X18036904Y14166666D01*
X17998809Y14090476D01*
X17922619Y14052380D01*
X17846428Y14052380D01*
X17770238Y14090476D01*
X17732142Y14166666D01*
X17732142Y14357142D01*
X17694047Y14433333D01*
X17503571Y14700000D02*
X17503571Y15004761D01*
X17236904Y14814285D02*
X17922619Y14814285D01*
X17998809Y14852380D01*
X18036904Y14928571D01*
X18036904Y15004761D01*
X17998809Y15576190D02*
X18036904Y15500000D01*
X18036904Y15347619D01*
X17998809Y15271428D01*
X17922619Y15233333D01*
X17617857Y15233333D01*
X17541666Y15271428D01*
X17503571Y15347619D01*
X17503571Y15500000D01*
X17541666Y15576190D01*
X17617857Y15614285D01*
X17694047Y15614285D01*
X17770238Y15233333D01*
X18036904Y16300000D02*
X17236904Y16300000D01*
X17998809Y16300000D02*
X18036904Y16223809D01*
X18036904Y16071428D01*
X17998809Y15995238D01*
X17960714Y15957142D01*
X17884523Y15919047D01*
X17655952Y15919047D01*
X17579761Y15957142D01*
X17541666Y15995238D01*
X17503571Y16071428D01*
X17503571Y16223809D01*
X17541666Y16300000D01*
D11*
X15500000Y9750000D02*
X17750000Y9750000D01*
X15500000Y17250000D02*
X15500000Y9750000D01*
X22000000Y17250000D02*
X15500000Y17250000D01*
X22000000Y9750000D02*
X22000000Y17250000D01*
X17750000Y9750000D02*
X22000000Y9750000D01*
D10*
X52111904Y-4152380D02*
X51311904Y-4152380D01*
X51883333Y-3885714D01*
X51311904Y-3619047D01*
X52111904Y-3619047D01*
X51578571Y-2895238D02*
X52111904Y-2895238D01*
X51578571Y-3238095D02*
X51997619Y-3238095D01*
X52073809Y-3200000D01*
X52111904Y-3123809D01*
X52111904Y-3009523D01*
X52073809Y-2933333D01*
X52035714Y-2895238D01*
X52111904Y-2400000D02*
X52073809Y-2476190D01*
X52035714Y-2514285D01*
X51959523Y-2552380D01*
X51730952Y-2552380D01*
X51654761Y-2514285D01*
X51616666Y-2476190D01*
X51578571Y-2400000D01*
X51578571Y-2285714D01*
X51616666Y-2209523D01*
X51654761Y-2171428D01*
X51730952Y-2133333D01*
X51959523Y-2133333D01*
X52035714Y-2171428D01*
X52073809Y-2209523D01*
X52111904Y-2285714D01*
X52111904Y-2400000D01*
X51578571Y-1790476D02*
X52111904Y-1790476D01*
X51654761Y-1790476D02*
X51616666Y-1752380D01*
X51578571Y-1676190D01*
X51578571Y-1561904D01*
X51616666Y-1485714D01*
X51692857Y-1447619D01*
X52111904Y-1447619D01*
X52111904Y-457142D02*
X51311904Y-457142D01*
X51311904Y-266666D01*
X51350000Y-152380D01*
X51426190Y-76190D01*
X51502380Y-38095D01*
X51654761Y0D01*
X51769047Y0D01*
X51921428Y-38095D01*
X51997619Y-76190D01*
X52073809Y-152380D01*
X52111904Y-266666D01*
X52111904Y-457142D01*
X52073809Y647619D02*
X52111904Y571428D01*
X52111904Y419047D01*
X52073809Y342857D01*
X51997619Y304761D01*
X51692857Y304761D01*
X51616666Y342857D01*
X51578571Y419047D01*
X51578571Y571428D01*
X51616666Y647619D01*
X51692857Y685714D01*
X51769047Y685714D01*
X51845238Y304761D01*
X51578571Y914285D02*
X51578571Y1219047D01*
X51311904Y1028571D02*
X51997619Y1028571D01*
X52073809Y1066666D01*
X52111904Y1142857D01*
X52111904Y1219047D01*
X52073809Y1790476D02*
X52111904Y1714285D01*
X52111904Y1561904D01*
X52073809Y1485714D01*
X51997619Y1447619D01*
X51692857Y1447619D01*
X51616666Y1485714D01*
X51578571Y1561904D01*
X51578571Y1714285D01*
X51616666Y1790476D01*
X51692857Y1828571D01*
X51769047Y1828571D01*
X51845238Y1447619D01*
X52073809Y2514285D02*
X52111904Y2438095D01*
X52111904Y2285714D01*
X52073809Y2209523D01*
X52035714Y2171428D01*
X51959523Y2133333D01*
X51730952Y2133333D01*
X51654761Y2171428D01*
X51616666Y2209523D01*
X51578571Y2285714D01*
X51578571Y2438095D01*
X51616666Y2514285D01*
X51578571Y2742857D02*
X51578571Y3047619D01*
X51311904Y2857142D02*
X51997619Y2857142D01*
X52073809Y2895238D01*
X52111904Y2971428D01*
X52111904Y3047619D01*
X52111904Y3428571D02*
X52073809Y3352380D01*
X52035714Y3314285D01*
X51959523Y3276190D01*
X51730952Y3276190D01*
X51654761Y3314285D01*
X51616666Y3352380D01*
X51578571Y3428571D01*
X51578571Y3542857D01*
X51616666Y3619047D01*
X51654761Y3657142D01*
X51730952Y3695238D01*
X51959523Y3695238D01*
X52035714Y3657142D01*
X52073809Y3619047D01*
X52111904Y3542857D01*
X52111904Y3428571D01*
X52111904Y4038095D02*
X51578571Y4038095D01*
X51730952Y4038095D02*
X51654761Y4076190D01*
X51616666Y4114285D01*
X51578571Y4190476D01*
X51578571Y4266666D01*
X25811904Y27266785D02*
X25811904Y27723928D01*
X26611904Y27495357D02*
X25811904Y27495357D01*
X26573809Y28295357D02*
X26611904Y28219166D01*
X26611904Y28066785D01*
X26573809Y27990595D01*
X26497619Y27952500D01*
X26192857Y27952500D01*
X26116666Y27990595D01*
X26078571Y28066785D01*
X26078571Y28219166D01*
X26116666Y28295357D01*
X26192857Y28333452D01*
X26269047Y28333452D01*
X26345238Y27952500D01*
X26573809Y28981071D02*
X26611904Y28904880D01*
X26611904Y28752500D01*
X26573809Y28676309D01*
X26497619Y28638214D01*
X26192857Y28638214D01*
X26116666Y28676309D01*
X26078571Y28752500D01*
X26078571Y28904880D01*
X26116666Y28981071D01*
X26192857Y29019166D01*
X26269047Y29019166D01*
X26345238Y28638214D01*
X26078571Y29362023D02*
X26611904Y29362023D01*
X26154761Y29362023D02*
X26116666Y29400119D01*
X26078571Y29476309D01*
X26078571Y29590595D01*
X26116666Y29666785D01*
X26192857Y29704880D01*
X26611904Y29704880D01*
X26573809Y30047738D02*
X26611904Y30123928D01*
X26611904Y30276309D01*
X26573809Y30352500D01*
X26497619Y30390595D01*
X26459523Y30390595D01*
X26383333Y30352500D01*
X26345238Y30276309D01*
X26345238Y30162023D01*
X26307142Y30085833D01*
X26230952Y30047738D01*
X26192857Y30047738D01*
X26116666Y30085833D01*
X26078571Y30162023D01*
X26078571Y30276309D01*
X26116666Y30352500D01*
X26078571Y30657261D02*
X26611904Y30847738D01*
X26078571Y31038214D02*
X26611904Y30847738D01*
X26802380Y30771547D01*
X26840476Y30733452D01*
X26878571Y30657261D01*
X56186904Y-31573690D02*
X55386904Y-31573690D01*
X55386904Y-31383214D01*
X55425000Y-31268928D01*
X55501190Y-31192738D01*
X55577380Y-31154642D01*
X55729761Y-31116547D01*
X55844047Y-31116547D01*
X55996428Y-31154642D01*
X56072619Y-31192738D01*
X56148809Y-31268928D01*
X56186904Y-31383214D01*
X56186904Y-31573690D01*
X56186904Y-30773690D02*
X55653571Y-30773690D01*
X55386904Y-30773690D02*
X55425000Y-30811785D01*
X55463095Y-30773690D01*
X55425000Y-30735595D01*
X55386904Y-30773690D01*
X55463095Y-30773690D01*
X55653571Y-30507023D02*
X55653571Y-30202261D01*
X56186904Y-30392738D02*
X55501190Y-30392738D01*
X55425000Y-30354642D01*
X55386904Y-30278452D01*
X55386904Y-30202261D01*
X55653571Y-30049880D02*
X55653571Y-29745119D01*
X56186904Y-29935595D02*
X55501190Y-29935595D01*
X55425000Y-29897500D01*
X55386904Y-29821309D01*
X55386904Y-29745119D01*
X56148809Y-29173690D02*
X56186904Y-29249880D01*
X56186904Y-29402261D01*
X56148809Y-29478452D01*
X56072619Y-29516547D01*
X55767857Y-29516547D01*
X55691666Y-29478452D01*
X55653571Y-29402261D01*
X55653571Y-29249880D01*
X55691666Y-29173690D01*
X55767857Y-29135595D01*
X55844047Y-29135595D01*
X55920238Y-29516547D01*
X56186904Y-28792738D02*
X55653571Y-28792738D01*
X55805952Y-28792738D02*
X55729761Y-28754642D01*
X55691666Y-28716547D01*
X55653571Y-28640357D01*
X55653571Y-28564166D01*
X56148809Y-27992738D02*
X56186904Y-28068928D01*
X56186904Y-28221309D01*
X56148809Y-28297500D01*
X56072619Y-28335595D01*
X55767857Y-28335595D01*
X55691666Y-28297500D01*
X55653571Y-28221309D01*
X55653571Y-28068928D01*
X55691666Y-27992738D01*
X55767857Y-27954642D01*
X55844047Y-27954642D01*
X55920238Y-28335595D01*
X55653571Y-27611785D02*
X56186904Y-27611785D01*
X55729761Y-27611785D02*
X55691666Y-27573690D01*
X55653571Y-27497500D01*
X55653571Y-27383214D01*
X55691666Y-27307023D01*
X55767857Y-27268928D01*
X56186904Y-27268928D01*
X55653571Y-27002261D02*
X55653571Y-26697500D01*
X55386904Y-26887976D02*
X56072619Y-26887976D01*
X56148809Y-26849880D01*
X56186904Y-26773690D01*
X56186904Y-26697500D01*
X56186904Y-26430833D02*
X55653571Y-26430833D01*
X55386904Y-26430833D02*
X55425000Y-26468928D01*
X55463095Y-26430833D01*
X55425000Y-26392738D01*
X55386904Y-26430833D01*
X55463095Y-26430833D01*
X56186904Y-25707023D02*
X55767857Y-25707023D01*
X55691666Y-25745119D01*
X55653571Y-25821309D01*
X55653571Y-25973690D01*
X55691666Y-26049880D01*
X56148809Y-25707023D02*
X56186904Y-25783214D01*
X56186904Y-25973690D01*
X56148809Y-26049880D01*
X56072619Y-26087976D01*
X55996428Y-26087976D01*
X55920238Y-26049880D01*
X55882142Y-25973690D01*
X55882142Y-25783214D01*
X55844047Y-25707023D01*
X56186904Y-25211785D02*
X56148809Y-25287976D01*
X56072619Y-25326071D01*
X55386904Y-25326071D01*
X57536904Y-30087976D02*
X56736904Y-30087976D01*
X56736904Y-29783214D01*
X56775000Y-29707023D01*
X56813095Y-29668928D01*
X56889285Y-29630833D01*
X57003571Y-29630833D01*
X57079761Y-29668928D01*
X57117857Y-29707023D01*
X57155952Y-29783214D01*
X57155952Y-30087976D01*
X57536904Y-29287976D02*
X57003571Y-29287976D01*
X57155952Y-29287976D02*
X57079761Y-29249880D01*
X57041666Y-29211785D01*
X57003571Y-29135595D01*
X57003571Y-29059404D01*
X57498809Y-28487976D02*
X57536904Y-28564166D01*
X57536904Y-28716547D01*
X57498809Y-28792738D01*
X57422619Y-28830833D01*
X57117857Y-28830833D01*
X57041666Y-28792738D01*
X57003571Y-28716547D01*
X57003571Y-28564166D01*
X57041666Y-28487976D01*
X57117857Y-28449880D01*
X57194047Y-28449880D01*
X57270238Y-28830833D01*
X57498809Y-28145119D02*
X57536904Y-28068928D01*
X57536904Y-27916547D01*
X57498809Y-27840357D01*
X57422619Y-27802261D01*
X57384523Y-27802261D01*
X57308333Y-27840357D01*
X57270238Y-27916547D01*
X57270238Y-28030833D01*
X57232142Y-28107023D01*
X57155952Y-28145119D01*
X57117857Y-28145119D01*
X57041666Y-28107023D01*
X57003571Y-28030833D01*
X57003571Y-27916547D01*
X57041666Y-27840357D01*
X57498809Y-27497500D02*
X57536904Y-27421309D01*
X57536904Y-27268928D01*
X57498809Y-27192738D01*
X57422619Y-27154642D01*
X57384523Y-27154642D01*
X57308333Y-27192738D01*
X57270238Y-27268928D01*
X57270238Y-27383214D01*
X57232142Y-27459404D01*
X57155952Y-27497500D01*
X57117857Y-27497500D01*
X57041666Y-27459404D01*
X57003571Y-27383214D01*
X57003571Y-27268928D01*
X57041666Y-27192738D01*
X57003571Y-26468928D02*
X57536904Y-26468928D01*
X57003571Y-26811785D02*
X57422619Y-26811785D01*
X57498809Y-26773690D01*
X57536904Y-26697500D01*
X57536904Y-26583214D01*
X57498809Y-26507023D01*
X57460714Y-26468928D01*
X57536904Y-26087976D02*
X57003571Y-26087976D01*
X57155952Y-26087976D02*
X57079761Y-26049880D01*
X57041666Y-26011785D01*
X57003571Y-25935595D01*
X57003571Y-25859404D01*
X57498809Y-25287976D02*
X57536904Y-25364166D01*
X57536904Y-25516547D01*
X57498809Y-25592738D01*
X57422619Y-25630833D01*
X57117857Y-25630833D01*
X57041666Y-25592738D01*
X57003571Y-25516547D01*
X57003571Y-25364166D01*
X57041666Y-25287976D01*
X57117857Y-25249880D01*
X57194047Y-25249880D01*
X57270238Y-25630833D01*
X22442857Y3107142D02*
X22442857Y2840476D01*
X22861904Y2840476D02*
X22061904Y2840476D01*
X22061904Y3221428D01*
X22861904Y3640476D02*
X22823809Y3564285D01*
X22747619Y3526190D01*
X22061904Y3526190D01*
X22861904Y4288095D02*
X22442857Y4288095D01*
X22366666Y4250000D01*
X22328571Y4173809D01*
X22328571Y4021428D01*
X22366666Y3945238D01*
X22823809Y4288095D02*
X22861904Y4211904D01*
X22861904Y4021428D01*
X22823809Y3945238D01*
X22747619Y3907142D01*
X22671428Y3907142D01*
X22595238Y3945238D01*
X22557142Y4021428D01*
X22557142Y4211904D01*
X22519047Y4288095D01*
X22823809Y4630952D02*
X22861904Y4707142D01*
X22861904Y4859523D01*
X22823809Y4935714D01*
X22747619Y4973809D01*
X22709523Y4973809D01*
X22633333Y4935714D01*
X22595238Y4859523D01*
X22595238Y4745238D01*
X22557142Y4669047D01*
X22480952Y4630952D01*
X22442857Y4630952D01*
X22366666Y4669047D01*
X22328571Y4745238D01*
X22328571Y4859523D01*
X22366666Y4935714D01*
X22861904Y5316666D02*
X22061904Y5316666D01*
X22861904Y5659523D02*
X22442857Y5659523D01*
X22366666Y5621428D01*
X22328571Y5545238D01*
X22328571Y5430952D01*
X22366666Y5354761D01*
X22404761Y5316666D01*
X26202380Y9388095D02*
X26202380Y10188095D01*
X26583333Y9388095D02*
X26583333Y10188095D01*
X26850000Y9616666D01*
X27116666Y10188095D01*
X27116666Y9388095D01*
X27497619Y10188095D02*
X27497619Y9540476D01*
X27535714Y9464285D01*
X27573809Y9426190D01*
X27650000Y9388095D01*
X27802380Y9388095D01*
X27878571Y9426190D01*
X27916666Y9464285D01*
X27954761Y9540476D01*
X27954761Y10188095D01*
X29592857Y9388095D02*
X29554761Y9388095D01*
X29478571Y9426190D01*
X29364285Y9540476D01*
X29173809Y9769047D01*
X29097619Y9883333D01*
X29059523Y9997619D01*
X29059523Y10073809D01*
X29097619Y10150000D01*
X29173809Y10188095D01*
X29211904Y10188095D01*
X29288095Y10150000D01*
X29326190Y10073809D01*
X29326190Y10035714D01*
X29288095Y9959523D01*
X29250000Y9921428D01*
X29021428Y9769047D01*
X28983333Y9730952D01*
X28945238Y9654761D01*
X28945238Y9540476D01*
X28983333Y9464285D01*
X29021428Y9426190D01*
X29097619Y9388095D01*
X29211904Y9388095D01*
X29288095Y9426190D01*
X29326190Y9464285D01*
X29440476Y9616666D01*
X29478571Y9730952D01*
X29478571Y9807142D01*
X30811904Y9807142D02*
X30926190Y9769047D01*
X30964285Y9730952D01*
X31002380Y9654761D01*
X31002380Y9540476D01*
X30964285Y9464285D01*
X30926190Y9426190D01*
X30850000Y9388095D01*
X30545238Y9388095D01*
X30545238Y10188095D01*
X30811904Y10188095D01*
X30888095Y10150000D01*
X30926190Y10111904D01*
X30964285Y10035714D01*
X30964285Y9959523D01*
X30926190Y9883333D01*
X30888095Y9845238D01*
X30811904Y9807142D01*
X30545238Y9807142D01*
X31688095Y9388095D02*
X31688095Y9807142D01*
X31650000Y9883333D01*
X31573809Y9921428D01*
X31421428Y9921428D01*
X31345238Y9883333D01*
X31688095Y9426190D02*
X31611904Y9388095D01*
X31421428Y9388095D01*
X31345238Y9426190D01*
X31307142Y9502380D01*
X31307142Y9578571D01*
X31345238Y9654761D01*
X31421428Y9692857D01*
X31611904Y9692857D01*
X31688095Y9730952D01*
X32069047Y9388095D02*
X32069047Y9921428D01*
X32069047Y9769047D02*
X32107142Y9845238D01*
X32145238Y9883333D01*
X32221428Y9921428D01*
X32297619Y9921428D01*
X32678571Y9388095D02*
X32602380Y9426190D01*
X32564285Y9464285D01*
X32526190Y9540476D01*
X32526190Y9769047D01*
X32564285Y9845238D01*
X32602380Y9883333D01*
X32678571Y9921428D01*
X32792857Y9921428D01*
X32869047Y9883333D01*
X32907142Y9845238D01*
X32945238Y9769047D01*
X32945238Y9540476D01*
X32907142Y9464285D01*
X32869047Y9426190D01*
X32792857Y9388095D01*
X32678571Y9388095D01*
X33288095Y9388095D02*
X33288095Y9921428D01*
X33288095Y9845238D02*
X33326190Y9883333D01*
X33402380Y9921428D01*
X33516666Y9921428D01*
X33592857Y9883333D01*
X33630952Y9807142D01*
X33630952Y9388095D01*
X33630952Y9807142D02*
X33669047Y9883333D01*
X33745238Y9921428D01*
X33859523Y9921428D01*
X33935714Y9883333D01*
X33973809Y9807142D01*
X33973809Y9388095D01*
X34659523Y9426190D02*
X34583333Y9388095D01*
X34430952Y9388095D01*
X34354761Y9426190D01*
X34316666Y9502380D01*
X34316666Y9807142D01*
X34354761Y9883333D01*
X34430952Y9921428D01*
X34583333Y9921428D01*
X34659523Y9883333D01*
X34697619Y9807142D01*
X34697619Y9730952D01*
X34316666Y9654761D01*
X34926190Y9921428D02*
X35230952Y9921428D01*
X35040476Y10188095D02*
X35040476Y9502380D01*
X35078571Y9426190D01*
X35154761Y9388095D01*
X35230952Y9388095D01*
X35802380Y9426190D02*
X35726190Y9388095D01*
X35573809Y9388095D01*
X35497619Y9426190D01*
X35459523Y9502380D01*
X35459523Y9807142D01*
X35497619Y9883333D01*
X35573809Y9921428D01*
X35726190Y9921428D01*
X35802380Y9883333D01*
X35840476Y9807142D01*
X35840476Y9730952D01*
X35459523Y9654761D01*
X36183333Y9388095D02*
X36183333Y9921428D01*
X36183333Y9769047D02*
X36221428Y9845238D01*
X36259523Y9883333D01*
X36335714Y9921428D01*
X36411904Y9921428D01*
X30350000Y23800119D02*
X30311904Y23723928D01*
X30311904Y23609642D01*
X30350000Y23495357D01*
X30426190Y23419166D01*
X30502380Y23381071D01*
X30654761Y23342976D01*
X30769047Y23342976D01*
X30921428Y23381071D01*
X30997619Y23419166D01*
X31073809Y23495357D01*
X31111904Y23609642D01*
X31111904Y23685833D01*
X31073809Y23800119D01*
X31035714Y23838214D01*
X30769047Y23838214D01*
X30769047Y23685833D01*
X31111904Y24181071D02*
X30311904Y24181071D01*
X31111904Y24638214D01*
X30311904Y24638214D01*
X31073809Y24981071D02*
X31111904Y25095357D01*
X31111904Y25285833D01*
X31073809Y25362023D01*
X31035714Y25400119D01*
X30959523Y25438214D01*
X30883333Y25438214D01*
X30807142Y25400119D01*
X30769047Y25362023D01*
X30730952Y25285833D01*
X30692857Y25133452D01*
X30654761Y25057261D01*
X30616666Y25019166D01*
X30540476Y24981071D01*
X30464285Y24981071D01*
X30388095Y25019166D01*
X30350000Y25057261D01*
X30311904Y25133452D01*
X30311904Y25323928D01*
X30350000Y25438214D01*
X31073809Y25742976D02*
X31111904Y25857261D01*
X31111904Y26047738D01*
X31073809Y26123928D01*
X31035714Y26162023D01*
X30959523Y26200119D01*
X30883333Y26200119D01*
X30807142Y26162023D01*
X30769047Y26123928D01*
X30730952Y26047738D01*
X30692857Y25895357D01*
X30654761Y25819166D01*
X30616666Y25781071D01*
X30540476Y25742976D01*
X30464285Y25742976D01*
X30388095Y25781071D01*
X30350000Y25819166D01*
X30311904Y25895357D01*
X30311904Y26085833D01*
X30350000Y26200119D01*
X31111904Y27152500D02*
X30311904Y27152500D01*
X30883333Y27419166D01*
X30311904Y27685833D01*
X31111904Y27685833D01*
X31111904Y28181071D02*
X31073809Y28104880D01*
X31035714Y28066785D01*
X30959523Y28028690D01*
X30730952Y28028690D01*
X30654761Y28066785D01*
X30616666Y28104880D01*
X30578571Y28181071D01*
X30578571Y28295357D01*
X30616666Y28371547D01*
X30654761Y28409642D01*
X30730952Y28447738D01*
X30959523Y28447738D01*
X31035714Y28409642D01*
X31073809Y28371547D01*
X31111904Y28295357D01*
X31111904Y28181071D01*
X31111904Y29133452D02*
X30311904Y29133452D01*
X31073809Y29133452D02*
X31111904Y29057261D01*
X31111904Y28904880D01*
X31073809Y28828690D01*
X31035714Y28790595D01*
X30959523Y28752500D01*
X30730952Y28752500D01*
X30654761Y28790595D01*
X30616666Y28828690D01*
X30578571Y28904880D01*
X30578571Y29057261D01*
X30616666Y29133452D01*
X30578571Y29857261D02*
X31111904Y29857261D01*
X30578571Y29514404D02*
X30997619Y29514404D01*
X31073809Y29552500D01*
X31111904Y29628690D01*
X31111904Y29742976D01*
X31073809Y29819166D01*
X31035714Y29857261D01*
X31111904Y30352500D02*
X31073809Y30276309D01*
X30997619Y30238214D01*
X30311904Y30238214D01*
X31073809Y30962023D02*
X31111904Y30885833D01*
X31111904Y30733452D01*
X31073809Y30657261D01*
X30997619Y30619166D01*
X30692857Y30619166D01*
X30616666Y30657261D01*
X30578571Y30733452D01*
X30578571Y30885833D01*
X30616666Y30962023D01*
X30692857Y31000119D01*
X30769047Y31000119D01*
X30845238Y30619166D01*
X31111904Y-29673809D02*
X30311904Y-29673809D01*
X30692857Y-29673809D02*
X30692857Y-29216666D01*
X31111904Y-29216666D02*
X30311904Y-29216666D01*
X31111904Y-28835714D02*
X30578571Y-28835714D01*
X30311904Y-28835714D02*
X30350000Y-28873809D01*
X30388095Y-28835714D01*
X30350000Y-28797619D01*
X30311904Y-28835714D01*
X30388095Y-28835714D01*
X30578571Y-28111904D02*
X31226190Y-28111904D01*
X31302380Y-28150000D01*
X31340476Y-28188095D01*
X31378571Y-28264285D01*
X31378571Y-28378571D01*
X31340476Y-28454761D01*
X31073809Y-28111904D02*
X31111904Y-28188095D01*
X31111904Y-28340476D01*
X31073809Y-28416666D01*
X31035714Y-28454761D01*
X30959523Y-28492857D01*
X30730952Y-28492857D01*
X30654761Y-28454761D01*
X30616666Y-28416666D01*
X30578571Y-28340476D01*
X30578571Y-28188095D01*
X30616666Y-28111904D01*
X31111904Y-27730952D02*
X30311904Y-27730952D01*
X31111904Y-27388095D02*
X30692857Y-27388095D01*
X30616666Y-27426190D01*
X30578571Y-27502380D01*
X30578571Y-27616666D01*
X30616666Y-27692857D01*
X30654761Y-27730952D01*
X30807142Y-27007142D02*
X30807142Y-26397619D01*
X30350000Y-25597619D02*
X30311904Y-25673809D01*
X30311904Y-25788095D01*
X30350000Y-25902380D01*
X30426190Y-25978571D01*
X30502380Y-26016666D01*
X30654761Y-26054761D01*
X30769047Y-26054761D01*
X30921428Y-26016666D01*
X30997619Y-25978571D01*
X31073809Y-25902380D01*
X31111904Y-25788095D01*
X31111904Y-25711904D01*
X31073809Y-25597619D01*
X31035714Y-25559523D01*
X30769047Y-25559523D01*
X30769047Y-25711904D01*
X30883333Y-24645238D02*
X30883333Y-24264285D01*
X31111904Y-24721428D02*
X30311904Y-24454761D01*
X31111904Y-24188095D01*
X31073809Y-23578571D02*
X31111904Y-23654761D01*
X31111904Y-23807142D01*
X31073809Y-23883333D01*
X31035714Y-23921428D01*
X30959523Y-23959523D01*
X30730952Y-23959523D01*
X30654761Y-23921428D01*
X30616666Y-23883333D01*
X30578571Y-23807142D01*
X30578571Y-23654761D01*
X30616666Y-23578571D01*
X31073809Y-22892857D02*
X31111904Y-22969047D01*
X31111904Y-23121428D01*
X31073809Y-23197619D01*
X31035714Y-23235714D01*
X30959523Y-23273809D01*
X30730952Y-23273809D01*
X30654761Y-23235714D01*
X30616666Y-23197619D01*
X30578571Y-23121428D01*
X30578571Y-22969047D01*
X30616666Y-22892857D01*
X31073809Y-22245238D02*
X31111904Y-22321428D01*
X31111904Y-22473809D01*
X31073809Y-22550000D01*
X30997619Y-22588095D01*
X30692857Y-22588095D01*
X30616666Y-22550000D01*
X30578571Y-22473809D01*
X30578571Y-22321428D01*
X30616666Y-22245238D01*
X30692857Y-22207142D01*
X30769047Y-22207142D01*
X30845238Y-22588095D01*
X31111904Y-21750000D02*
X31073809Y-21826190D01*
X30997619Y-21864285D01*
X30311904Y-21864285D01*
X63186904Y-12835714D02*
X62805952Y-13102380D01*
X63186904Y-13292857D02*
X62386904Y-13292857D01*
X62386904Y-12988095D01*
X62425000Y-12911904D01*
X62463095Y-12873809D01*
X62539285Y-12835714D01*
X62653571Y-12835714D01*
X62729761Y-12873809D01*
X62767857Y-12911904D01*
X62805952Y-12988095D01*
X62805952Y-13292857D01*
X62767857Y-12492857D02*
X62767857Y-12226190D01*
X63186904Y-12111904D02*
X63186904Y-12492857D01*
X62386904Y-12492857D01*
X62386904Y-12111904D01*
X63186904Y-11769047D02*
X62386904Y-11769047D01*
X62958333Y-11502380D01*
X62386904Y-11235714D01*
X63186904Y-11235714D01*
X62386904Y-10702380D02*
X62386904Y-10550000D01*
X62425000Y-10473809D01*
X62501190Y-10397619D01*
X62653571Y-10359523D01*
X62920238Y-10359523D01*
X63072619Y-10397619D01*
X63148809Y-10473809D01*
X63186904Y-10550000D01*
X63186904Y-10702380D01*
X63148809Y-10778571D01*
X63072619Y-10854761D01*
X62920238Y-10892857D01*
X62653571Y-10892857D01*
X62501190Y-10854761D01*
X62425000Y-10778571D01*
X62386904Y-10702380D01*
X62386904Y-10130952D02*
X63186904Y-9864285D01*
X62386904Y-9597619D01*
X62767857Y-9330952D02*
X62767857Y-9064285D01*
X63186904Y-8950000D02*
X63186904Y-9330952D01*
X62386904Y-9330952D01*
X62386904Y-8950000D01*
X62386904Y-7769047D02*
X62958333Y-7769047D01*
X63072619Y-7807142D01*
X63148809Y-7883333D01*
X63186904Y-7997619D01*
X63186904Y-8073809D01*
X63186904Y-7388095D02*
X62386904Y-7388095D01*
X62386904Y-7083333D01*
X62425000Y-7007142D01*
X62463095Y-6969047D01*
X62539285Y-6930952D01*
X62653571Y-6930952D01*
X62729761Y-6969047D01*
X62767857Y-7007142D01*
X62805952Y-7083333D01*
X62805952Y-7388095D01*
X62463095Y-6626190D02*
X62425000Y-6588095D01*
X62386904Y-6511904D01*
X62386904Y-6321428D01*
X62425000Y-6245238D01*
X62463095Y-6207142D01*
X62539285Y-6169047D01*
X62615476Y-6169047D01*
X62729761Y-6207142D01*
X63186904Y-6664285D01*
X63186904Y-6169047D01*
X64117857Y-12740476D02*
X64117857Y-13007142D01*
X64536904Y-13007142D02*
X63736904Y-13007142D01*
X63736904Y-12626190D01*
X63736904Y-12169047D02*
X63736904Y-12016666D01*
X63775000Y-11940476D01*
X63851190Y-11864285D01*
X64003571Y-11826190D01*
X64270238Y-11826190D01*
X64422619Y-11864285D01*
X64498809Y-11940476D01*
X64536904Y-12016666D01*
X64536904Y-12169047D01*
X64498809Y-12245238D01*
X64422619Y-12321428D01*
X64270238Y-12359523D01*
X64003571Y-12359523D01*
X63851190Y-12321428D01*
X63775000Y-12245238D01*
X63736904Y-12169047D01*
X64536904Y-11026190D02*
X64155952Y-11292857D01*
X64536904Y-11483333D02*
X63736904Y-11483333D01*
X63736904Y-11178571D01*
X63775000Y-11102380D01*
X63813095Y-11064285D01*
X63889285Y-11026190D01*
X64003571Y-11026190D01*
X64079761Y-11064285D01*
X64117857Y-11102380D01*
X64155952Y-11178571D01*
X64155952Y-11483333D01*
X64117857Y-9807142D02*
X64117857Y-10073809D01*
X64536904Y-10073809D02*
X63736904Y-10073809D01*
X63736904Y-9692857D01*
X64536904Y-9007142D02*
X64536904Y-9388095D01*
X63736904Y-9388095D01*
X64536904Y-8740476D02*
X63736904Y-8740476D01*
X63775000Y-7940476D02*
X63736904Y-8016666D01*
X63736904Y-8130952D01*
X63775000Y-8245238D01*
X63851190Y-8321428D01*
X63927380Y-8359523D01*
X64079761Y-8397619D01*
X64194047Y-8397619D01*
X64346428Y-8359523D01*
X64422619Y-8321428D01*
X64498809Y-8245238D01*
X64536904Y-8130952D01*
X64536904Y-8054761D01*
X64498809Y-7940476D01*
X64460714Y-7902380D01*
X64194047Y-7902380D01*
X64194047Y-8054761D01*
X64536904Y-7559523D02*
X63736904Y-7559523D01*
X64117857Y-7559523D02*
X64117857Y-7102380D01*
X64536904Y-7102380D02*
X63736904Y-7102380D01*
X63736904Y-6835714D02*
X63736904Y-6378571D01*
X64536904Y-6607142D02*
X63736904Y-6607142D01*
D12*
%TO.C,G\u002A\u002A\u002A*%
G36*
X51901534Y30168082D02*
G01*
X51956973Y30167861D01*
X52005261Y30167406D01*
X52047901Y30166647D01*
X52086399Y30165512D01*
X52122258Y30163932D01*
X52156983Y30161835D01*
X52192078Y30159151D01*
X52229046Y30155809D01*
X52269393Y30151738D01*
X52314622Y30146869D01*
X52332740Y30144867D01*
X52538164Y30117007D01*
X52741325Y30079353D01*
X52941888Y30032069D01*
X53139515Y29975318D01*
X53333871Y29909262D01*
X53524620Y29834065D01*
X53711426Y29749890D01*
X53893954Y29656900D01*
X54071867Y29555257D01*
X54244830Y29445125D01*
X54412507Y29326667D01*
X54574561Y29200046D01*
X54730657Y29065425D01*
X54880460Y28922966D01*
X54908343Y28894864D01*
X55044866Y28749948D01*
X55172020Y28602346D01*
X55290434Y28451176D01*
X55400737Y28295556D01*
X55503559Y28134604D01*
X55599529Y27967437D01*
X55678018Y27816100D01*
X55761250Y27637127D01*
X55835860Y27454451D01*
X55901522Y27269038D01*
X55957910Y27081856D01*
X56004699Y26893871D01*
X56029001Y26775984D01*
X56046089Y26685827D01*
X56079174Y26675039D01*
X56117876Y26661554D01*
X56162531Y26644568D01*
X56210113Y26625325D01*
X56257590Y26605071D01*
X56301935Y26585051D01*
X56325620Y26573747D01*
X56398104Y26536409D01*
X56462288Y26499194D01*
X56519944Y26460894D01*
X56572845Y26420297D01*
X56622761Y26376195D01*
X56641354Y26358228D01*
X56689579Y26306836D01*
X56729034Y26256249D01*
X56760781Y26204725D01*
X56785886Y26150518D01*
X56805412Y26091885D01*
X56806684Y26087252D01*
X56812697Y26056710D01*
X56816597Y26019306D01*
X56818354Y25978119D01*
X56817939Y25936230D01*
X56815323Y25896720D01*
X56810477Y25862670D01*
X56808879Y25855220D01*
X56785846Y25777104D01*
X56753213Y25698839D01*
X56710923Y25620365D01*
X56658923Y25541622D01*
X56597159Y25462548D01*
X56525576Y25383082D01*
X56444121Y25303164D01*
X56352740Y25222732D01*
X56251378Y25141726D01*
X56139980Y25060085D01*
X56042997Y24993874D01*
X55965737Y24942670D01*
X55939000Y24850305D01*
X55879151Y24661584D01*
X55809577Y24475016D01*
X55730608Y24291274D01*
X55642570Y24111034D01*
X55545790Y23934971D01*
X55440598Y23763758D01*
X55337560Y23612349D01*
X55213434Y23447177D01*
X55081626Y23288551D01*
X54942413Y23136708D01*
X54796075Y22991883D01*
X54642890Y22854314D01*
X54483140Y22724236D01*
X54317101Y22601886D01*
X54145054Y22487499D01*
X53967278Y22381312D01*
X53784052Y22283561D01*
X53742440Y22262918D01*
X53555229Y22176926D01*
X53363795Y22100017D01*
X53168682Y22032314D01*
X52970431Y21973940D01*
X52769585Y21925019D01*
X52566687Y21885674D01*
X52362280Y21856030D01*
X52156906Y21836208D01*
X51951108Y21826334D01*
X51819660Y21825290D01*
X51783929Y21825619D01*
X51749548Y21826029D01*
X51718522Y21826491D01*
X51692856Y21826972D01*
X51674554Y21827441D01*
X51669800Y21827616D01*
X51455127Y21841665D01*
X51243981Y21865239D01*
X51036319Y21898350D01*
X50832096Y21941010D01*
X50631269Y21993232D01*
X50433795Y22055029D01*
X50239629Y22126412D01*
X50048729Y22207394D01*
X49861049Y22297989D01*
X49678829Y22396898D01*
X49504922Y22502182D01*
X49336933Y22615261D01*
X49174358Y22736518D01*
X49016695Y22866333D01*
X48863443Y23005087D01*
X48813539Y23053110D01*
X48787292Y23079036D01*
X48766267Y23100372D01*
X48750709Y23116784D01*
X48740860Y23127936D01*
X48736964Y23133490D01*
X48739265Y23133112D01*
X48748006Y23126464D01*
X48763432Y23113212D01*
X48782269Y23096241D01*
X48912104Y22981218D01*
X49040545Y22875013D01*
X49168961Y22776669D01*
X49298720Y22685227D01*
X49431192Y22599728D01*
X49567746Y22519214D01*
X49709749Y22442728D01*
X49731780Y22431454D01*
X49904556Y22348328D01*
X50078723Y22274028D01*
X50255046Y22208339D01*
X50434292Y22151048D01*
X50617227Y22101938D01*
X50804615Y22060797D01*
X50997224Y22027408D01*
X51195818Y22001558D01*
X51304040Y21990816D01*
X51334359Y21988740D01*
X51373350Y21987047D01*
X51419532Y21985729D01*
X51471423Y21984782D01*
X51527542Y21984199D01*
X51586409Y21983975D01*
X51646543Y21984103D01*
X51706461Y21984579D01*
X51764684Y21985395D01*
X51819730Y21986546D01*
X51870118Y21988026D01*
X51914368Y21989830D01*
X51950997Y21991951D01*
X51969520Y21993450D01*
X52171189Y22016441D01*
X52366588Y22046971D01*
X52556491Y22085256D01*
X52741670Y22131513D01*
X52922899Y22185957D01*
X53100951Y22248805D01*
X53276599Y22320273D01*
X53450616Y22400577D01*
X53483360Y22416752D01*
X53664315Y22512692D01*
X53839641Y22617002D01*
X54009098Y22729482D01*
X54172445Y22849931D01*
X54329441Y22978148D01*
X54479845Y23113931D01*
X54623417Y23257082D01*
X54759916Y23407397D01*
X54889101Y23564678D01*
X54941087Y23632720D01*
X55055206Y23793368D01*
X55160642Y23958522D01*
X55257681Y24128714D01*
X55346613Y24304475D01*
X55427724Y24486336D01*
X55490277Y24644877D01*
X55504919Y24684213D01*
X55438190Y24650775D01*
X55308243Y24587682D01*
X55169192Y24524010D01*
X55022046Y24460165D01*
X54867812Y24396555D01*
X54707500Y24333588D01*
X54542118Y24271669D01*
X54372674Y24211207D01*
X54225040Y24160875D01*
X54104633Y24121207D01*
X53989083Y24084233D01*
X53876341Y24049357D01*
X53764360Y24015984D01*
X53651089Y23983517D01*
X53534481Y23951362D01*
X53412488Y23918922D01*
X53283059Y23885601D01*
X53247140Y23876519D01*
X53008380Y23816362D01*
X53004784Y23791851D01*
X53003106Y23778497D01*
X53000777Y23757333D01*
X52998037Y23730670D01*
X52995126Y23700819D01*
X52993228Y23680496D01*
X52976388Y23534452D01*
X52953171Y23392801D01*
X52951936Y23386340D01*
X52946998Y23361800D01*
X52940764Y23332565D01*
X52933613Y23300230D01*
X52925921Y23266391D01*
X52918063Y23232642D01*
X52910416Y23200577D01*
X52903358Y23171793D01*
X52897263Y23147883D01*
X52892510Y23130442D01*
X52889473Y23121066D01*
X52889157Y23120392D01*
X52887837Y23123005D01*
X52886345Y23134355D01*
X52884796Y23153023D01*
X52883306Y23177589D01*
X52881992Y23206634D01*
X52881891Y23209292D01*
X52873014Y23356623D01*
X52857659Y23499788D01*
X52836030Y23636989D01*
X52830163Y23667643D01*
X52823261Y23702277D01*
X52817867Y23728159D01*
X52813537Y23746507D01*
X52809824Y23758540D01*
X52806283Y23765474D01*
X52802468Y23768530D01*
X52797934Y23768924D01*
X52793401Y23768124D01*
X52757010Y23760460D01*
X52715436Y23751790D01*
X52670220Y23742428D01*
X52622903Y23732687D01*
X52575025Y23722883D01*
X52528127Y23713328D01*
X52483749Y23704337D01*
X52443433Y23696224D01*
X52408719Y23689304D01*
X52381147Y23683889D01*
X52364961Y23680795D01*
X52290502Y23666892D01*
X52246198Y23574876D01*
X52232732Y23547324D01*
X52220734Y23523567D01*
X52210881Y23504879D01*
X52203850Y23492536D01*
X52200317Y23487813D01*
X52200070Y23487940D01*
X52200753Y23494318D01*
X52203805Y23508725D01*
X52208812Y23529422D01*
X52215357Y23554669D01*
X52220668Y23574252D01*
X52228057Y23601304D01*
X52234290Y23624671D01*
X52238943Y23642714D01*
X52241592Y23653799D01*
X52242016Y23656557D01*
X52236919Y23656083D01*
X52223543Y23654073D01*
X52203609Y23650808D01*
X52178834Y23646564D01*
X52162381Y23643668D01*
X52083820Y23629704D01*
X52068450Y23556282D01*
X52053081Y23482860D01*
X51959230Y23287766D01*
X51939409Y23246815D01*
X51920940Y23209152D01*
X51904280Y23175666D01*
X51889882Y23147250D01*
X51878201Y23124794D01*
X51869692Y23109190D01*
X51864810Y23101328D01*
X51863806Y23100715D01*
X51863876Y23107551D01*
X51864796Y23123256D01*
X51866471Y23146586D01*
X51868804Y23176293D01*
X51871697Y23211133D01*
X51875054Y23249860D01*
X51877575Y23278030D01*
X51883662Y23345589D01*
X51888809Y23403626D01*
X51893058Y23452729D01*
X51896455Y23493489D01*
X51899043Y23526494D01*
X51900868Y23552334D01*
X51901973Y23571599D01*
X51902403Y23584878D01*
X51902202Y23592760D01*
X51901458Y23595795D01*
X51895803Y23595899D01*
X51881514Y23594584D01*
X51859991Y23592024D01*
X51832634Y23588395D01*
X51800845Y23583871D01*
X51775222Y23580039D01*
X51737847Y23574390D01*
X51700918Y23568903D01*
X51666564Y23563885D01*
X51636911Y23559647D01*
X51614085Y23556498D01*
X51605750Y23555409D01*
X51583444Y23552277D01*
X51569654Y23549389D01*
X51562761Y23546243D01*
X51561150Y23542337D01*
X51561272Y23541615D01*
X51562957Y23534564D01*
X51566699Y23519151D01*
X51572131Y23496882D01*
X51578886Y23469262D01*
X51586596Y23437796D01*
X51591032Y23419713D01*
X51599011Y23386960D01*
X51606104Y23357382D01*
X51611967Y23332447D01*
X51616258Y23313624D01*
X51618634Y23302380D01*
X51619000Y23299951D01*
X51616045Y23293375D01*
X51608244Y23281363D01*
X51597188Y23266337D01*
X51595399Y23264038D01*
X51561555Y23218015D01*
X51526385Y23165042D01*
X51491524Y23107887D01*
X51458603Y23049321D01*
X51429255Y22992113D01*
X51408466Y22946920D01*
X51394233Y22913900D01*
X51366717Y22995180D01*
X51344235Y23062624D01*
X51320608Y23135373D01*
X51296836Y23210254D01*
X51273920Y23284091D01*
X51252861Y23353708D01*
X51240261Y23396500D01*
X51231292Y23427075D01*
X51223141Y23454297D01*
X51216270Y23476666D01*
X51211143Y23492684D01*
X51208222Y23500853D01*
X51207862Y23501529D01*
X51202349Y23501967D01*
X51189055Y23501400D01*
X51170284Y23500051D01*
X51148340Y23498142D01*
X51125526Y23495897D01*
X51104148Y23493539D01*
X51086510Y23491291D01*
X51074914Y23489376D01*
X51071604Y23488333D01*
X51069806Y23482781D01*
X51066300Y23468805D01*
X51061421Y23447936D01*
X51055500Y23421702D01*
X51048870Y23391633D01*
X51041864Y23359259D01*
X51034814Y23326110D01*
X51028054Y23293714D01*
X51021916Y23263602D01*
X51016733Y23237304D01*
X51014875Y23227517D01*
X51008637Y23192964D01*
X51001707Y23152614D01*
X50994797Y23110731D01*
X50988620Y23071579D01*
X50986699Y23058883D01*
X50973473Y22970186D01*
X50944446Y22945108D01*
X50919636Y22922633D01*
X50890382Y22894469D01*
X50858688Y22862694D01*
X50826561Y22829387D01*
X50796007Y22796629D01*
X50769032Y22766499D01*
X50747780Y22741247D01*
X50731224Y22719768D01*
X50711501Y22692866D01*
X50689998Y22662565D01*
X50668102Y22630888D01*
X50647198Y22599860D01*
X50628674Y22571502D01*
X50613917Y22547841D01*
X50606651Y22535300D01*
X50600308Y22525205D01*
X50595953Y22520878D01*
X50595423Y22521004D01*
X50593872Y22527282D01*
X50592024Y22542637D01*
X50589940Y22565991D01*
X50587683Y22596269D01*
X50585315Y22632392D01*
X50582898Y22673285D01*
X50580496Y22717870D01*
X50578170Y22765070D01*
X50575982Y22813809D01*
X50573996Y22863009D01*
X50572273Y22911594D01*
X50571639Y22931680D01*
X50569303Y23026387D01*
X50568304Y23113785D01*
X50568634Y23196637D01*
X50570286Y23277704D01*
X50570568Y23287280D01*
X50571750Y23326448D01*
X50572817Y23362164D01*
X50573733Y23393214D01*
X50574463Y23418384D01*
X50574972Y23436460D01*
X50575223Y23446228D01*
X50575241Y23447621D01*
X50570366Y23447427D01*
X50556871Y23446698D01*
X50536274Y23445521D01*
X50510098Y23443984D01*
X50479860Y23442175D01*
X50473460Y23441788D01*
X50301297Y23432830D01*
X50125975Y23426546D01*
X49949410Y23422935D01*
X49773517Y23421994D01*
X49600212Y23423724D01*
X49431411Y23428124D01*
X49269030Y23435192D01*
X49150120Y23442415D01*
X48976686Y23456416D01*
X48809196Y23474063D01*
X48648029Y23495272D01*
X48493566Y23519955D01*
X48346188Y23548029D01*
X48206273Y23579406D01*
X48074204Y23614002D01*
X47950361Y23651730D01*
X47835122Y23692504D01*
X47728870Y23736240D01*
X47631985Y23782851D01*
X47626120Y23785926D01*
X47538682Y23835850D01*
X47460463Y23888556D01*
X47391565Y23943929D01*
X47332089Y24001854D01*
X47282137Y24062214D01*
X47241810Y24124896D01*
X47211208Y24189783D01*
X47190435Y24256760D01*
X47184052Y24289195D01*
X47180171Y24327987D01*
X47179564Y24372657D01*
X47182031Y24419533D01*
X47187373Y24464947D01*
X47195392Y24505226D01*
X47195865Y24507062D01*
X47220456Y24582419D01*
X47255004Y24658658D01*
X47299354Y24735660D01*
X47353353Y24813308D01*
X47416845Y24891482D01*
X47489677Y24970065D01*
X47571695Y25048939D01*
X47662745Y25127984D01*
X47762672Y25207083D01*
X47871323Y25286118D01*
X47988543Y25364970D01*
X48114178Y25443521D01*
X48248074Y25521652D01*
X48390076Y25599246D01*
X48540031Y25676183D01*
X48697785Y25752347D01*
X48863183Y25827618D01*
X48985931Y25880775D01*
X49015985Y25893691D01*
X49037709Y25903495D01*
X49052221Y25910805D01*
X49060639Y25916239D01*
X49064083Y25920417D01*
X49063762Y25923796D01*
X49061079Y25925892D01*
X49054723Y25928168D01*
X49043957Y25930738D01*
X49028040Y25933716D01*
X49006233Y25937216D01*
X48977798Y25941353D01*
X48941993Y25946240D01*
X48898081Y25951993D01*
X48845321Y25958724D01*
X48803771Y25963950D01*
X48753994Y25970212D01*
X48707344Y25976137D01*
X48664780Y25981601D01*
X48627257Y25986477D01*
X48595733Y25990640D01*
X48571165Y25993964D01*
X48554510Y25996323D01*
X48546726Y25997593D01*
X48546270Y25997732D01*
X48546149Y25998628D01*
X48548130Y25999646D01*
X48552978Y26000894D01*
X48561456Y26002478D01*
X48574327Y26004508D01*
X48592355Y26007090D01*
X48616305Y26010332D01*
X48646939Y26014342D01*
X48685021Y26019227D01*
X48731314Y26025096D01*
X48786584Y26032056D01*
X48814633Y26035579D01*
X48863412Y26041719D01*
X48909013Y26047497D01*
X48950466Y26052784D01*
X48986800Y26057458D01*
X49017045Y26061391D01*
X49040232Y26064458D01*
X49055390Y26066534D01*
X49061549Y26067494D01*
X49061637Y26067528D01*
X49064250Y26072281D01*
X49069549Y26082524D01*
X49070364Y26084123D01*
X49082229Y26101669D01*
X49099691Y26120785D01*
X49119424Y26138181D01*
X49136966Y26149972D01*
X49151241Y26160645D01*
X49157595Y26174024D01*
X49157801Y26175138D01*
X49158988Y26183223D01*
X49161344Y26200304D01*
X49164727Y26225301D01*
X49168991Y26257134D01*
X49173994Y26294724D01*
X49179590Y26336992D01*
X49185635Y26382857D01*
X49191030Y26423951D01*
X49197295Y26471458D01*
X49203217Y26515810D01*
X49208658Y26556003D01*
X49213477Y26591034D01*
X49217537Y26619902D01*
X49220697Y26641603D01*
X49222819Y26655135D01*
X49223726Y26659501D01*
X49224683Y26659778D01*
X49225726Y26658186D01*
X49226970Y26653946D01*
X49228530Y26646278D01*
X49230521Y26634404D01*
X49233056Y26617542D01*
X49236253Y26594916D01*
X49240224Y26565744D01*
X49245086Y26529249D01*
X49250952Y26484650D01*
X49257939Y26431169D01*
X49262157Y26398780D01*
X49268506Y26350728D01*
X49274615Y26305836D01*
X49280339Y26265094D01*
X49285530Y26229492D01*
X49290040Y26200020D01*
X49293721Y26177668D01*
X49296426Y26163426D01*
X49297998Y26158287D01*
X49317604Y26147683D01*
X49339389Y26130293D01*
X49360951Y26108402D01*
X49379889Y26084292D01*
X49386340Y26074293D01*
X49389066Y26072109D01*
X49395162Y26069804D01*
X49405408Y26067258D01*
X49420581Y26064347D01*
X49441460Y26060950D01*
X49468823Y26056945D01*
X49503449Y26052211D01*
X49546115Y26046626D01*
X49597600Y26040067D01*
X49635260Y26035337D01*
X49694631Y26027898D01*
X49744682Y26021592D01*
X49786174Y26016309D01*
X49819869Y26011943D01*
X49846531Y26008386D01*
X49866921Y26005530D01*
X49881804Y26003267D01*
X49891940Y26001489D01*
X49898094Y26000089D01*
X49901026Y25998958D01*
X49901501Y25997989D01*
X49901289Y25997725D01*
X49896034Y25996762D01*
X49881654Y25994670D01*
X49859106Y25991574D01*
X49829345Y25987600D01*
X49793330Y25982876D01*
X49752015Y25977526D01*
X49706359Y25971678D01*
X49657318Y25965457D01*
X49643630Y25963731D01*
X49387841Y25931519D01*
X49378628Y25913462D01*
X49367207Y25896722D01*
X49350117Y25878061D01*
X49330538Y25860552D01*
X49311648Y25847267D01*
X49308180Y25845361D01*
X49297636Y25838958D01*
X49292466Y25833953D01*
X49292360Y25833469D01*
X49291713Y25827510D01*
X49289880Y25812691D01*
X49287020Y25790223D01*
X49283292Y25761315D01*
X49278857Y25727178D01*
X49273874Y25689023D01*
X49268502Y25648060D01*
X49262902Y25605499D01*
X49257232Y25562551D01*
X49251653Y25520425D01*
X49246324Y25480333D01*
X49241405Y25443485D01*
X49237055Y25411091D01*
X49233434Y25384362D01*
X49230702Y25364507D01*
X49229018Y25352738D01*
X49228664Y25350511D01*
X49226207Y25339673D01*
X49224079Y25335221D01*
X49223830Y25335317D01*
X49222817Y25340570D01*
X49220634Y25354902D01*
X49217417Y25377320D01*
X49213304Y25406827D01*
X49208432Y25442429D01*
X49202938Y25483130D01*
X49196960Y25527934D01*
X49190967Y25573326D01*
X49184599Y25621678D01*
X49178553Y25667346D01*
X49172975Y25709260D01*
X49168006Y25746348D01*
X49163793Y25777538D01*
X49160478Y25801760D01*
X49158206Y25817941D01*
X49157172Y25824740D01*
X49150196Y25839440D01*
X49138291Y25848110D01*
X49131163Y25851372D01*
X49124502Y25852761D01*
X49116312Y25851836D01*
X49104592Y25848155D01*
X49087344Y25841274D01*
X49065483Y25831999D01*
X48919667Y25767742D01*
X48776812Y25701003D01*
X48637894Y25632313D01*
X48503890Y25562201D01*
X48375778Y25491197D01*
X48254535Y25419832D01*
X48141137Y25348636D01*
X48036562Y25278139D01*
X48009660Y25259074D01*
X47946605Y25212230D01*
X47883595Y25162286D01*
X47821870Y25110386D01*
X47762677Y25057672D01*
X47707256Y25005287D01*
X47656853Y24954375D01*
X47612711Y24906078D01*
X47576072Y24861539D01*
X47573474Y24858135D01*
X47520768Y24782737D01*
X47478095Y24708819D01*
X47445445Y24636441D01*
X47422809Y24565665D01*
X47410176Y24496552D01*
X47407537Y24429163D01*
X47414881Y24363559D01*
X47432199Y24299802D01*
X47459480Y24237953D01*
X47496714Y24178072D01*
X47543892Y24120221D01*
X47601004Y24064462D01*
X47668038Y24010855D01*
X47717560Y23976783D01*
X47792971Y23931910D01*
X47877804Y23889087D01*
X47971493Y23848489D01*
X48073475Y23810295D01*
X48183183Y23774680D01*
X48300053Y23741821D01*
X48423521Y23711894D01*
X48553022Y23685077D01*
X48687991Y23661546D01*
X48759985Y23650691D01*
X48852101Y23638035D01*
X48940881Y23626945D01*
X49027946Y23617295D01*
X49114917Y23608957D01*
X49203413Y23601805D01*
X49295055Y23595711D01*
X49391463Y23590548D01*
X49494258Y23586190D01*
X49605059Y23582508D01*
X49642596Y23581448D01*
X49726061Y23579767D01*
X49816361Y23579005D01*
X49911566Y23579121D01*
X50009742Y23580077D01*
X50108960Y23581831D01*
X50207286Y23584344D01*
X50302791Y23587576D01*
X50393543Y23591486D01*
X50477609Y23596034D01*
X50538099Y23600057D01*
X50582418Y23603298D01*
X50584756Y23619279D01*
X50585823Y23628673D01*
X50587585Y23646602D01*
X50587955Y23650594D01*
X51116080Y23650594D01*
X51120476Y23649260D01*
X51131212Y23649287D01*
X51144605Y23650358D01*
X51156973Y23652156D01*
X51164636Y23654365D01*
X51165283Y23654831D01*
X51164838Y23660172D01*
X51162183Y23673016D01*
X51157816Y23691075D01*
X51155211Y23701099D01*
X51143393Y23745620D01*
X51129736Y23700114D01*
X51123777Y23679852D01*
X51119135Y23663299D01*
X51116468Y23652838D01*
X51116080Y23650594D01*
X50587955Y23650594D01*
X50589894Y23671477D01*
X50592606Y23701708D01*
X50595575Y23735705D01*
X50597844Y23762260D01*
X50622554Y23998698D01*
X50656806Y24237484D01*
X50700458Y24477889D01*
X50753368Y24719182D01*
X50815395Y24960636D01*
X50860924Y25118620D01*
X50880781Y25184660D01*
X50874118Y25245620D01*
X50862362Y25360712D01*
X50852510Y25474077D01*
X50844453Y25587685D01*
X50838084Y25703502D01*
X50833295Y25823499D01*
X50830122Y25944120D01*
X51243161Y25944120D01*
X51243676Y25844663D01*
X51245310Y25749519D01*
X51248173Y25657106D01*
X51252374Y25565839D01*
X51258023Y25474137D01*
X51265230Y25380414D01*
X51274105Y25283088D01*
X51284758Y25180574D01*
X51297298Y25071291D01*
X51311836Y24953653D01*
X51311853Y24953520D01*
X51333885Y24785977D01*
X51356333Y24626650D01*
X51379515Y24473595D01*
X51403754Y24324869D01*
X51429371Y24178529D01*
X51456688Y24032630D01*
X51486025Y23885230D01*
X51498059Y23827030D01*
X51524851Y23698760D01*
X51538625Y23698760D01*
X51547141Y23699472D01*
X51564268Y23701481D01*
X51588567Y23704597D01*
X51618599Y23708630D01*
X51652924Y23713391D01*
X51690103Y23718689D01*
X51693650Y23719202D01*
X51747106Y23726971D01*
X51791375Y23733483D01*
X51827336Y23738872D01*
X51855864Y23743276D01*
X51877838Y23746828D01*
X51894135Y23749665D01*
X51905632Y23751923D01*
X51906374Y23752083D01*
X51908683Y23752566D01*
X51910679Y23753433D01*
X51912435Y23755438D01*
X51914023Y23759333D01*
X51915515Y23765872D01*
X51916985Y23775809D01*
X51918503Y23789898D01*
X51920143Y23808891D01*
X51921977Y23833542D01*
X51924077Y23864606D01*
X51926516Y23902835D01*
X51929365Y23948982D01*
X51932698Y24003802D01*
X51936373Y24064520D01*
X51945104Y24218980D01*
X51952798Y24376230D01*
X51959446Y24535356D01*
X51965042Y24695448D01*
X51969578Y24855591D01*
X51973046Y25014873D01*
X51975440Y25172383D01*
X51976753Y25327207D01*
X51976975Y25478433D01*
X51976101Y25625148D01*
X51974123Y25766440D01*
X51971034Y25901397D01*
X51966826Y26029105D01*
X51961492Y26148653D01*
X51955024Y26259127D01*
X51954168Y26271780D01*
X51932237Y26520623D01*
X51900568Y26770198D01*
X51859118Y27020739D01*
X51807841Y27272479D01*
X51746693Y27525650D01*
X51696371Y27706116D01*
X52091426Y27706116D01*
X52092321Y27699706D01*
X52092992Y27696720D01*
X52095204Y27685356D01*
X52098634Y27665221D01*
X52103089Y27637609D01*
X52108378Y27603811D01*
X52114307Y27565118D01*
X52120684Y27522822D01*
X52127316Y27478216D01*
X52134011Y27432590D01*
X52140576Y27387238D01*
X52146819Y27343450D01*
X52152546Y27302518D01*
X52157565Y27265735D01*
X52160033Y27247140D01*
X52194208Y26966968D01*
X52222311Y26694027D01*
X52244349Y26427408D01*
X52260334Y26166206D01*
X52270274Y25909511D01*
X52274179Y25656417D01*
X52272058Y25406015D01*
X52263920Y25157399D01*
X52249775Y24909661D01*
X52229632Y24661893D01*
X52203501Y24413188D01*
X52190437Y24305820D01*
X52183934Y24255787D01*
X52176641Y24202017D01*
X52168778Y24145961D01*
X52160566Y24089070D01*
X52152222Y24032793D01*
X52143967Y23978583D01*
X52136020Y23927888D01*
X52128600Y23882159D01*
X52121927Y23842847D01*
X52116221Y23811402D01*
X52113694Y23798573D01*
X52112424Y23788524D01*
X52116276Y23785757D01*
X52125212Y23787182D01*
X52135439Y23789188D01*
X52153367Y23792529D01*
X52176689Y23796782D01*
X52203100Y23801522D01*
X52210251Y23802793D01*
X52235738Y23807426D01*
X52257419Y23811576D01*
X52273440Y23814872D01*
X52281946Y23816945D01*
X52282804Y23817311D01*
X52284917Y23823204D01*
X52287656Y23833447D01*
X52370840Y23833447D01*
X52375650Y23833800D01*
X52389440Y23836052D01*
X52411243Y23840018D01*
X52440095Y23845508D01*
X52475031Y23852337D01*
X52515087Y23860315D01*
X52559298Y23869256D01*
X52606699Y23878972D01*
X52631678Y23884142D01*
X52666863Y23891538D01*
X52698723Y23898407D01*
X52725918Y23904446D01*
X52747110Y23909354D01*
X52760958Y23912826D01*
X52766094Y23914522D01*
X52766276Y23921083D01*
X52762971Y23935848D01*
X52756612Y23957646D01*
X52747633Y23985307D01*
X52736469Y24017662D01*
X52723552Y24053540D01*
X52709317Y24091772D01*
X52694197Y24131189D01*
X52678626Y24170620D01*
X52663038Y24208895D01*
X52647867Y24244844D01*
X52633545Y24277298D01*
X52623834Y24298200D01*
X52593511Y24361700D01*
X52573006Y24308360D01*
X52555634Y24264116D01*
X52534922Y24212927D01*
X52511822Y24157061D01*
X52487285Y24098783D01*
X52462264Y24040357D01*
X52437711Y23984049D01*
X52419565Y23943210D01*
X52405816Y23912516D01*
X52393569Y23885086D01*
X52383403Y23862221D01*
X52375892Y23845219D01*
X52371615Y23835380D01*
X52370840Y23833447D01*
X52287656Y23833447D01*
X52288826Y23837820D01*
X52294258Y23859934D01*
X52300940Y23888323D01*
X52308598Y23921762D01*
X52316958Y23959027D01*
X52325747Y23998893D01*
X52334692Y24040138D01*
X52343519Y24081536D01*
X52351954Y24121864D01*
X52359724Y24159897D01*
X52363000Y24176280D01*
X52392895Y24331920D01*
X52419194Y24479629D01*
X52442051Y24620920D01*
X52461625Y24757303D01*
X52478070Y24890291D01*
X52491544Y25021393D01*
X52502203Y25152121D01*
X52510205Y25283986D01*
X52515704Y25418501D01*
X52518859Y25557175D01*
X52519824Y25690120D01*
X52519684Y25763056D01*
X52519125Y25827796D01*
X52518067Y25886296D01*
X52516432Y25940516D01*
X52514140Y25992413D01*
X52511112Y26043944D01*
X52507269Y26097068D01*
X52502532Y26153742D01*
X52499909Y26182880D01*
X52475023Y26398560D01*
X52440100Y26612763D01*
X52395175Y26825355D01*
X52340281Y27036206D01*
X52275452Y27245182D01*
X52200723Y27452152D01*
X52129849Y27625459D01*
X52115554Y27658339D01*
X52104832Y27682328D01*
X52097414Y27697943D01*
X52093034Y27705700D01*
X52091426Y27706116D01*
X51696371Y27706116D01*
X51675632Y27780486D01*
X51655876Y27845904D01*
X51646736Y27875708D01*
X51600249Y27779864D01*
X51525035Y27613791D01*
X51458712Y27444233D01*
X51401561Y27272077D01*
X51353863Y27098207D01*
X51315900Y26923508D01*
X51301533Y26841567D01*
X51287301Y26743185D01*
X51274930Y26635832D01*
X51264489Y26520537D01*
X51256044Y26398328D01*
X51249661Y26270234D01*
X51245409Y26137285D01*
X51243353Y26000509D01*
X51243161Y25944120D01*
X50830122Y25944120D01*
X50829976Y25949643D01*
X50828021Y26083820D01*
X50827532Y26229697D01*
X50828996Y26366700D01*
X50832539Y26495950D01*
X50838289Y26618570D01*
X50846372Y26735680D01*
X50856918Y26848401D01*
X50870052Y26957855D01*
X50885902Y27065164D01*
X50904595Y27171447D01*
X50926260Y27277828D01*
X50951022Y27385426D01*
X50979011Y27495364D01*
X50995062Y27554480D01*
X51060011Y27770506D01*
X51134294Y27983552D01*
X51217644Y28193028D01*
X51309788Y28398340D01*
X51410458Y28598900D01*
X51519384Y28794114D01*
X51636295Y28983392D01*
X51672181Y29037876D01*
X51696755Y29074338D01*
X51721847Y29111006D01*
X51746490Y29146513D01*
X51769721Y29179491D01*
X51790571Y29208574D01*
X51808077Y29232394D01*
X51821272Y29249584D01*
X51824658Y29253740D01*
X51837395Y29268980D01*
X51848847Y29254292D01*
X51864094Y29234059D01*
X51883800Y29206874D01*
X51906884Y29174306D01*
X51932268Y29137922D01*
X51958873Y29099290D01*
X51985621Y29059978D01*
X52011432Y29021554D01*
X52035228Y28985585D01*
X52055931Y28953639D01*
X52058396Y28949773D01*
X52176008Y28755474D01*
X52284929Y28556024D01*
X52385026Y28351745D01*
X52476166Y28142964D01*
X52558215Y27930005D01*
X52631041Y27713193D01*
X52694510Y27492853D01*
X52748488Y27269309D01*
X52748892Y27267460D01*
X52767606Y27175782D01*
X52784220Y27081544D01*
X52798903Y26983423D01*
X52811826Y26880092D01*
X52823160Y26770225D01*
X52833076Y26652498D01*
X52839152Y26566420D01*
X52840741Y26535661D01*
X52842110Y26496047D01*
X52843258Y26448881D01*
X52844186Y26395465D01*
X52844893Y26337102D01*
X52845380Y26275095D01*
X52845646Y26210747D01*
X52845691Y26145360D01*
X52845516Y26080236D01*
X52845120Y26016680D01*
X52844503Y25955992D01*
X52843665Y25899477D01*
X52842606Y25848436D01*
X52841327Y25804173D01*
X52839827Y25767989D01*
X52839171Y25756160D01*
X52833493Y25665907D01*
X52827940Y25583973D01*
X52822371Y25508519D01*
X52816643Y25437707D01*
X52810617Y25369700D01*
X52804745Y25308614D01*
X52791793Y25178567D01*
X52820522Y25097794D01*
X52874978Y24930690D01*
X52920101Y24761616D01*
X52956014Y24589912D01*
X52982839Y24414917D01*
X53000698Y24235968D01*
X53008977Y24078490D01*
X53010058Y24046225D01*
X53011131Y24017673D01*
X53012132Y23994293D01*
X53012996Y23977542D01*
X53013659Y23968878D01*
X53013861Y23968000D01*
X53020015Y23969206D01*
X53034781Y23972619D01*
X53056929Y23977930D01*
X53085227Y23984833D01*
X53118445Y23993020D01*
X53155349Y24002182D01*
X53194711Y24012013D01*
X53235298Y24022205D01*
X53275878Y24032450D01*
X53315222Y24042440D01*
X53352097Y24051869D01*
X53385272Y24060427D01*
X53413517Y24067808D01*
X53417320Y24068812D01*
X53673960Y24139314D01*
X53924378Y24213342D01*
X54168010Y24290699D01*
X54404291Y24371190D01*
X54632659Y24454620D01*
X54852549Y24540792D01*
X55063397Y24629512D01*
X55173062Y24678303D01*
X55194875Y24688355D01*
X55222235Y24701204D01*
X55253992Y24716289D01*
X55288999Y24733050D01*
X55326105Y24750927D01*
X55364162Y24769359D01*
X55402022Y24787786D01*
X55438534Y24805648D01*
X55472551Y24822384D01*
X55502923Y24837434D01*
X55528501Y24850237D01*
X55548136Y24860234D01*
X55560680Y24866864D01*
X55564848Y24869377D01*
X55567087Y24875046D01*
X55571341Y24889117D01*
X55577232Y24910123D01*
X55584379Y24936594D01*
X55592402Y24967059D01*
X55600919Y25000050D01*
X55609553Y25034096D01*
X55617921Y25067728D01*
X55625644Y25099476D01*
X55632341Y25127871D01*
X55635077Y25139973D01*
X56011620Y25139973D01*
X56027965Y25149617D01*
X56037233Y25155715D01*
X56052978Y25166754D01*
X56073564Y25181558D01*
X56097354Y25198951D01*
X56120596Y25216178D01*
X56220605Y25294124D01*
X56310922Y25371476D01*
X56391487Y25448167D01*
X56462243Y25524131D01*
X56523131Y25599300D01*
X56574093Y25673607D01*
X56615071Y25746985D01*
X56646007Y25819367D01*
X56647425Y25823344D01*
X56667239Y25893177D01*
X56677155Y25962085D01*
X56677174Y26029726D01*
X56667298Y26095756D01*
X56647530Y26159832D01*
X56645850Y26164050D01*
X56629308Y26200585D01*
X56609739Y26234794D01*
X56585762Y26268622D01*
X56555999Y26304014D01*
X56519069Y26342915D01*
X56518660Y26343328D01*
X56470615Y26388650D01*
X56420569Y26429416D01*
X56366395Y26467128D01*
X56305969Y26503290D01*
X56251214Y26532357D01*
X56225057Y26545230D01*
X56196618Y26558586D01*
X56167408Y26571784D01*
X56138943Y26584186D01*
X56112736Y26595152D01*
X56090301Y26604042D01*
X56073152Y26610217D01*
X56062803Y26613039D01*
X56060525Y26612899D01*
X56060378Y26607361D01*
X56061402Y26593472D01*
X56063434Y26572952D01*
X56066307Y26547522D01*
X56068747Y26527575D01*
X56089249Y26326366D01*
X56100161Y26124662D01*
X56101493Y25923311D01*
X56093253Y25723162D01*
X56075447Y25525064D01*
X56058403Y25395480D01*
X56054293Y25368938D01*
X56049214Y25337876D01*
X56043498Y25304160D01*
X56037479Y25269660D01*
X56031492Y25236243D01*
X56025870Y25205778D01*
X56020946Y25180131D01*
X56017054Y25161171D01*
X56014931Y25152157D01*
X56011620Y25139973D01*
X55635077Y25139973D01*
X55636626Y25146824D01*
X55665689Y25290351D01*
X55688784Y25430507D01*
X55706231Y25570075D01*
X55718354Y25711838D01*
X55725472Y25858580D01*
X55727202Y25931420D01*
X55726757Y26105565D01*
X55719467Y26274056D01*
X55705100Y26438955D01*
X55683423Y26602323D01*
X55654206Y26766218D01*
X55617216Y26932701D01*
X55612287Y26952777D01*
X55559512Y27144672D01*
X55497235Y27333006D01*
X55425508Y27517686D01*
X55344380Y27698617D01*
X55253900Y27875708D01*
X55154118Y28048864D01*
X55045084Y28217992D01*
X54926846Y28383000D01*
X54799454Y28543793D01*
X54715684Y28641568D01*
X54685429Y28674957D01*
X54649218Y28713438D01*
X54608701Y28755368D01*
X54565529Y28799102D01*
X54521351Y28842996D01*
X54477815Y28885405D01*
X54436573Y28924686D01*
X54399274Y28959194D01*
X54377440Y28978711D01*
X54218000Y29112045D01*
X54053509Y29236635D01*
X53884129Y29352395D01*
X53710022Y29459240D01*
X53531350Y29557085D01*
X53348274Y29645846D01*
X53160957Y29725436D01*
X52969561Y29795771D01*
X52774247Y29856766D01*
X52637540Y29893298D01*
X52437739Y29937944D01*
X52236824Y29972672D01*
X52035166Y29997538D01*
X51833139Y30012597D01*
X51631116Y30017904D01*
X51429470Y30013516D01*
X51228574Y29999487D01*
X51028802Y29975873D01*
X50830527Y29942729D01*
X50634121Y29900112D01*
X50439959Y29848076D01*
X50248412Y29786676D01*
X50059855Y29715969D01*
X49874660Y29636010D01*
X49693201Y29546854D01*
X49515851Y29448557D01*
X49472700Y29422863D01*
X49309333Y29319022D01*
X49151701Y29208346D01*
X49000828Y29091607D01*
X48857743Y28969578D01*
X48798087Y28914943D01*
X48777754Y28896273D01*
X48759970Y28880637D01*
X48746038Y28869127D01*
X48737261Y28862831D01*
X48734913Y28862074D01*
X48737334Y28866540D01*
X48746351Y28877022D01*
X48761084Y28892656D01*
X48780655Y28912575D01*
X48804185Y28935914D01*
X48830796Y28961807D01*
X48859608Y28989387D01*
X48889744Y29017791D01*
X48920325Y29046151D01*
X48939749Y29063901D01*
X49095501Y29198509D01*
X49257363Y29325115D01*
X49424990Y29443564D01*
X49598035Y29553697D01*
X49776153Y29655359D01*
X49958997Y29748392D01*
X50146222Y29832639D01*
X50337482Y29907945D01*
X50532430Y29974151D01*
X50730720Y30031102D01*
X50932007Y30078641D01*
X51135944Y30116610D01*
X51319629Y30142255D01*
X51368762Y30147949D01*
X51412522Y30152751D01*
X51452407Y30156734D01*
X51489914Y30159974D01*
X51526541Y30162546D01*
X51563784Y30164524D01*
X51603142Y30165984D01*
X51646111Y30166999D01*
X51694190Y30167646D01*
X51748875Y30167998D01*
X51811664Y30168132D01*
X51837440Y30168140D01*
X51901534Y30168082D01*
G37*
X51901534Y30168082D02*
X51956973Y30167861D01*
X52005261Y30167406D01*
X52047901Y30166647D01*
X52086399Y30165512D01*
X52122258Y30163932D01*
X52156983Y30161835D01*
X52192078Y30159151D01*
X52229046Y30155809D01*
X52269393Y30151738D01*
X52314622Y30146869D01*
X52332740Y30144867D01*
X52538164Y30117007D01*
X52741325Y30079353D01*
X52941888Y30032069D01*
X53139515Y29975318D01*
X53333871Y29909262D01*
X53524620Y29834065D01*
X53711426Y29749890D01*
X53893954Y29656900D01*
X54071867Y29555257D01*
X54244830Y29445125D01*
X54412507Y29326667D01*
X54574561Y29200046D01*
X54730657Y29065425D01*
X54880460Y28922966D01*
X54908343Y28894864D01*
X55044866Y28749948D01*
X55172020Y28602346D01*
X55290434Y28451176D01*
X55400737Y28295556D01*
X55503559Y28134604D01*
X55599529Y27967437D01*
X55678018Y27816100D01*
X55761250Y27637127D01*
X55835860Y27454451D01*
X55901522Y27269038D01*
X55957910Y27081856D01*
X56004699Y26893871D01*
X56029001Y26775984D01*
X56046089Y26685827D01*
X56079174Y26675039D01*
X56117876Y26661554D01*
X56162531Y26644568D01*
X56210113Y26625325D01*
X56257590Y26605071D01*
X56301935Y26585051D01*
X56325620Y26573747D01*
X56398104Y26536409D01*
X56462288Y26499194D01*
X56519944Y26460894D01*
X56572845Y26420297D01*
X56622761Y26376195D01*
X56641354Y26358228D01*
X56689579Y26306836D01*
X56729034Y26256249D01*
X56760781Y26204725D01*
X56785886Y26150518D01*
X56805412Y26091885D01*
X56806684Y26087252D01*
X56812697Y26056710D01*
X56816597Y26019306D01*
X56818354Y25978119D01*
X56817939Y25936230D01*
X56815323Y25896720D01*
X56810477Y25862670D01*
X56808879Y25855220D01*
X56785846Y25777104D01*
X56753213Y25698839D01*
X56710923Y25620365D01*
X56658923Y25541622D01*
X56597159Y25462548D01*
X56525576Y25383082D01*
X56444121Y25303164D01*
X56352740Y25222732D01*
X56251378Y25141726D01*
X56139980Y25060085D01*
X56042997Y24993874D01*
X55965737Y24942670D01*
X55939000Y24850305D01*
X55879151Y24661584D01*
X55809577Y24475016D01*
X55730608Y24291274D01*
X55642570Y24111034D01*
X55545790Y23934971D01*
X55440598Y23763758D01*
X55337560Y23612349D01*
X55213434Y23447177D01*
X55081626Y23288551D01*
X54942413Y23136708D01*
X54796075Y22991883D01*
X54642890Y22854314D01*
X54483140Y22724236D01*
X54317101Y22601886D01*
X54145054Y22487499D01*
X53967278Y22381312D01*
X53784052Y22283561D01*
X53742440Y22262918D01*
X53555229Y22176926D01*
X53363795Y22100017D01*
X53168682Y22032314D01*
X52970431Y21973940D01*
X52769585Y21925019D01*
X52566687Y21885674D01*
X52362280Y21856030D01*
X52156906Y21836208D01*
X51951108Y21826334D01*
X51819660Y21825290D01*
X51783929Y21825619D01*
X51749548Y21826029D01*
X51718522Y21826491D01*
X51692856Y21826972D01*
X51674554Y21827441D01*
X51669800Y21827616D01*
X51455127Y21841665D01*
X51243981Y21865239D01*
X51036319Y21898350D01*
X50832096Y21941010D01*
X50631269Y21993232D01*
X50433795Y22055029D01*
X50239629Y22126412D01*
X50048729Y22207394D01*
X49861049Y22297989D01*
X49678829Y22396898D01*
X49504922Y22502182D01*
X49336933Y22615261D01*
X49174358Y22736518D01*
X49016695Y22866333D01*
X48863443Y23005087D01*
X48813539Y23053110D01*
X48787292Y23079036D01*
X48766267Y23100372D01*
X48750709Y23116784D01*
X48740860Y23127936D01*
X48736964Y23133490D01*
X48739265Y23133112D01*
X48748006Y23126464D01*
X48763432Y23113212D01*
X48782269Y23096241D01*
X48912104Y22981218D01*
X49040545Y22875013D01*
X49168961Y22776669D01*
X49298720Y22685227D01*
X49431192Y22599728D01*
X49567746Y22519214D01*
X49709749Y22442728D01*
X49731780Y22431454D01*
X49904556Y22348328D01*
X50078723Y22274028D01*
X50255046Y22208339D01*
X50434292Y22151048D01*
X50617227Y22101938D01*
X50804615Y22060797D01*
X50997224Y22027408D01*
X51195818Y22001558D01*
X51304040Y21990816D01*
X51334359Y21988740D01*
X51373350Y21987047D01*
X51419532Y21985729D01*
X51471423Y21984782D01*
X51527542Y21984199D01*
X51586409Y21983975D01*
X51646543Y21984103D01*
X51706461Y21984579D01*
X51764684Y21985395D01*
X51819730Y21986546D01*
X51870118Y21988026D01*
X51914368Y21989830D01*
X51950997Y21991951D01*
X51969520Y21993450D01*
X52171189Y22016441D01*
X52366588Y22046971D01*
X52556491Y22085256D01*
X52741670Y22131513D01*
X52922899Y22185957D01*
X53100951Y22248805D01*
X53276599Y22320273D01*
X53450616Y22400577D01*
X53483360Y22416752D01*
X53664315Y22512692D01*
X53839641Y22617002D01*
X54009098Y22729482D01*
X54172445Y22849931D01*
X54329441Y22978148D01*
X54479845Y23113931D01*
X54623417Y23257082D01*
X54759916Y23407397D01*
X54889101Y23564678D01*
X54941087Y23632720D01*
X55055206Y23793368D01*
X55160642Y23958522D01*
X55257681Y24128714D01*
X55346613Y24304475D01*
X55427724Y24486336D01*
X55490277Y24644877D01*
X55504919Y24684213D01*
X55438190Y24650775D01*
X55308243Y24587682D01*
X55169192Y24524010D01*
X55022046Y24460165D01*
X54867812Y24396555D01*
X54707500Y24333588D01*
X54542118Y24271669D01*
X54372674Y24211207D01*
X54225040Y24160875D01*
X54104633Y24121207D01*
X53989083Y24084233D01*
X53876341Y24049357D01*
X53764360Y24015984D01*
X53651089Y23983517D01*
X53534481Y23951362D01*
X53412488Y23918922D01*
X53283059Y23885601D01*
X53247140Y23876519D01*
X53008380Y23816362D01*
X53004784Y23791851D01*
X53003106Y23778497D01*
X53000777Y23757333D01*
X52998037Y23730670D01*
X52995126Y23700819D01*
X52993228Y23680496D01*
X52976388Y23534452D01*
X52953171Y23392801D01*
X52951936Y23386340D01*
X52946998Y23361800D01*
X52940764Y23332565D01*
X52933613Y23300230D01*
X52925921Y23266391D01*
X52918063Y23232642D01*
X52910416Y23200577D01*
X52903358Y23171793D01*
X52897263Y23147883D01*
X52892510Y23130442D01*
X52889473Y23121066D01*
X52889157Y23120392D01*
X52887837Y23123005D01*
X52886345Y23134355D01*
X52884796Y23153023D01*
X52883306Y23177589D01*
X52881992Y23206634D01*
X52881891Y23209292D01*
X52873014Y23356623D01*
X52857659Y23499788D01*
X52836030Y23636989D01*
X52830163Y23667643D01*
X52823261Y23702277D01*
X52817867Y23728159D01*
X52813537Y23746507D01*
X52809824Y23758540D01*
X52806283Y23765474D01*
X52802468Y23768530D01*
X52797934Y23768924D01*
X52793401Y23768124D01*
X52757010Y23760460D01*
X52715436Y23751790D01*
X52670220Y23742428D01*
X52622903Y23732687D01*
X52575025Y23722883D01*
X52528127Y23713328D01*
X52483749Y23704337D01*
X52443433Y23696224D01*
X52408719Y23689304D01*
X52381147Y23683889D01*
X52364961Y23680795D01*
X52290502Y23666892D01*
X52246198Y23574876D01*
X52232732Y23547324D01*
X52220734Y23523567D01*
X52210881Y23504879D01*
X52203850Y23492536D01*
X52200317Y23487813D01*
X52200070Y23487940D01*
X52200753Y23494318D01*
X52203805Y23508725D01*
X52208812Y23529422D01*
X52215357Y23554669D01*
X52220668Y23574252D01*
X52228057Y23601304D01*
X52234290Y23624671D01*
X52238943Y23642714D01*
X52241592Y23653799D01*
X52242016Y23656557D01*
X52236919Y23656083D01*
X52223543Y23654073D01*
X52203609Y23650808D01*
X52178834Y23646564D01*
X52162381Y23643668D01*
X52083820Y23629704D01*
X52068450Y23556282D01*
X52053081Y23482860D01*
X51959230Y23287766D01*
X51939409Y23246815D01*
X51920940Y23209152D01*
X51904280Y23175666D01*
X51889882Y23147250D01*
X51878201Y23124794D01*
X51869692Y23109190D01*
X51864810Y23101328D01*
X51863806Y23100715D01*
X51863876Y23107551D01*
X51864796Y23123256D01*
X51866471Y23146586D01*
X51868804Y23176293D01*
X51871697Y23211133D01*
X51875054Y23249860D01*
X51877575Y23278030D01*
X51883662Y23345589D01*
X51888809Y23403626D01*
X51893058Y23452729D01*
X51896455Y23493489D01*
X51899043Y23526494D01*
X51900868Y23552334D01*
X51901973Y23571599D01*
X51902403Y23584878D01*
X51902202Y23592760D01*
X51901458Y23595795D01*
X51895803Y23595899D01*
X51881514Y23594584D01*
X51859991Y23592024D01*
X51832634Y23588395D01*
X51800845Y23583871D01*
X51775222Y23580039D01*
X51737847Y23574390D01*
X51700918Y23568903D01*
X51666564Y23563885D01*
X51636911Y23559647D01*
X51614085Y23556498D01*
X51605750Y23555409D01*
X51583444Y23552277D01*
X51569654Y23549389D01*
X51562761Y23546243D01*
X51561150Y23542337D01*
X51561272Y23541615D01*
X51562957Y23534564D01*
X51566699Y23519151D01*
X51572131Y23496882D01*
X51578886Y23469262D01*
X51586596Y23437796D01*
X51591032Y23419713D01*
X51599011Y23386960D01*
X51606104Y23357382D01*
X51611967Y23332447D01*
X51616258Y23313624D01*
X51618634Y23302380D01*
X51619000Y23299951D01*
X51616045Y23293375D01*
X51608244Y23281363D01*
X51597188Y23266337D01*
X51595399Y23264038D01*
X51561555Y23218015D01*
X51526385Y23165042D01*
X51491524Y23107887D01*
X51458603Y23049321D01*
X51429255Y22992113D01*
X51408466Y22946920D01*
X51394233Y22913900D01*
X51366717Y22995180D01*
X51344235Y23062624D01*
X51320608Y23135373D01*
X51296836Y23210254D01*
X51273920Y23284091D01*
X51252861Y23353708D01*
X51240261Y23396500D01*
X51231292Y23427075D01*
X51223141Y23454297D01*
X51216270Y23476666D01*
X51211143Y23492684D01*
X51208222Y23500853D01*
X51207862Y23501529D01*
X51202349Y23501967D01*
X51189055Y23501400D01*
X51170284Y23500051D01*
X51148340Y23498142D01*
X51125526Y23495897D01*
X51104148Y23493539D01*
X51086510Y23491291D01*
X51074914Y23489376D01*
X51071604Y23488333D01*
X51069806Y23482781D01*
X51066300Y23468805D01*
X51061421Y23447936D01*
X51055500Y23421702D01*
X51048870Y23391633D01*
X51041864Y23359259D01*
X51034814Y23326110D01*
X51028054Y23293714D01*
X51021916Y23263602D01*
X51016733Y23237304D01*
X51014875Y23227517D01*
X51008637Y23192964D01*
X51001707Y23152614D01*
X50994797Y23110731D01*
X50988620Y23071579D01*
X50986699Y23058883D01*
X50973473Y22970186D01*
X50944446Y22945108D01*
X50919636Y22922633D01*
X50890382Y22894469D01*
X50858688Y22862694D01*
X50826561Y22829387D01*
X50796007Y22796629D01*
X50769032Y22766499D01*
X50747780Y22741247D01*
X50731224Y22719768D01*
X50711501Y22692866D01*
X50689998Y22662565D01*
X50668102Y22630888D01*
X50647198Y22599860D01*
X50628674Y22571502D01*
X50613917Y22547841D01*
X50606651Y22535300D01*
X50600308Y22525205D01*
X50595953Y22520878D01*
X50595423Y22521004D01*
X50593872Y22527282D01*
X50592024Y22542637D01*
X50589940Y22565991D01*
X50587683Y22596269D01*
X50585315Y22632392D01*
X50582898Y22673285D01*
X50580496Y22717870D01*
X50578170Y22765070D01*
X50575982Y22813809D01*
X50573996Y22863009D01*
X50572273Y22911594D01*
X50571639Y22931680D01*
X50569303Y23026387D01*
X50568304Y23113785D01*
X50568634Y23196637D01*
X50570286Y23277704D01*
X50570568Y23287280D01*
X50571750Y23326448D01*
X50572817Y23362164D01*
X50573733Y23393214D01*
X50574463Y23418384D01*
X50574972Y23436460D01*
X50575223Y23446228D01*
X50575241Y23447621D01*
X50570366Y23447427D01*
X50556871Y23446698D01*
X50536274Y23445521D01*
X50510098Y23443984D01*
X50479860Y23442175D01*
X50473460Y23441788D01*
X50301297Y23432830D01*
X50125975Y23426546D01*
X49949410Y23422935D01*
X49773517Y23421994D01*
X49600212Y23423724D01*
X49431411Y23428124D01*
X49269030Y23435192D01*
X49150120Y23442415D01*
X48976686Y23456416D01*
X48809196Y23474063D01*
X48648029Y23495272D01*
X48493566Y23519955D01*
X48346188Y23548029D01*
X48206273Y23579406D01*
X48074204Y23614002D01*
X47950361Y23651730D01*
X47835122Y23692504D01*
X47728870Y23736240D01*
X47631985Y23782851D01*
X47626120Y23785926D01*
X47538682Y23835850D01*
X47460463Y23888556D01*
X47391565Y23943929D01*
X47332089Y24001854D01*
X47282137Y24062214D01*
X47241810Y24124896D01*
X47211208Y24189783D01*
X47190435Y24256760D01*
X47184052Y24289195D01*
X47180171Y24327987D01*
X47179564Y24372657D01*
X47182031Y24419533D01*
X47187373Y24464947D01*
X47195392Y24505226D01*
X47195865Y24507062D01*
X47220456Y24582419D01*
X47255004Y24658658D01*
X47299354Y24735660D01*
X47353353Y24813308D01*
X47416845Y24891482D01*
X47489677Y24970065D01*
X47571695Y25048939D01*
X47662745Y25127984D01*
X47762672Y25207083D01*
X47871323Y25286118D01*
X47988543Y25364970D01*
X48114178Y25443521D01*
X48248074Y25521652D01*
X48390076Y25599246D01*
X48540031Y25676183D01*
X48697785Y25752347D01*
X48863183Y25827618D01*
X48985931Y25880775D01*
X49015985Y25893691D01*
X49037709Y25903495D01*
X49052221Y25910805D01*
X49060639Y25916239D01*
X49064083Y25920417D01*
X49063762Y25923796D01*
X49061079Y25925892D01*
X49054723Y25928168D01*
X49043957Y25930738D01*
X49028040Y25933716D01*
X49006233Y25937216D01*
X48977798Y25941353D01*
X48941993Y25946240D01*
X48898081Y25951993D01*
X48845321Y25958724D01*
X48803771Y25963950D01*
X48753994Y25970212D01*
X48707344Y25976137D01*
X48664780Y25981601D01*
X48627257Y25986477D01*
X48595733Y25990640D01*
X48571165Y25993964D01*
X48554510Y25996323D01*
X48546726Y25997593D01*
X48546270Y25997732D01*
X48546149Y25998628D01*
X48548130Y25999646D01*
X48552978Y26000894D01*
X48561456Y26002478D01*
X48574327Y26004508D01*
X48592355Y26007090D01*
X48616305Y26010332D01*
X48646939Y26014342D01*
X48685021Y26019227D01*
X48731314Y26025096D01*
X48786584Y26032056D01*
X48814633Y26035579D01*
X48863412Y26041719D01*
X48909013Y26047497D01*
X48950466Y26052784D01*
X48986800Y26057458D01*
X49017045Y26061391D01*
X49040232Y26064458D01*
X49055390Y26066534D01*
X49061549Y26067494D01*
X49061637Y26067528D01*
X49064250Y26072281D01*
X49069549Y26082524D01*
X49070364Y26084123D01*
X49082229Y26101669D01*
X49099691Y26120785D01*
X49119424Y26138181D01*
X49136966Y26149972D01*
X49151241Y26160645D01*
X49157595Y26174024D01*
X49157801Y26175138D01*
X49158988Y26183223D01*
X49161344Y26200304D01*
X49164727Y26225301D01*
X49168991Y26257134D01*
X49173994Y26294724D01*
X49179590Y26336992D01*
X49185635Y26382857D01*
X49191030Y26423951D01*
X49197295Y26471458D01*
X49203217Y26515810D01*
X49208658Y26556003D01*
X49213477Y26591034D01*
X49217537Y26619902D01*
X49220697Y26641603D01*
X49222819Y26655135D01*
X49223726Y26659501D01*
X49224683Y26659778D01*
X49225726Y26658186D01*
X49226970Y26653946D01*
X49228530Y26646278D01*
X49230521Y26634404D01*
X49233056Y26617542D01*
X49236253Y26594916D01*
X49240224Y26565744D01*
X49245086Y26529249D01*
X49250952Y26484650D01*
X49257939Y26431169D01*
X49262157Y26398780D01*
X49268506Y26350728D01*
X49274615Y26305836D01*
X49280339Y26265094D01*
X49285530Y26229492D01*
X49290040Y26200020D01*
X49293721Y26177668D01*
X49296426Y26163426D01*
X49297998Y26158287D01*
X49317604Y26147683D01*
X49339389Y26130293D01*
X49360951Y26108402D01*
X49379889Y26084292D01*
X49386340Y26074293D01*
X49389066Y26072109D01*
X49395162Y26069804D01*
X49405408Y26067258D01*
X49420581Y26064347D01*
X49441460Y26060950D01*
X49468823Y26056945D01*
X49503449Y26052211D01*
X49546115Y26046626D01*
X49597600Y26040067D01*
X49635260Y26035337D01*
X49694631Y26027898D01*
X49744682Y26021592D01*
X49786174Y26016309D01*
X49819869Y26011943D01*
X49846531Y26008386D01*
X49866921Y26005530D01*
X49881804Y26003267D01*
X49891940Y26001489D01*
X49898094Y26000089D01*
X49901026Y25998958D01*
X49901501Y25997989D01*
X49901289Y25997725D01*
X49896034Y25996762D01*
X49881654Y25994670D01*
X49859106Y25991574D01*
X49829345Y25987600D01*
X49793330Y25982876D01*
X49752015Y25977526D01*
X49706359Y25971678D01*
X49657318Y25965457D01*
X49643630Y25963731D01*
X49387841Y25931519D01*
X49378628Y25913462D01*
X49367207Y25896722D01*
X49350117Y25878061D01*
X49330538Y25860552D01*
X49311648Y25847267D01*
X49308180Y25845361D01*
X49297636Y25838958D01*
X49292466Y25833953D01*
X49292360Y25833469D01*
X49291713Y25827510D01*
X49289880Y25812691D01*
X49287020Y25790223D01*
X49283292Y25761315D01*
X49278857Y25727178D01*
X49273874Y25689023D01*
X49268502Y25648060D01*
X49262902Y25605499D01*
X49257232Y25562551D01*
X49251653Y25520425D01*
X49246324Y25480333D01*
X49241405Y25443485D01*
X49237055Y25411091D01*
X49233434Y25384362D01*
X49230702Y25364507D01*
X49229018Y25352738D01*
X49228664Y25350511D01*
X49226207Y25339673D01*
X49224079Y25335221D01*
X49223830Y25335317D01*
X49222817Y25340570D01*
X49220634Y25354902D01*
X49217417Y25377320D01*
X49213304Y25406827D01*
X49208432Y25442429D01*
X49202938Y25483130D01*
X49196960Y25527934D01*
X49190967Y25573326D01*
X49184599Y25621678D01*
X49178553Y25667346D01*
X49172975Y25709260D01*
X49168006Y25746348D01*
X49163793Y25777538D01*
X49160478Y25801760D01*
X49158206Y25817941D01*
X49157172Y25824740D01*
X49150196Y25839440D01*
X49138291Y25848110D01*
X49131163Y25851372D01*
X49124502Y25852761D01*
X49116312Y25851836D01*
X49104592Y25848155D01*
X49087344Y25841274D01*
X49065483Y25831999D01*
X48919667Y25767742D01*
X48776812Y25701003D01*
X48637894Y25632313D01*
X48503890Y25562201D01*
X48375778Y25491197D01*
X48254535Y25419832D01*
X48141137Y25348636D01*
X48036562Y25278139D01*
X48009660Y25259074D01*
X47946605Y25212230D01*
X47883595Y25162286D01*
X47821870Y25110386D01*
X47762677Y25057672D01*
X47707256Y25005287D01*
X47656853Y24954375D01*
X47612711Y24906078D01*
X47576072Y24861539D01*
X47573474Y24858135D01*
X47520768Y24782737D01*
X47478095Y24708819D01*
X47445445Y24636441D01*
X47422809Y24565665D01*
X47410176Y24496552D01*
X47407537Y24429163D01*
X47414881Y24363559D01*
X47432199Y24299802D01*
X47459480Y24237953D01*
X47496714Y24178072D01*
X47543892Y24120221D01*
X47601004Y24064462D01*
X47668038Y24010855D01*
X47717560Y23976783D01*
X47792971Y23931910D01*
X47877804Y23889087D01*
X47971493Y23848489D01*
X48073475Y23810295D01*
X48183183Y23774680D01*
X48300053Y23741821D01*
X48423521Y23711894D01*
X48553022Y23685077D01*
X48687991Y23661546D01*
X48759985Y23650691D01*
X48852101Y23638035D01*
X48940881Y23626945D01*
X49027946Y23617295D01*
X49114917Y23608957D01*
X49203413Y23601805D01*
X49295055Y23595711D01*
X49391463Y23590548D01*
X49494258Y23586190D01*
X49605059Y23582508D01*
X49642596Y23581448D01*
X49726061Y23579767D01*
X49816361Y23579005D01*
X49911566Y23579121D01*
X50009742Y23580077D01*
X50108960Y23581831D01*
X50207286Y23584344D01*
X50302791Y23587576D01*
X50393543Y23591486D01*
X50477609Y23596034D01*
X50538099Y23600057D01*
X50582418Y23603298D01*
X50584756Y23619279D01*
X50585823Y23628673D01*
X50587585Y23646602D01*
X50587955Y23650594D01*
X51116080Y23650594D01*
X51120476Y23649260D01*
X51131212Y23649287D01*
X51144605Y23650358D01*
X51156973Y23652156D01*
X51164636Y23654365D01*
X51165283Y23654831D01*
X51164838Y23660172D01*
X51162183Y23673016D01*
X51157816Y23691075D01*
X51155211Y23701099D01*
X51143393Y23745620D01*
X51129736Y23700114D01*
X51123777Y23679852D01*
X51119135Y23663299D01*
X51116468Y23652838D01*
X51116080Y23650594D01*
X50587955Y23650594D01*
X50589894Y23671477D01*
X50592606Y23701708D01*
X50595575Y23735705D01*
X50597844Y23762260D01*
X50622554Y23998698D01*
X50656806Y24237484D01*
X50700458Y24477889D01*
X50753368Y24719182D01*
X50815395Y24960636D01*
X50860924Y25118620D01*
X50880781Y25184660D01*
X50874118Y25245620D01*
X50862362Y25360712D01*
X50852510Y25474077D01*
X50844453Y25587685D01*
X50838084Y25703502D01*
X50833295Y25823499D01*
X50830122Y25944120D01*
X51243161Y25944120D01*
X51243676Y25844663D01*
X51245310Y25749519D01*
X51248173Y25657106D01*
X51252374Y25565839D01*
X51258023Y25474137D01*
X51265230Y25380414D01*
X51274105Y25283088D01*
X51284758Y25180574D01*
X51297298Y25071291D01*
X51311836Y24953653D01*
X51311853Y24953520D01*
X51333885Y24785977D01*
X51356333Y24626650D01*
X51379515Y24473595D01*
X51403754Y24324869D01*
X51429371Y24178529D01*
X51456688Y24032630D01*
X51486025Y23885230D01*
X51498059Y23827030D01*
X51524851Y23698760D01*
X51538625Y23698760D01*
X51547141Y23699472D01*
X51564268Y23701481D01*
X51588567Y23704597D01*
X51618599Y23708630D01*
X51652924Y23713391D01*
X51690103Y23718689D01*
X51693650Y23719202D01*
X51747106Y23726971D01*
X51791375Y23733483D01*
X51827336Y23738872D01*
X51855864Y23743276D01*
X51877838Y23746828D01*
X51894135Y23749665D01*
X51905632Y23751923D01*
X51906374Y23752083D01*
X51908683Y23752566D01*
X51910679Y23753433D01*
X51912435Y23755438D01*
X51914023Y23759333D01*
X51915515Y23765872D01*
X51916985Y23775809D01*
X51918503Y23789898D01*
X51920143Y23808891D01*
X51921977Y23833542D01*
X51924077Y23864606D01*
X51926516Y23902835D01*
X51929365Y23948982D01*
X51932698Y24003802D01*
X51936373Y24064520D01*
X51945104Y24218980D01*
X51952798Y24376230D01*
X51959446Y24535356D01*
X51965042Y24695448D01*
X51969578Y24855591D01*
X51973046Y25014873D01*
X51975440Y25172383D01*
X51976753Y25327207D01*
X51976975Y25478433D01*
X51976101Y25625148D01*
X51974123Y25766440D01*
X51971034Y25901397D01*
X51966826Y26029105D01*
X51961492Y26148653D01*
X51955024Y26259127D01*
X51954168Y26271780D01*
X51932237Y26520623D01*
X51900568Y26770198D01*
X51859118Y27020739D01*
X51807841Y27272479D01*
X51746693Y27525650D01*
X51696371Y27706116D01*
X52091426Y27706116D01*
X52092321Y27699706D01*
X52092992Y27696720D01*
X52095204Y27685356D01*
X52098634Y27665221D01*
X52103089Y27637609D01*
X52108378Y27603811D01*
X52114307Y27565118D01*
X52120684Y27522822D01*
X52127316Y27478216D01*
X52134011Y27432590D01*
X52140576Y27387238D01*
X52146819Y27343450D01*
X52152546Y27302518D01*
X52157565Y27265735D01*
X52160033Y27247140D01*
X52194208Y26966968D01*
X52222311Y26694027D01*
X52244349Y26427408D01*
X52260334Y26166206D01*
X52270274Y25909511D01*
X52274179Y25656417D01*
X52272058Y25406015D01*
X52263920Y25157399D01*
X52249775Y24909661D01*
X52229632Y24661893D01*
X52203501Y24413188D01*
X52190437Y24305820D01*
X52183934Y24255787D01*
X52176641Y24202017D01*
X52168778Y24145961D01*
X52160566Y24089070D01*
X52152222Y24032793D01*
X52143967Y23978583D01*
X52136020Y23927888D01*
X52128600Y23882159D01*
X52121927Y23842847D01*
X52116221Y23811402D01*
X52113694Y23798573D01*
X52112424Y23788524D01*
X52116276Y23785757D01*
X52125212Y23787182D01*
X52135439Y23789188D01*
X52153367Y23792529D01*
X52176689Y23796782D01*
X52203100Y23801522D01*
X52210251Y23802793D01*
X52235738Y23807426D01*
X52257419Y23811576D01*
X52273440Y23814872D01*
X52281946Y23816945D01*
X52282804Y23817311D01*
X52284917Y23823204D01*
X52287656Y23833447D01*
X52370840Y23833447D01*
X52375650Y23833800D01*
X52389440Y23836052D01*
X52411243Y23840018D01*
X52440095Y23845508D01*
X52475031Y23852337D01*
X52515087Y23860315D01*
X52559298Y23869256D01*
X52606699Y23878972D01*
X52631678Y23884142D01*
X52666863Y23891538D01*
X52698723Y23898407D01*
X52725918Y23904446D01*
X52747110Y23909354D01*
X52760958Y23912826D01*
X52766094Y23914522D01*
X52766276Y23921083D01*
X52762971Y23935848D01*
X52756612Y23957646D01*
X52747633Y23985307D01*
X52736469Y24017662D01*
X52723552Y24053540D01*
X52709317Y24091772D01*
X52694197Y24131189D01*
X52678626Y24170620D01*
X52663038Y24208895D01*
X52647867Y24244844D01*
X52633545Y24277298D01*
X52623834Y24298200D01*
X52593511Y24361700D01*
X52573006Y24308360D01*
X52555634Y24264116D01*
X52534922Y24212927D01*
X52511822Y24157061D01*
X52487285Y24098783D01*
X52462264Y24040357D01*
X52437711Y23984049D01*
X52419565Y23943210D01*
X52405816Y23912516D01*
X52393569Y23885086D01*
X52383403Y23862221D01*
X52375892Y23845219D01*
X52371615Y23835380D01*
X52370840Y23833447D01*
X52287656Y23833447D01*
X52288826Y23837820D01*
X52294258Y23859934D01*
X52300940Y23888323D01*
X52308598Y23921762D01*
X52316958Y23959027D01*
X52325747Y23998893D01*
X52334692Y24040138D01*
X52343519Y24081536D01*
X52351954Y24121864D01*
X52359724Y24159897D01*
X52363000Y24176280D01*
X52392895Y24331920D01*
X52419194Y24479629D01*
X52442051Y24620920D01*
X52461625Y24757303D01*
X52478070Y24890291D01*
X52491544Y25021393D01*
X52502203Y25152121D01*
X52510205Y25283986D01*
X52515704Y25418501D01*
X52518859Y25557175D01*
X52519824Y25690120D01*
X52519684Y25763056D01*
X52519125Y25827796D01*
X52518067Y25886296D01*
X52516432Y25940516D01*
X52514140Y25992413D01*
X52511112Y26043944D01*
X52507269Y26097068D01*
X52502532Y26153742D01*
X52499909Y26182880D01*
X52475023Y26398560D01*
X52440100Y26612763D01*
X52395175Y26825355D01*
X52340281Y27036206D01*
X52275452Y27245182D01*
X52200723Y27452152D01*
X52129849Y27625459D01*
X52115554Y27658339D01*
X52104832Y27682328D01*
X52097414Y27697943D01*
X52093034Y27705700D01*
X52091426Y27706116D01*
X51696371Y27706116D01*
X51675632Y27780486D01*
X51655876Y27845904D01*
X51646736Y27875708D01*
X51600249Y27779864D01*
X51525035Y27613791D01*
X51458712Y27444233D01*
X51401561Y27272077D01*
X51353863Y27098207D01*
X51315900Y26923508D01*
X51301533Y26841567D01*
X51287301Y26743185D01*
X51274930Y26635832D01*
X51264489Y26520537D01*
X51256044Y26398328D01*
X51249661Y26270234D01*
X51245409Y26137285D01*
X51243353Y26000509D01*
X51243161Y25944120D01*
X50830122Y25944120D01*
X50829976Y25949643D01*
X50828021Y26083820D01*
X50827532Y26229697D01*
X50828996Y26366700D01*
X50832539Y26495950D01*
X50838289Y26618570D01*
X50846372Y26735680D01*
X50856918Y26848401D01*
X50870052Y26957855D01*
X50885902Y27065164D01*
X50904595Y27171447D01*
X50926260Y27277828D01*
X50951022Y27385426D01*
X50979011Y27495364D01*
X50995062Y27554480D01*
X51060011Y27770506D01*
X51134294Y27983552D01*
X51217644Y28193028D01*
X51309788Y28398340D01*
X51410458Y28598900D01*
X51519384Y28794114D01*
X51636295Y28983392D01*
X51672181Y29037876D01*
X51696755Y29074338D01*
X51721847Y29111006D01*
X51746490Y29146513D01*
X51769721Y29179491D01*
X51790571Y29208574D01*
X51808077Y29232394D01*
X51821272Y29249584D01*
X51824658Y29253740D01*
X51837395Y29268980D01*
X51848847Y29254292D01*
X51864094Y29234059D01*
X51883800Y29206874D01*
X51906884Y29174306D01*
X51932268Y29137922D01*
X51958873Y29099290D01*
X51985621Y29059978D01*
X52011432Y29021554D01*
X52035228Y28985585D01*
X52055931Y28953639D01*
X52058396Y28949773D01*
X52176008Y28755474D01*
X52284929Y28556024D01*
X52385026Y28351745D01*
X52476166Y28142964D01*
X52558215Y27930005D01*
X52631041Y27713193D01*
X52694510Y27492853D01*
X52748488Y27269309D01*
X52748892Y27267460D01*
X52767606Y27175782D01*
X52784220Y27081544D01*
X52798903Y26983423D01*
X52811826Y26880092D01*
X52823160Y26770225D01*
X52833076Y26652498D01*
X52839152Y26566420D01*
X52840741Y26535661D01*
X52842110Y26496047D01*
X52843258Y26448881D01*
X52844186Y26395465D01*
X52844893Y26337102D01*
X52845380Y26275095D01*
X52845646Y26210747D01*
X52845691Y26145360D01*
X52845516Y26080236D01*
X52845120Y26016680D01*
X52844503Y25955992D01*
X52843665Y25899477D01*
X52842606Y25848436D01*
X52841327Y25804173D01*
X52839827Y25767989D01*
X52839171Y25756160D01*
X52833493Y25665907D01*
X52827940Y25583973D01*
X52822371Y25508519D01*
X52816643Y25437707D01*
X52810617Y25369700D01*
X52804745Y25308614D01*
X52791793Y25178567D01*
X52820522Y25097794D01*
X52874978Y24930690D01*
X52920101Y24761616D01*
X52956014Y24589912D01*
X52982839Y24414917D01*
X53000698Y24235968D01*
X53008977Y24078490D01*
X53010058Y24046225D01*
X53011131Y24017673D01*
X53012132Y23994293D01*
X53012996Y23977542D01*
X53013659Y23968878D01*
X53013861Y23968000D01*
X53020015Y23969206D01*
X53034781Y23972619D01*
X53056929Y23977930D01*
X53085227Y23984833D01*
X53118445Y23993020D01*
X53155349Y24002182D01*
X53194711Y24012013D01*
X53235298Y24022205D01*
X53275878Y24032450D01*
X53315222Y24042440D01*
X53352097Y24051869D01*
X53385272Y24060427D01*
X53413517Y24067808D01*
X53417320Y24068812D01*
X53673960Y24139314D01*
X53924378Y24213342D01*
X54168010Y24290699D01*
X54404291Y24371190D01*
X54632659Y24454620D01*
X54852549Y24540792D01*
X55063397Y24629512D01*
X55173062Y24678303D01*
X55194875Y24688355D01*
X55222235Y24701204D01*
X55253992Y24716289D01*
X55288999Y24733050D01*
X55326105Y24750927D01*
X55364162Y24769359D01*
X55402022Y24787786D01*
X55438534Y24805648D01*
X55472551Y24822384D01*
X55502923Y24837434D01*
X55528501Y24850237D01*
X55548136Y24860234D01*
X55560680Y24866864D01*
X55564848Y24869377D01*
X55567087Y24875046D01*
X55571341Y24889117D01*
X55577232Y24910123D01*
X55584379Y24936594D01*
X55592402Y24967059D01*
X55600919Y25000050D01*
X55609553Y25034096D01*
X55617921Y25067728D01*
X55625644Y25099476D01*
X55632341Y25127871D01*
X55635077Y25139973D01*
X56011620Y25139973D01*
X56027965Y25149617D01*
X56037233Y25155715D01*
X56052978Y25166754D01*
X56073564Y25181558D01*
X56097354Y25198951D01*
X56120596Y25216178D01*
X56220605Y25294124D01*
X56310922Y25371476D01*
X56391487Y25448167D01*
X56462243Y25524131D01*
X56523131Y25599300D01*
X56574093Y25673607D01*
X56615071Y25746985D01*
X56646007Y25819367D01*
X56647425Y25823344D01*
X56667239Y25893177D01*
X56677155Y25962085D01*
X56677174Y26029726D01*
X56667298Y26095756D01*
X56647530Y26159832D01*
X56645850Y26164050D01*
X56629308Y26200585D01*
X56609739Y26234794D01*
X56585762Y26268622D01*
X56555999Y26304014D01*
X56519069Y26342915D01*
X56518660Y26343328D01*
X56470615Y26388650D01*
X56420569Y26429416D01*
X56366395Y26467128D01*
X56305969Y26503290D01*
X56251214Y26532357D01*
X56225057Y26545230D01*
X56196618Y26558586D01*
X56167408Y26571784D01*
X56138943Y26584186D01*
X56112736Y26595152D01*
X56090301Y26604042D01*
X56073152Y26610217D01*
X56062803Y26613039D01*
X56060525Y26612899D01*
X56060378Y26607361D01*
X56061402Y26593472D01*
X56063434Y26572952D01*
X56066307Y26547522D01*
X56068747Y26527575D01*
X56089249Y26326366D01*
X56100161Y26124662D01*
X56101493Y25923311D01*
X56093253Y25723162D01*
X56075447Y25525064D01*
X56058403Y25395480D01*
X56054293Y25368938D01*
X56049214Y25337876D01*
X56043498Y25304160D01*
X56037479Y25269660D01*
X56031492Y25236243D01*
X56025870Y25205778D01*
X56020946Y25180131D01*
X56017054Y25161171D01*
X56014931Y25152157D01*
X56011620Y25139973D01*
X55635077Y25139973D01*
X55636626Y25146824D01*
X55665689Y25290351D01*
X55688784Y25430507D01*
X55706231Y25570075D01*
X55718354Y25711838D01*
X55725472Y25858580D01*
X55727202Y25931420D01*
X55726757Y26105565D01*
X55719467Y26274056D01*
X55705100Y26438955D01*
X55683423Y26602323D01*
X55654206Y26766218D01*
X55617216Y26932701D01*
X55612287Y26952777D01*
X55559512Y27144672D01*
X55497235Y27333006D01*
X55425508Y27517686D01*
X55344380Y27698617D01*
X55253900Y27875708D01*
X55154118Y28048864D01*
X55045084Y28217992D01*
X54926846Y28383000D01*
X54799454Y28543793D01*
X54715684Y28641568D01*
X54685429Y28674957D01*
X54649218Y28713438D01*
X54608701Y28755368D01*
X54565529Y28799102D01*
X54521351Y28842996D01*
X54477815Y28885405D01*
X54436573Y28924686D01*
X54399274Y28959194D01*
X54377440Y28978711D01*
X54218000Y29112045D01*
X54053509Y29236635D01*
X53884129Y29352395D01*
X53710022Y29459240D01*
X53531350Y29557085D01*
X53348274Y29645846D01*
X53160957Y29725436D01*
X52969561Y29795771D01*
X52774247Y29856766D01*
X52637540Y29893298D01*
X52437739Y29937944D01*
X52236824Y29972672D01*
X52035166Y29997538D01*
X51833139Y30012597D01*
X51631116Y30017904D01*
X51429470Y30013516D01*
X51228574Y29999487D01*
X51028802Y29975873D01*
X50830527Y29942729D01*
X50634121Y29900112D01*
X50439959Y29848076D01*
X50248412Y29786676D01*
X50059855Y29715969D01*
X49874660Y29636010D01*
X49693201Y29546854D01*
X49515851Y29448557D01*
X49472700Y29422863D01*
X49309333Y29319022D01*
X49151701Y29208346D01*
X49000828Y29091607D01*
X48857743Y28969578D01*
X48798087Y28914943D01*
X48777754Y28896273D01*
X48759970Y28880637D01*
X48746038Y28869127D01*
X48737261Y28862831D01*
X48734913Y28862074D01*
X48737334Y28866540D01*
X48746351Y28877022D01*
X48761084Y28892656D01*
X48780655Y28912575D01*
X48804185Y28935914D01*
X48830796Y28961807D01*
X48859608Y28989387D01*
X48889744Y29017791D01*
X48920325Y29046151D01*
X48939749Y29063901D01*
X49095501Y29198509D01*
X49257363Y29325115D01*
X49424990Y29443564D01*
X49598035Y29553697D01*
X49776153Y29655359D01*
X49958997Y29748392D01*
X50146222Y29832639D01*
X50337482Y29907945D01*
X50532430Y29974151D01*
X50730720Y30031102D01*
X50932007Y30078641D01*
X51135944Y30116610D01*
X51319629Y30142255D01*
X51368762Y30147949D01*
X51412522Y30152751D01*
X51452407Y30156734D01*
X51489914Y30159974D01*
X51526541Y30162546D01*
X51563784Y30164524D01*
X51603142Y30165984D01*
X51646111Y30166999D01*
X51694190Y30167646D01*
X51748875Y30167998D01*
X51811664Y30168132D01*
X51837440Y30168140D01*
X51901534Y30168082D01*
D11*
%TO.C,C1*%
X41609420Y-3510000D02*
X41890580Y-3510000D01*
X41609420Y-2490000D02*
X41890580Y-2490000D01*
%TO.C,C2*%
X33240000Y-2859420D02*
X33240000Y-3140580D01*
X34260000Y-2859420D02*
X34260000Y-3140580D01*
%TO.C,C3*%
X34990000Y-2859420D02*
X34990000Y-3140580D01*
X36010000Y-2859420D02*
X36010000Y-3140580D01*
%TO.C,C5*%
X29760000Y-3140580D02*
X29760000Y-2859420D01*
X28740000Y-3140580D02*
X28740000Y-2859420D01*
%TO.C,C6*%
X20109420Y8240000D02*
X20390580Y8240000D01*
X20109420Y9260000D02*
X20390580Y9260000D01*
%TO.C,C7*%
X59609420Y-9260000D02*
X59890580Y-9260000D01*
X59609420Y-8240000D02*
X59890580Y-8240000D01*
%TO.C,C8*%
X45760000Y27859420D02*
X45760000Y28140580D01*
X44740000Y27859420D02*
X44740000Y28140580D01*
%TO.C,C9*%
X43760000Y27859420D02*
X43760000Y28140580D01*
X42740000Y27859420D02*
X42740000Y28140580D01*
%TO.C,C4*%
X30265000Y-2738748D02*
X30265000Y-3261252D01*
X31735000Y-2738748D02*
X31735000Y-3261252D01*
%TO.C,R1*%
X19772500Y11012742D02*
X19772500Y11487258D01*
X18727500Y11012742D02*
X18727500Y11487258D01*
%TO.C,R2*%
X21772500Y11012742D02*
X21772500Y11487258D01*
X20727500Y11012742D02*
X20727500Y11487258D01*
%TO.C,R3*%
X41512742Y2477500D02*
X41987258Y2477500D01*
X41512742Y3522500D02*
X41987258Y3522500D01*
%TO.C,R4*%
X41512742Y477500D02*
X41987258Y477500D01*
X41512742Y1522500D02*
X41987258Y1522500D01*
%TO.C,R5*%
X41512742Y-1522500D02*
X41987258Y-1522500D01*
X41512742Y-477500D02*
X41987258Y-477500D01*
%TO.C,R6*%
X37512742Y4727500D02*
X37987258Y4727500D01*
X37512742Y5772500D02*
X37987258Y5772500D01*
%TO.C,R7*%
X33012742Y4727500D02*
X33487258Y4727500D01*
X33012742Y5772500D02*
X33487258Y5772500D01*
%TO.C,R8*%
X28022500Y3262742D02*
X28022500Y3737258D01*
X26977500Y3262742D02*
X26977500Y3737258D01*
%TO.C,R9*%
X30237258Y-4977500D02*
X29762742Y-4977500D01*
X30237258Y-6022500D02*
X29762742Y-6022500D01*
%TO.C,R10*%
X28022500Y-4987258D02*
X28022500Y-4512742D01*
X26977500Y-4987258D02*
X26977500Y-4512742D01*
%TO.C,R11*%
X20012742Y6477500D02*
X20487258Y6477500D01*
X20012742Y7522500D02*
X20487258Y7522500D01*
%TO.C,R12*%
X11262742Y-7522500D02*
X11737258Y-7522500D01*
X11262742Y-6477500D02*
X11737258Y-6477500D01*
%TO.C,R13*%
X41987258Y-22977500D02*
X41512742Y-22977500D01*
X41987258Y-24022500D02*
X41512742Y-24022500D01*
%TO.C,R14*%
X53262742Y-26772500D02*
X53737258Y-26772500D01*
X53262742Y-25727500D02*
X53737258Y-25727500D01*
%TO.C,R15*%
X60987258Y12022500D02*
X60512742Y12022500D01*
X60987258Y10977500D02*
X60512742Y10977500D01*
%TO.C,R16*%
X60987258Y22022500D02*
X60512742Y22022500D01*
X60987258Y20977500D02*
X60512742Y20977500D01*
%TO.C,R17*%
X60987258Y17022500D02*
X60512742Y17022500D01*
X60987258Y15977500D02*
X60512742Y15977500D01*
%TO.C,R18*%
X29487258Y21022500D02*
X29012742Y21022500D01*
X29487258Y19977500D02*
X29012742Y19977500D01*
%TO.C,R19*%
X29487258Y19272500D02*
X29012742Y19272500D01*
X29487258Y18227500D02*
X29012742Y18227500D01*
%TO.C,R20*%
X44012742Y20777500D02*
X44487258Y20777500D01*
X44012742Y21822500D02*
X44487258Y21822500D01*
%TO.C,R21*%
X44012742Y23777500D02*
X44487258Y23777500D01*
X44012742Y24822500D02*
X44487258Y24822500D01*
D13*
%TO.C,J1*%
X295000Y25655000D02*
X2705000Y25655000D01*
X295000Y-25655000D02*
X295000Y25655000D01*
X3600000Y24130000D02*
G75*
G03*
X3600000Y24130000I-100000J0D01*
G01*
X2705000Y-25655000D02*
X2705000Y25655000D01*
X2705000Y-25655000D02*
X295000Y-25655000D01*
D11*
%TO.C,U6*%
X52000000Y-24150000D02*
X52300000Y-24150000D01*
X52000000Y-10850000D02*
X52250000Y-10850000D01*
X62000000Y-14500000D02*
X62000000Y-10850000D01*
X62000000Y-18500000D02*
X62000000Y-16500000D01*
X65000000Y-16500000D02*
X62000000Y-16500000D01*
X62500000Y-14500000D02*
X62000000Y-14500000D01*
X65000000Y-14500000D02*
X62500000Y-14500000D01*
X65000000Y-16500000D02*
X65000000Y-14500000D01*
X65000000Y-20500000D02*
X62000000Y-20500000D01*
X65000000Y-19500000D02*
X65000000Y-20500000D01*
X65000000Y-18500000D02*
X62000000Y-18500000D01*
X65000000Y-19500000D02*
X65000000Y-18500000D01*
X62000000Y-20500000D02*
X62000000Y-24150000D01*
X61700000Y-10850000D02*
X62000000Y-10850000D01*
X52000000Y-24150000D02*
X52000000Y-10850000D01*
X62000000Y-24150000D02*
X61700000Y-24150000D01*
%TO.C,J2*%
X30087500Y15000000D02*
G75*
G03*
X30087500Y15000000I-1587500J0D01*
G01*
X30087500Y-15000000D02*
G75*
G03*
X30087500Y-15000000I-1587500J0D01*
G01*
X51040000Y3810000D02*
X51040000Y-3810000D01*
X45960000Y3810000D02*
X51040000Y3810000D01*
X45960000Y-3810000D02*
X45960000Y3810000D01*
X51040000Y-3810000D02*
X45960000Y-3810000D01*
%TO.C,U2*%
X26150000Y6350000D02*
X26150000Y8890000D01*
X38850000Y-6350000D02*
X38850000Y-8890000D01*
X32500000Y8890000D02*
X26150000Y8890000D01*
X26150000Y-6350000D02*
X26150000Y-8890000D01*
X26150000Y-8890000D02*
X38850000Y-8890000D01*
X38850000Y6350000D02*
X38850000Y8890000D01*
X38850000Y8890000D02*
X32500000Y8890000D01*
X26150000Y-6350000D02*
X38850000Y-6350000D01*
X26150000Y6350000D02*
X38850000Y6350000D01*
%TO.C,U5*%
X36765250Y-27051000D02*
G75*
G03*
X36765250Y-27051000I-2381250J0D01*
G01*
X36765250Y-12319000D02*
G75*
G03*
X36765250Y-12319000I-2381250J0D01*
G01*
X51497250Y-12319000D02*
G75*
G03*
X51497250Y-12319000I-2381250J0D01*
G01*
X51497250Y-27051000D02*
G75*
G03*
X51497250Y-27051000I-2381250J0D01*
G01*
D14*
X46576000Y-20955000D02*
X46576000Y-20793000D01*
X44544000Y-23495000D02*
X44544000Y-23657000D01*
X44544000Y-20955000D02*
X44544000Y-21117000D01*
X46576000Y-20793000D02*
X46830000Y-20701000D01*
X44290000Y-20701000D02*
X44544000Y-20793000D01*
X46830000Y-21209000D02*
X46576000Y-21117000D01*
X46576000Y-21117000D02*
X46576000Y-20955000D01*
X44290000Y-23241000D02*
X44544000Y-23333000D01*
X44290000Y-21209000D02*
X44290000Y-23241000D01*
X44544000Y-23333000D02*
X44544000Y-23495000D01*
X44544000Y-20793000D02*
X44544000Y-20955000D01*
X44290000Y-18669000D02*
X44290000Y-20701000D01*
X44544000Y-23657000D02*
X44290000Y-23749000D01*
X46830000Y-20701000D02*
X46830000Y-18669000D01*
X44544000Y-21117000D02*
X44290000Y-21209000D01*
X46830000Y-23241000D02*
X46830000Y-21209000D01*
X46830000Y-23749000D02*
X46576000Y-23657000D01*
X46576000Y-23657000D02*
X46576000Y-23495000D01*
X46830000Y-25781000D02*
X46830000Y-23749000D01*
X46576000Y-25873000D02*
X46830000Y-25781000D01*
X44544000Y-25873000D02*
X44544000Y-26035000D01*
X44290000Y-23749000D02*
X44290000Y-25781000D01*
X44290000Y-25781000D02*
X44544000Y-25873000D01*
X44544000Y-26035000D02*
X46576000Y-26035000D01*
X46576000Y-26035000D02*
X46576000Y-25873000D01*
X46576000Y-23495000D02*
X46576000Y-23333000D01*
X46576000Y-23333000D02*
X46830000Y-23241000D01*
X44544000Y-13497000D02*
X44290000Y-13589000D01*
X46576000Y-13497000D02*
X46576000Y-13335000D01*
X44544000Y-18415000D02*
X44544000Y-18577000D01*
X46830000Y-13589000D02*
X46576000Y-13497000D01*
X44544000Y-15713000D02*
X44544000Y-15875000D01*
X44544000Y-13335000D02*
X46576000Y-13335000D01*
X44544000Y-18577000D02*
X44290000Y-18669000D01*
X46576000Y-18577000D02*
X46576000Y-18415000D01*
X46830000Y-16129000D02*
X46576000Y-16037000D01*
X46576000Y-18415000D02*
X46576000Y-18253000D01*
X44290000Y-13589000D02*
X44290000Y-15621000D01*
X44544000Y-16037000D02*
X44290000Y-16129000D01*
X44544000Y-13497000D02*
X44544000Y-13335000D01*
X46830000Y-18669000D02*
X46576000Y-18577000D01*
X44290000Y-16129000D02*
X44290000Y-18161000D01*
X44290000Y-15621000D02*
X44544000Y-15713000D01*
X44544000Y-18253000D02*
X44544000Y-18415000D01*
X46576000Y-15875000D02*
X46576000Y-15713000D01*
X44544000Y-15875000D02*
X44544000Y-16037000D01*
X46830000Y-15621000D02*
X46830000Y-13589000D01*
X46830000Y-18161000D02*
X46830000Y-16129000D01*
X46576000Y-16037000D02*
X46576000Y-15875000D01*
X46576000Y-18253000D02*
X46830000Y-18161000D01*
X44290000Y-18161000D02*
X44544000Y-18253000D01*
X46576000Y-15713000D02*
X46830000Y-15621000D01*
D11*
X51910000Y-29845000D02*
X31590000Y-29845000D01*
X31590000Y-29845000D02*
X31590000Y-9525000D01*
X31590000Y-9525000D02*
X51910000Y-9525000D01*
X51910000Y-9525000D02*
X51910000Y-29845000D01*
D14*
X36924000Y-23333000D02*
X36924000Y-23495000D01*
X39210000Y-21209000D02*
X38956000Y-21117000D01*
X36924000Y-23657000D02*
X36670000Y-23749000D01*
X39210000Y-20701000D02*
X39210000Y-18669000D01*
X39210000Y-23749000D02*
X38956000Y-23657000D01*
X36924000Y-13497000D02*
X36670000Y-13589000D01*
X38956000Y-13497000D02*
X38956000Y-13335000D01*
X36924000Y-26035000D02*
X38956000Y-26035000D01*
X36670000Y-18669000D02*
X36670000Y-20701000D01*
X38956000Y-25873000D02*
X39210000Y-25781000D01*
X36924000Y-20793000D02*
X36924000Y-20955000D01*
X36670000Y-20701000D02*
X36924000Y-20793000D01*
X38956000Y-20793000D02*
X39210000Y-20701000D01*
X36924000Y-25873000D02*
X36924000Y-26035000D01*
X36670000Y-25781000D02*
X36924000Y-25873000D01*
X36924000Y-20955000D02*
X36924000Y-21117000D01*
X38956000Y-26035000D02*
X38956000Y-25873000D01*
X38956000Y-20955000D02*
X38956000Y-20793000D01*
X39210000Y-25781000D02*
X39210000Y-23749000D01*
X36670000Y-23749000D02*
X36670000Y-25781000D01*
X38956000Y-23657000D02*
X38956000Y-23495000D01*
X38956000Y-23333000D02*
X39210000Y-23241000D01*
X38956000Y-23495000D02*
X38956000Y-23333000D01*
X39210000Y-23241000D02*
X39210000Y-21209000D01*
X36670000Y-23241000D02*
X36924000Y-23333000D01*
X36924000Y-23495000D02*
X36924000Y-23657000D01*
X38956000Y-21117000D02*
X38956000Y-20955000D01*
X36670000Y-21209000D02*
X36670000Y-23241000D01*
X36924000Y-21117000D02*
X36670000Y-21209000D01*
X38956000Y-18415000D02*
X38956000Y-18253000D01*
X38956000Y-18253000D02*
X39210000Y-18161000D01*
X36670000Y-16129000D02*
X36670000Y-18161000D01*
X39210000Y-18161000D02*
X39210000Y-16129000D01*
X36924000Y-18415000D02*
X36924000Y-18577000D01*
X38956000Y-18577000D02*
X38956000Y-18415000D01*
X39210000Y-16129000D02*
X38956000Y-16037000D01*
X36924000Y-18253000D02*
X36924000Y-18415000D01*
X36924000Y-13335000D02*
X38956000Y-13335000D01*
X39210000Y-13589000D02*
X38956000Y-13497000D01*
X36670000Y-15621000D02*
X36924000Y-15713000D01*
X36670000Y-13589000D02*
X36670000Y-15621000D01*
X36924000Y-15713000D02*
X36924000Y-15875000D01*
X38956000Y-15875000D02*
X38956000Y-15713000D01*
X36924000Y-13497000D02*
X36924000Y-13335000D01*
X39210000Y-18669000D02*
X38956000Y-18577000D01*
X36924000Y-18577000D02*
X36670000Y-18669000D01*
X39210000Y-15621000D02*
X39210000Y-13589000D01*
X38956000Y-15713000D02*
X39210000Y-15621000D01*
X36670000Y-18161000D02*
X36924000Y-18253000D01*
X38956000Y-16037000D02*
X38956000Y-15875000D01*
X36924000Y-16037000D02*
X36670000Y-16129000D01*
X36924000Y-15875000D02*
X36924000Y-16037000D01*
D11*
%TO.C,BT1*%
X41705164Y14489199D02*
X38366101Y14489199D01*
X37731101Y13854199D02*
X37731100Y10145801D01*
X38366100Y9510800D02*
X41705164Y9510800D01*
X54575291Y17325291D02*
G75*
G02*
X54575291Y6674709I-5325291J-5325291D01*
G01*
X42291854Y14881260D02*
G75*
G02*
X54575291Y17325291I6958146J-2881260D01*
G01*
X42291853Y14881260D02*
G75*
G02*
X41705164Y14489200I-586689J242939D01*
G01*
X37731100Y13854199D02*
G75*
G02*
X38366101Y14489200I635001J0D01*
G01*
X38366100Y9510800D02*
G75*
G02*
X37731100Y10145800I0J635000D01*
G01*
X41705164Y9510801D02*
G75*
G02*
X42291854Y9118740I0J-635000D01*
G01*
X54575291Y6674709D02*
G75*
G02*
X42291854Y9118740I-5325291J5325291D01*
G01*
D10*
%TO.C,U1*%
X7620000Y31115000D02*
X25400000Y31115000D01*
X7620000Y-29845000D02*
X7620000Y31115000D01*
X25400000Y-29845000D02*
X7620000Y-29845000D01*
X25400000Y31115000D02*
X25400000Y-29845000D01*
D11*
%TO.C,D1*%
X28500000Y1250000D02*
X28500000Y5150000D01*
X30500000Y1250000D02*
X30500000Y5150000D01*
X28500000Y1250000D02*
X30500000Y1250000D01*
%TO.C,D2*%
X27000000Y1000000D02*
X27000000Y-1000000D01*
X27000000Y-1000000D02*
X30900000Y-1000000D01*
X27000000Y1000000D02*
X30900000Y1000000D01*
%TO.C,JP2*%
X55940000Y-1170000D02*
X55940000Y-6370000D01*
X55940000Y-6370000D02*
X58600000Y-6370000D01*
X58600000Y-6370000D02*
X58600000Y-1170000D01*
X58600000Y-1170000D02*
X55940000Y-1170000D01*
X58600000Y-2120000D02*
X64600000Y-2120000D01*
X64600000Y-2120000D02*
X64600000Y-2880000D01*
X64600000Y-2880000D02*
X58600000Y-2880000D01*
X58600000Y-2180000D02*
X64600000Y-2180000D01*
X58600000Y-2300000D02*
X64600000Y-2300000D01*
X58600000Y-2420000D02*
X64600000Y-2420000D01*
X58600000Y-2540000D02*
X64600000Y-2540000D01*
X58600000Y-2660000D02*
X64600000Y-2660000D01*
X58600000Y-2780000D02*
X64600000Y-2780000D01*
X55610000Y-2120000D02*
X55940000Y-2120000D01*
X55610000Y-2880000D02*
X55940000Y-2880000D01*
X55940000Y-3770000D02*
X58600000Y-3770000D01*
X58600000Y-4660000D02*
X64600000Y-4660000D01*
X64600000Y-4660000D02*
X64600000Y-5420000D01*
X64600000Y-5420000D02*
X58600000Y-5420000D01*
X55542929Y-4660000D02*
X55940000Y-4660000D01*
X55542929Y-5420000D02*
X55940000Y-5420000D01*
X53230000Y-2500000D02*
X53230000Y-1230000D01*
X53230000Y-1230000D02*
X54500000Y-1230000D01*
%TO.C,U3*%
X35500000Y-1060000D02*
X38950000Y-1060000D01*
X35500000Y-1060000D02*
X33550000Y-1060000D01*
X35500000Y4060000D02*
X37450000Y4060000D01*
X35500000Y4060000D02*
X33550000Y4060000D01*
%TO.C,U4*%
X21505000Y3860000D02*
X21505000Y5675000D01*
X21760000Y3860000D02*
X21505000Y3860000D01*
X21760000Y0D02*
X21760000Y3860000D01*
X21760000Y-3860000D02*
X21505000Y-3860000D01*
X21760000Y0D02*
X21760000Y-3860000D01*
X11240000Y3860000D02*
X11495000Y3860000D01*
X11240000Y0D02*
X11240000Y3860000D01*
X11240000Y-3860000D02*
X11495000Y-3860000D01*
X11240000Y0D02*
X11240000Y-3860000D01*
%TO.C,U7*%
X6860000Y16880000D02*
X6860000Y19330000D01*
X3640000Y18680000D02*
X3640000Y16880000D01*
%TO.C,U8*%
X3640000Y8520000D02*
X3640000Y6720000D01*
X6860000Y6720000D02*
X6860000Y9170000D01*
%TO.C,U9*%
X6860000Y-3440000D02*
X6860000Y-990000D01*
X3640000Y-1640000D02*
X3640000Y-3440000D01*
%TO.C,U10*%
X41550000Y32500000D02*
X41550000Y32100000D01*
X31950000Y32500000D02*
X41550000Y32500000D01*
X31950000Y32100000D02*
X31950000Y32500000D01*
X31950000Y18500000D02*
X31950000Y18800000D01*
X41550000Y18500000D02*
X41550000Y18800000D01*
X41550000Y18500000D02*
X39250000Y18500000D01*
X31950000Y18500000D02*
X34250000Y18500000D01*
%TO.C,FB1*%
X36412779Y-6010000D02*
X36087221Y-6010000D01*
X36412779Y-4990000D02*
X36087221Y-4990000D01*
%TO.C,SW1*%
X60180000Y6700000D02*
X60180000Y3300000D01*
X60180000Y8340000D02*
X60180000Y7800000D01*
X57350000Y1140000D02*
X56840000Y1140000D01*
X56840000Y1660000D02*
X56840000Y1140000D01*
X57350000Y1660000D02*
X56840000Y1660000D01*
X60180000Y2200000D02*
X60180000Y1660000D01*
X57350000Y8860000D02*
X56840000Y8860000D01*
X57350000Y8340000D02*
X56840000Y8340000D01*
X60180000Y1660000D02*
X59950000Y1660000D01*
X63850000Y8860000D02*
X59950000Y8860000D01*
X56840000Y8860000D02*
X56840000Y8340000D01*
X63850000Y1140000D02*
X59950000Y1140000D01*
X63850000Y8860000D02*
X63850000Y1140000D01*
X60180000Y8340000D02*
X59950000Y8340000D01*
%TO.C,JP1*%
X4550000Y-13750000D02*
X5950000Y-13750000D01*
X6650000Y-14450000D02*
X6650000Y-15050000D01*
X5950000Y-15750000D02*
X4550000Y-15750000D01*
X3850000Y-15050000D02*
X3850000Y-14450000D01*
X3850000Y-14450000D02*
G75*
G02*
X4550000Y-13750000I700000J0D01*
G01*
X4550000Y-15750000D02*
G75*
G02*
X3850000Y-15050000I0J700000D01*
G01*
X6650000Y-15050000D02*
G75*
G02*
X5950000Y-15750000I-700000J0D01*
G01*
X5950000Y-13750000D02*
G75*
G02*
X6650000Y-14450000I0J-700000D01*
G01*
%TO.C,JP3*%
X36550000Y10600000D02*
X35950000Y10600000D01*
X37250000Y12700000D02*
X37250000Y11300000D01*
X35950000Y13400000D02*
X36550000Y13400000D01*
X35250000Y11300000D02*
X35250000Y12700000D01*
X35250000Y12700000D02*
G75*
G02*
X35950000Y13400000I700000J0D01*
G01*
X36550000Y13400000D02*
G75*
G02*
X37250000Y12700000I0J-700000D01*
G01*
X37250000Y11300000D02*
G75*
G02*
X36550000Y10600000I-700000J0D01*
G01*
X35950000Y10600000D02*
G75*
G02*
X35250000Y11300000I0J700000D01*
G01*
%TO.C,D3*%
X62610000Y14460000D02*
X59750000Y14460000D01*
X62610000Y12540000D02*
X62610000Y14460000D01*
X59750000Y12540000D02*
X62610000Y12540000D01*
%TO.C,D4*%
X59750000Y22540000D02*
X62610000Y22540000D01*
X62610000Y22540000D02*
X62610000Y24460000D01*
X62610000Y24460000D02*
X59750000Y24460000D01*
%TO.C,D5*%
X59750000Y17540000D02*
X62610000Y17540000D01*
X62610000Y17540000D02*
X62610000Y19460000D01*
X62610000Y19460000D02*
X59750000Y19460000D01*
D10*
%TO.C,TP1*%
X43500000Y6000000D02*
G75*
G03*
X43500000Y6000000I-1750000J0D01*
G01*
%TO.C,TP2*%
X43500000Y-6000000D02*
G75*
G03*
X43500000Y-6000000I-1750000J0D01*
G01*
%TO.C,C1*%
X43866666Y-3285714D02*
X43828571Y-3323809D01*
X43714285Y-3361904D01*
X43638095Y-3361904D01*
X43523809Y-3323809D01*
X43447619Y-3247619D01*
X43409523Y-3171428D01*
X43371428Y-3019047D01*
X43371428Y-2904761D01*
X43409523Y-2752380D01*
X43447619Y-2676190D01*
X43523809Y-2600000D01*
X43638095Y-2561904D01*
X43714285Y-2561904D01*
X43828571Y-2600000D01*
X43866666Y-2638095D01*
X44628571Y-3361904D02*
X44171428Y-3361904D01*
X44400000Y-3361904D02*
X44400000Y-2561904D01*
X44323809Y-2676190D01*
X44247619Y-2752380D01*
X44171428Y-2790476D01*
%TO.C,C2*%
X34035714Y-5133333D02*
X34073809Y-5171428D01*
X34111904Y-5285714D01*
X34111904Y-5361904D01*
X34073809Y-5476190D01*
X33997619Y-5552380D01*
X33921428Y-5590476D01*
X33769047Y-5628571D01*
X33654761Y-5628571D01*
X33502380Y-5590476D01*
X33426190Y-5552380D01*
X33350000Y-5476190D01*
X33311904Y-5361904D01*
X33311904Y-5285714D01*
X33350000Y-5171428D01*
X33388095Y-5133333D01*
X33388095Y-4828571D02*
X33350000Y-4790476D01*
X33311904Y-4714285D01*
X33311904Y-4523809D01*
X33350000Y-4447619D01*
X33388095Y-4409523D01*
X33464285Y-4371428D01*
X33540476Y-4371428D01*
X33654761Y-4409523D01*
X34111904Y-4866666D01*
X34111904Y-4371428D01*
%TO.C,C3*%
X37035714Y-3133333D02*
X37073809Y-3171428D01*
X37111904Y-3285714D01*
X37111904Y-3361904D01*
X37073809Y-3476190D01*
X36997619Y-3552380D01*
X36921428Y-3590476D01*
X36769047Y-3628571D01*
X36654761Y-3628571D01*
X36502380Y-3590476D01*
X36426190Y-3552380D01*
X36350000Y-3476190D01*
X36311904Y-3361904D01*
X36311904Y-3285714D01*
X36350000Y-3171428D01*
X36388095Y-3133333D01*
X36311904Y-2866666D02*
X36311904Y-2371428D01*
X36616666Y-2638095D01*
X36616666Y-2523809D01*
X36654761Y-2447619D01*
X36692857Y-2409523D01*
X36769047Y-2371428D01*
X36959523Y-2371428D01*
X37035714Y-2409523D01*
X37073809Y-2447619D01*
X37111904Y-2523809D01*
X37111904Y-2752380D01*
X37073809Y-2828571D01*
X37035714Y-2866666D01*
%TO.C,C5*%
X28285714Y-2633333D02*
X28323809Y-2671428D01*
X28361904Y-2785714D01*
X28361904Y-2861904D01*
X28323809Y-2976190D01*
X28247619Y-3052380D01*
X28171428Y-3090476D01*
X28019047Y-3128571D01*
X27904761Y-3128571D01*
X27752380Y-3090476D01*
X27676190Y-3052380D01*
X27600000Y-2976190D01*
X27561904Y-2861904D01*
X27561904Y-2785714D01*
X27600000Y-2671428D01*
X27638095Y-2633333D01*
X27561904Y-1909523D02*
X27561904Y-2290476D01*
X27942857Y-2328571D01*
X27904761Y-2290476D01*
X27866666Y-2214285D01*
X27866666Y-2023809D01*
X27904761Y-1947619D01*
X27942857Y-1909523D01*
X28019047Y-1871428D01*
X28209523Y-1871428D01*
X28285714Y-1909523D01*
X28323809Y-1947619D01*
X28361904Y-2023809D01*
X28361904Y-2214285D01*
X28323809Y-2290476D01*
X28285714Y-2328571D01*
%TO.C,C6*%
X17866666Y8464285D02*
X17828571Y8426190D01*
X17714285Y8388095D01*
X17638095Y8388095D01*
X17523809Y8426190D01*
X17447619Y8502380D01*
X17409523Y8578571D01*
X17371428Y8730952D01*
X17371428Y8845238D01*
X17409523Y8997619D01*
X17447619Y9073809D01*
X17523809Y9150000D01*
X17638095Y9188095D01*
X17714285Y9188095D01*
X17828571Y9150000D01*
X17866666Y9111904D01*
X18552380Y9188095D02*
X18400000Y9188095D01*
X18323809Y9150000D01*
X18285714Y9111904D01*
X18209523Y8997619D01*
X18171428Y8845238D01*
X18171428Y8540476D01*
X18209523Y8464285D01*
X18247619Y8426190D01*
X18323809Y8388095D01*
X18476190Y8388095D01*
X18552380Y8426190D01*
X18590476Y8464285D01*
X18628571Y8540476D01*
X18628571Y8730952D01*
X18590476Y8807142D01*
X18552380Y8845238D01*
X18476190Y8883333D01*
X18323809Y8883333D01*
X18247619Y8845238D01*
X18209523Y8807142D01*
X18171428Y8730952D01*
%TO.C,C7*%
X57366666Y-9035714D02*
X57328571Y-9073809D01*
X57214285Y-9111904D01*
X57138095Y-9111904D01*
X57023809Y-9073809D01*
X56947619Y-8997619D01*
X56909523Y-8921428D01*
X56871428Y-8769047D01*
X56871428Y-8654761D01*
X56909523Y-8502380D01*
X56947619Y-8426190D01*
X57023809Y-8350000D01*
X57138095Y-8311904D01*
X57214285Y-8311904D01*
X57328571Y-8350000D01*
X57366666Y-8388095D01*
X57633333Y-8311904D02*
X58166666Y-8311904D01*
X57823809Y-9111904D01*
%TO.C,C8*%
X45535714Y30116666D02*
X45573809Y30078571D01*
X45611904Y29964285D01*
X45611904Y29888095D01*
X45573809Y29773809D01*
X45497619Y29697619D01*
X45421428Y29659523D01*
X45269047Y29621428D01*
X45154761Y29621428D01*
X45002380Y29659523D01*
X44926190Y29697619D01*
X44850000Y29773809D01*
X44811904Y29888095D01*
X44811904Y29964285D01*
X44850000Y30078571D01*
X44888095Y30116666D01*
X45154761Y30573809D02*
X45116666Y30497619D01*
X45078571Y30459523D01*
X45002380Y30421428D01*
X44964285Y30421428D01*
X44888095Y30459523D01*
X44850000Y30497619D01*
X44811904Y30573809D01*
X44811904Y30726190D01*
X44850000Y30802380D01*
X44888095Y30840476D01*
X44964285Y30878571D01*
X45002380Y30878571D01*
X45078571Y30840476D01*
X45116666Y30802380D01*
X45154761Y30726190D01*
X45154761Y30573809D01*
X45192857Y30497619D01*
X45230952Y30459523D01*
X45307142Y30421428D01*
X45459523Y30421428D01*
X45535714Y30459523D01*
X45573809Y30497619D01*
X45611904Y30573809D01*
X45611904Y30726190D01*
X45573809Y30802380D01*
X45535714Y30840476D01*
X45459523Y30878571D01*
X45307142Y30878571D01*
X45230952Y30840476D01*
X45192857Y30802380D01*
X45154761Y30726190D01*
%TO.C,C9*%
X43535714Y30116666D02*
X43573809Y30078571D01*
X43611904Y29964285D01*
X43611904Y29888095D01*
X43573809Y29773809D01*
X43497619Y29697619D01*
X43421428Y29659523D01*
X43269047Y29621428D01*
X43154761Y29621428D01*
X43002380Y29659523D01*
X42926190Y29697619D01*
X42850000Y29773809D01*
X42811904Y29888095D01*
X42811904Y29964285D01*
X42850000Y30078571D01*
X42888095Y30116666D01*
X43611904Y30497619D02*
X43611904Y30650000D01*
X43573809Y30726190D01*
X43535714Y30764285D01*
X43421428Y30840476D01*
X43269047Y30878571D01*
X42964285Y30878571D01*
X42888095Y30840476D01*
X42850000Y30802380D01*
X42811904Y30726190D01*
X42811904Y30573809D01*
X42850000Y30497619D01*
X42888095Y30459523D01*
X42964285Y30421428D01*
X43154761Y30421428D01*
X43230952Y30459523D01*
X43269047Y30497619D01*
X43307142Y30573809D01*
X43307142Y30726190D01*
X43269047Y30802380D01*
X43230952Y30840476D01*
X43154761Y30878571D01*
%TO.C,C4*%
X32785714Y-3133333D02*
X32823809Y-3171428D01*
X32861904Y-3285714D01*
X32861904Y-3361904D01*
X32823809Y-3476190D01*
X32747619Y-3552380D01*
X32671428Y-3590476D01*
X32519047Y-3628571D01*
X32404761Y-3628571D01*
X32252380Y-3590476D01*
X32176190Y-3552380D01*
X32100000Y-3476190D01*
X32061904Y-3361904D01*
X32061904Y-3285714D01*
X32100000Y-3171428D01*
X32138095Y-3133333D01*
X32328571Y-2447619D02*
X32861904Y-2447619D01*
X32023809Y-2638095D02*
X32595238Y-2828571D01*
X32595238Y-2333333D01*
%TO.C,R1*%
X19611904Y13366666D02*
X19230952Y13100000D01*
X19611904Y12909523D02*
X18811904Y12909523D01*
X18811904Y13214285D01*
X18850000Y13290476D01*
X18888095Y13328571D01*
X18964285Y13366666D01*
X19078571Y13366666D01*
X19154761Y13328571D01*
X19192857Y13290476D01*
X19230952Y13214285D01*
X19230952Y12909523D01*
X19611904Y14128571D02*
X19611904Y13671428D01*
X19611904Y13900000D02*
X18811904Y13900000D01*
X18926190Y13823809D01*
X19002380Y13747619D01*
X19040476Y13671428D01*
%TO.C,R2*%
X21611904Y13366666D02*
X21230952Y13100000D01*
X21611904Y12909523D02*
X20811904Y12909523D01*
X20811904Y13214285D01*
X20850000Y13290476D01*
X20888095Y13328571D01*
X20964285Y13366666D01*
X21078571Y13366666D01*
X21154761Y13328571D01*
X21192857Y13290476D01*
X21230952Y13214285D01*
X21230952Y12909523D01*
X20888095Y13671428D02*
X20850000Y13709523D01*
X20811904Y13785714D01*
X20811904Y13976190D01*
X20850000Y14052380D01*
X20888095Y14090476D01*
X20964285Y14128571D01*
X21040476Y14128571D01*
X21154761Y14090476D01*
X21611904Y13633333D01*
X21611904Y14128571D01*
%TO.C,R3*%
X43866666Y2638095D02*
X43600000Y3019047D01*
X43409523Y2638095D02*
X43409523Y3438095D01*
X43714285Y3438095D01*
X43790476Y3400000D01*
X43828571Y3361904D01*
X43866666Y3285714D01*
X43866666Y3171428D01*
X43828571Y3095238D01*
X43790476Y3057142D01*
X43714285Y3019047D01*
X43409523Y3019047D01*
X44133333Y3438095D02*
X44628571Y3438095D01*
X44361904Y3133333D01*
X44476190Y3133333D01*
X44552380Y3095238D01*
X44590476Y3057142D01*
X44628571Y2980952D01*
X44628571Y2790476D01*
X44590476Y2714285D01*
X44552380Y2676190D01*
X44476190Y2638095D01*
X44247619Y2638095D01*
X44171428Y2676190D01*
X44133333Y2714285D01*
%TO.C,R4*%
X43866666Y638095D02*
X43600000Y1019047D01*
X43409523Y638095D02*
X43409523Y1438095D01*
X43714285Y1438095D01*
X43790476Y1400000D01*
X43828571Y1361904D01*
X43866666Y1285714D01*
X43866666Y1171428D01*
X43828571Y1095238D01*
X43790476Y1057142D01*
X43714285Y1019047D01*
X43409523Y1019047D01*
X44552380Y1171428D02*
X44552380Y638095D01*
X44361904Y1476190D02*
X44171428Y904761D01*
X44666666Y904761D01*
%TO.C,R5*%
X43866666Y-1361904D02*
X43600000Y-980952D01*
X43409523Y-1361904D02*
X43409523Y-561904D01*
X43714285Y-561904D01*
X43790476Y-600000D01*
X43828571Y-638095D01*
X43866666Y-714285D01*
X43866666Y-828571D01*
X43828571Y-904761D01*
X43790476Y-942857D01*
X43714285Y-980952D01*
X43409523Y-980952D01*
X44590476Y-561904D02*
X44209523Y-561904D01*
X44171428Y-942857D01*
X44209523Y-904761D01*
X44285714Y-866666D01*
X44476190Y-866666D01*
X44552380Y-904761D01*
X44590476Y-942857D01*
X44628571Y-1019047D01*
X44628571Y-1209523D01*
X44590476Y-1285714D01*
X44552380Y-1323809D01*
X44476190Y-1361904D01*
X44285714Y-1361904D01*
X44209523Y-1323809D01*
X44171428Y-1285714D01*
%TO.C,R6*%
X36111904Y5116666D02*
X35730952Y4850000D01*
X36111904Y4659523D02*
X35311904Y4659523D01*
X35311904Y4964285D01*
X35350000Y5040476D01*
X35388095Y5078571D01*
X35464285Y5116666D01*
X35578571Y5116666D01*
X35654761Y5078571D01*
X35692857Y5040476D01*
X35730952Y4964285D01*
X35730952Y4659523D01*
X35311904Y5802380D02*
X35311904Y5650000D01*
X35350000Y5573809D01*
X35388095Y5535714D01*
X35502380Y5459523D01*
X35654761Y5421428D01*
X35959523Y5421428D01*
X36035714Y5459523D01*
X36073809Y5497619D01*
X36111904Y5573809D01*
X36111904Y5726190D01*
X36073809Y5802380D01*
X36035714Y5840476D01*
X35959523Y5878571D01*
X35769047Y5878571D01*
X35692857Y5840476D01*
X35654761Y5802380D01*
X35616666Y5726190D01*
X35616666Y5573809D01*
X35654761Y5497619D01*
X35692857Y5459523D01*
X35769047Y5421428D01*
%TO.C,R7*%
X31611904Y5116666D02*
X31230952Y4850000D01*
X31611904Y4659523D02*
X30811904Y4659523D01*
X30811904Y4964285D01*
X30850000Y5040476D01*
X30888095Y5078571D01*
X30964285Y5116666D01*
X31078571Y5116666D01*
X31154761Y5078571D01*
X31192857Y5040476D01*
X31230952Y4964285D01*
X31230952Y4659523D01*
X30811904Y5383333D02*
X30811904Y5916666D01*
X31611904Y5573809D01*
%TO.C,R8*%
X26611904Y3366666D02*
X26230952Y3100000D01*
X26611904Y2909523D02*
X25811904Y2909523D01*
X25811904Y3214285D01*
X25850000Y3290476D01*
X25888095Y3328571D01*
X25964285Y3366666D01*
X26078571Y3366666D01*
X26154761Y3328571D01*
X26192857Y3290476D01*
X26230952Y3214285D01*
X26230952Y2909523D01*
X26154761Y3823809D02*
X26116666Y3747619D01*
X26078571Y3709523D01*
X26002380Y3671428D01*
X25964285Y3671428D01*
X25888095Y3709523D01*
X25850000Y3747619D01*
X25811904Y3823809D01*
X25811904Y3976190D01*
X25850000Y4052380D01*
X25888095Y4090476D01*
X25964285Y4128571D01*
X26002380Y4128571D01*
X26078571Y4090476D01*
X26116666Y4052380D01*
X26154761Y3976190D01*
X26154761Y3823809D01*
X26192857Y3747619D01*
X26230952Y3709523D01*
X26307142Y3671428D01*
X26459523Y3671428D01*
X26535714Y3709523D01*
X26573809Y3747619D01*
X26611904Y3823809D01*
X26611904Y3976190D01*
X26573809Y4052380D01*
X26535714Y4090476D01*
X26459523Y4128571D01*
X26307142Y4128571D01*
X26230952Y4090476D01*
X26192857Y4052380D01*
X26154761Y3976190D01*
%TO.C,R9*%
X32116666Y-5861904D02*
X31850000Y-5480952D01*
X31659523Y-5861904D02*
X31659523Y-5061904D01*
X31964285Y-5061904D01*
X32040476Y-5100000D01*
X32078571Y-5138095D01*
X32116666Y-5214285D01*
X32116666Y-5328571D01*
X32078571Y-5404761D01*
X32040476Y-5442857D01*
X31964285Y-5480952D01*
X31659523Y-5480952D01*
X32497619Y-5861904D02*
X32650000Y-5861904D01*
X32726190Y-5823809D01*
X32764285Y-5785714D01*
X32840476Y-5671428D01*
X32878571Y-5519047D01*
X32878571Y-5214285D01*
X32840476Y-5138095D01*
X32802380Y-5100000D01*
X32726190Y-5061904D01*
X32573809Y-5061904D01*
X32497619Y-5100000D01*
X32459523Y-5138095D01*
X32421428Y-5214285D01*
X32421428Y-5404761D01*
X32459523Y-5480952D01*
X32497619Y-5519047D01*
X32573809Y-5557142D01*
X32726190Y-5557142D01*
X32802380Y-5519047D01*
X32840476Y-5480952D01*
X32878571Y-5404761D01*
%TO.C,R10*%
X26611904Y-5014285D02*
X26230952Y-5280952D01*
X26611904Y-5471428D02*
X25811904Y-5471428D01*
X25811904Y-5166666D01*
X25850000Y-5090476D01*
X25888095Y-5052380D01*
X25964285Y-5014285D01*
X26078571Y-5014285D01*
X26154761Y-5052380D01*
X26192857Y-5090476D01*
X26230952Y-5166666D01*
X26230952Y-5471428D01*
X26611904Y-4252380D02*
X26611904Y-4709523D01*
X26611904Y-4480952D02*
X25811904Y-4480952D01*
X25926190Y-4557142D01*
X26002380Y-4633333D01*
X26040476Y-4709523D01*
X25811904Y-3757142D02*
X25811904Y-3680952D01*
X25850000Y-3604761D01*
X25888095Y-3566666D01*
X25964285Y-3528571D01*
X26116666Y-3490476D01*
X26307142Y-3490476D01*
X26459523Y-3528571D01*
X26535714Y-3566666D01*
X26573809Y-3604761D01*
X26611904Y-3680952D01*
X26611904Y-3757142D01*
X26573809Y-3833333D01*
X26535714Y-3871428D01*
X26459523Y-3909523D01*
X26307142Y-3947619D01*
X26116666Y-3947619D01*
X25964285Y-3909523D01*
X25888095Y-3871428D01*
X25850000Y-3833333D01*
X25811904Y-3757142D01*
%TO.C,R11*%
X17235714Y6638095D02*
X16969047Y7019047D01*
X16778571Y6638095D02*
X16778571Y7438095D01*
X17083333Y7438095D01*
X17159523Y7400000D01*
X17197619Y7361904D01*
X17235714Y7285714D01*
X17235714Y7171428D01*
X17197619Y7095238D01*
X17159523Y7057142D01*
X17083333Y7019047D01*
X16778571Y7019047D01*
X17997619Y6638095D02*
X17540476Y6638095D01*
X17769047Y6638095D02*
X17769047Y7438095D01*
X17692857Y7323809D01*
X17616666Y7247619D01*
X17540476Y7209523D01*
X18759523Y6638095D02*
X18302380Y6638095D01*
X18530952Y6638095D02*
X18530952Y7438095D01*
X18454761Y7323809D01*
X18378571Y7247619D01*
X18302380Y7209523D01*
%TO.C,R12*%
X13485714Y-7361904D02*
X13219047Y-6980952D01*
X13028571Y-7361904D02*
X13028571Y-6561904D01*
X13333333Y-6561904D01*
X13409523Y-6600000D01*
X13447619Y-6638095D01*
X13485714Y-6714285D01*
X13485714Y-6828571D01*
X13447619Y-6904761D01*
X13409523Y-6942857D01*
X13333333Y-6980952D01*
X13028571Y-6980952D01*
X14247619Y-7361904D02*
X13790476Y-7361904D01*
X14019047Y-7361904D02*
X14019047Y-6561904D01*
X13942857Y-6676190D01*
X13866666Y-6752380D01*
X13790476Y-6790476D01*
X14552380Y-6638095D02*
X14590476Y-6600000D01*
X14666666Y-6561904D01*
X14857142Y-6561904D01*
X14933333Y-6600000D01*
X14971428Y-6638095D01*
X15009523Y-6714285D01*
X15009523Y-6790476D01*
X14971428Y-6904761D01*
X14514285Y-7361904D01*
X15009523Y-7361904D01*
%TO.C,R13*%
X41235714Y-25111904D02*
X40969047Y-24730952D01*
X40778571Y-25111904D02*
X40778571Y-24311904D01*
X41083333Y-24311904D01*
X41159523Y-24350000D01*
X41197619Y-24388095D01*
X41235714Y-24464285D01*
X41235714Y-24578571D01*
X41197619Y-24654761D01*
X41159523Y-24692857D01*
X41083333Y-24730952D01*
X40778571Y-24730952D01*
X41997619Y-25111904D02*
X41540476Y-25111904D01*
X41769047Y-25111904D02*
X41769047Y-24311904D01*
X41692857Y-24426190D01*
X41616666Y-24502380D01*
X41540476Y-24540476D01*
X42264285Y-24311904D02*
X42759523Y-24311904D01*
X42492857Y-24616666D01*
X42607142Y-24616666D01*
X42683333Y-24654761D01*
X42721428Y-24692857D01*
X42759523Y-24769047D01*
X42759523Y-24959523D01*
X42721428Y-25035714D01*
X42683333Y-25073809D01*
X42607142Y-25111904D01*
X42378571Y-25111904D01*
X42302380Y-25073809D01*
X42264285Y-25035714D01*
%TO.C,R14*%
X52985714Y-27861904D02*
X52719047Y-27480952D01*
X52528571Y-27861904D02*
X52528571Y-27061904D01*
X52833333Y-27061904D01*
X52909523Y-27100000D01*
X52947619Y-27138095D01*
X52985714Y-27214285D01*
X52985714Y-27328571D01*
X52947619Y-27404761D01*
X52909523Y-27442857D01*
X52833333Y-27480952D01*
X52528571Y-27480952D01*
X53747619Y-27861904D02*
X53290476Y-27861904D01*
X53519047Y-27861904D02*
X53519047Y-27061904D01*
X53442857Y-27176190D01*
X53366666Y-27252380D01*
X53290476Y-27290476D01*
X54433333Y-27328571D02*
X54433333Y-27861904D01*
X54242857Y-27023809D02*
X54052380Y-27595238D01*
X54547619Y-27595238D01*
%TO.C,R15*%
X60235714Y9888095D02*
X59969047Y10269047D01*
X59778571Y9888095D02*
X59778571Y10688095D01*
X60083333Y10688095D01*
X60159523Y10650000D01*
X60197619Y10611904D01*
X60235714Y10535714D01*
X60235714Y10421428D01*
X60197619Y10345238D01*
X60159523Y10307142D01*
X60083333Y10269047D01*
X59778571Y10269047D01*
X60997619Y9888095D02*
X60540476Y9888095D01*
X60769047Y9888095D02*
X60769047Y10688095D01*
X60692857Y10573809D01*
X60616666Y10497619D01*
X60540476Y10459523D01*
X61721428Y10688095D02*
X61340476Y10688095D01*
X61302380Y10307142D01*
X61340476Y10345238D01*
X61416666Y10383333D01*
X61607142Y10383333D01*
X61683333Y10345238D01*
X61721428Y10307142D01*
X61759523Y10230952D01*
X61759523Y10040476D01*
X61721428Y9964285D01*
X61683333Y9926190D01*
X61607142Y9888095D01*
X61416666Y9888095D01*
X61340476Y9926190D01*
X61302380Y9964285D01*
%TO.C,R16*%
X60235714Y19888095D02*
X59969047Y20269047D01*
X59778571Y19888095D02*
X59778571Y20688095D01*
X60083333Y20688095D01*
X60159523Y20650000D01*
X60197619Y20611904D01*
X60235714Y20535714D01*
X60235714Y20421428D01*
X60197619Y20345238D01*
X60159523Y20307142D01*
X60083333Y20269047D01*
X59778571Y20269047D01*
X60997619Y19888095D02*
X60540476Y19888095D01*
X60769047Y19888095D02*
X60769047Y20688095D01*
X60692857Y20573809D01*
X60616666Y20497619D01*
X60540476Y20459523D01*
X61683333Y20688095D02*
X61530952Y20688095D01*
X61454761Y20650000D01*
X61416666Y20611904D01*
X61340476Y20497619D01*
X61302380Y20345238D01*
X61302380Y20040476D01*
X61340476Y19964285D01*
X61378571Y19926190D01*
X61454761Y19888095D01*
X61607142Y19888095D01*
X61683333Y19926190D01*
X61721428Y19964285D01*
X61759523Y20040476D01*
X61759523Y20230952D01*
X61721428Y20307142D01*
X61683333Y20345238D01*
X61607142Y20383333D01*
X61454761Y20383333D01*
X61378571Y20345238D01*
X61340476Y20307142D01*
X61302380Y20230952D01*
%TO.C,R17*%
X60235714Y14888095D02*
X59969047Y15269047D01*
X59778571Y14888095D02*
X59778571Y15688095D01*
X60083333Y15688095D01*
X60159523Y15650000D01*
X60197619Y15611904D01*
X60235714Y15535714D01*
X60235714Y15421428D01*
X60197619Y15345238D01*
X60159523Y15307142D01*
X60083333Y15269047D01*
X59778571Y15269047D01*
X60997619Y14888095D02*
X60540476Y14888095D01*
X60769047Y14888095D02*
X60769047Y15688095D01*
X60692857Y15573809D01*
X60616666Y15497619D01*
X60540476Y15459523D01*
X61264285Y15688095D02*
X61797619Y15688095D01*
X61454761Y14888095D01*
%TO.C,R18*%
X26235714Y20138095D02*
X25969047Y20519047D01*
X25778571Y20138095D02*
X25778571Y20938095D01*
X26083333Y20938095D01*
X26159523Y20900000D01*
X26197619Y20861904D01*
X26235714Y20785714D01*
X26235714Y20671428D01*
X26197619Y20595238D01*
X26159523Y20557142D01*
X26083333Y20519047D01*
X25778571Y20519047D01*
X26997619Y20138095D02*
X26540476Y20138095D01*
X26769047Y20138095D02*
X26769047Y20938095D01*
X26692857Y20823809D01*
X26616666Y20747619D01*
X26540476Y20709523D01*
X27454761Y20595238D02*
X27378571Y20633333D01*
X27340476Y20671428D01*
X27302380Y20747619D01*
X27302380Y20785714D01*
X27340476Y20861904D01*
X27378571Y20900000D01*
X27454761Y20938095D01*
X27607142Y20938095D01*
X27683333Y20900000D01*
X27721428Y20861904D01*
X27759523Y20785714D01*
X27759523Y20747619D01*
X27721428Y20671428D01*
X27683333Y20633333D01*
X27607142Y20595238D01*
X27454761Y20595238D01*
X27378571Y20557142D01*
X27340476Y20519047D01*
X27302380Y20442857D01*
X27302380Y20290476D01*
X27340476Y20214285D01*
X27378571Y20176190D01*
X27454761Y20138095D01*
X27607142Y20138095D01*
X27683333Y20176190D01*
X27721428Y20214285D01*
X27759523Y20290476D01*
X27759523Y20442857D01*
X27721428Y20519047D01*
X27683333Y20557142D01*
X27607142Y20595238D01*
%TO.C,R19*%
X26235714Y18388095D02*
X25969047Y18769047D01*
X25778571Y18388095D02*
X25778571Y19188095D01*
X26083333Y19188095D01*
X26159523Y19150000D01*
X26197619Y19111904D01*
X26235714Y19035714D01*
X26235714Y18921428D01*
X26197619Y18845238D01*
X26159523Y18807142D01*
X26083333Y18769047D01*
X25778571Y18769047D01*
X26997619Y18388095D02*
X26540476Y18388095D01*
X26769047Y18388095D02*
X26769047Y19188095D01*
X26692857Y19073809D01*
X26616666Y18997619D01*
X26540476Y18959523D01*
X27378571Y18388095D02*
X27530952Y18388095D01*
X27607142Y18426190D01*
X27645238Y18464285D01*
X27721428Y18578571D01*
X27759523Y18730952D01*
X27759523Y19035714D01*
X27721428Y19111904D01*
X27683333Y19150000D01*
X27607142Y19188095D01*
X27454761Y19188095D01*
X27378571Y19150000D01*
X27340476Y19111904D01*
X27302380Y19035714D01*
X27302380Y18845238D01*
X27340476Y18769047D01*
X27378571Y18730952D01*
X27454761Y18692857D01*
X27607142Y18692857D01*
X27683333Y18730952D01*
X27721428Y18769047D01*
X27759523Y18845238D01*
%TO.C,R20*%
X43735714Y22138095D02*
X43469047Y22519047D01*
X43278571Y22138095D02*
X43278571Y22938095D01*
X43583333Y22938095D01*
X43659523Y22900000D01*
X43697619Y22861904D01*
X43735714Y22785714D01*
X43735714Y22671428D01*
X43697619Y22595238D01*
X43659523Y22557142D01*
X43583333Y22519047D01*
X43278571Y22519047D01*
X44040476Y22861904D02*
X44078571Y22900000D01*
X44154761Y22938095D01*
X44345238Y22938095D01*
X44421428Y22900000D01*
X44459523Y22861904D01*
X44497619Y22785714D01*
X44497619Y22709523D01*
X44459523Y22595238D01*
X44002380Y22138095D01*
X44497619Y22138095D01*
X44992857Y22938095D02*
X45069047Y22938095D01*
X45145238Y22900000D01*
X45183333Y22861904D01*
X45221428Y22785714D01*
X45259523Y22633333D01*
X45259523Y22442857D01*
X45221428Y22290476D01*
X45183333Y22214285D01*
X45145238Y22176190D01*
X45069047Y22138095D01*
X44992857Y22138095D01*
X44916666Y22176190D01*
X44878571Y22214285D01*
X44840476Y22290476D01*
X44802380Y22442857D01*
X44802380Y22633333D01*
X44840476Y22785714D01*
X44878571Y22861904D01*
X44916666Y22900000D01*
X44992857Y22938095D01*
%TO.C,R21*%
X43735714Y25138095D02*
X43469047Y25519047D01*
X43278571Y25138095D02*
X43278571Y25938095D01*
X43583333Y25938095D01*
X43659523Y25900000D01*
X43697619Y25861904D01*
X43735714Y25785714D01*
X43735714Y25671428D01*
X43697619Y25595238D01*
X43659523Y25557142D01*
X43583333Y25519047D01*
X43278571Y25519047D01*
X44040476Y25861904D02*
X44078571Y25900000D01*
X44154761Y25938095D01*
X44345238Y25938095D01*
X44421428Y25900000D01*
X44459523Y25861904D01*
X44497619Y25785714D01*
X44497619Y25709523D01*
X44459523Y25595238D01*
X44002380Y25138095D01*
X44497619Y25138095D01*
X45259523Y25138095D02*
X44802380Y25138095D01*
X45030952Y25138095D02*
X45030952Y25938095D01*
X44954761Y25823809D01*
X44878571Y25747619D01*
X44802380Y25709523D01*
%TO.C,J1*%
X3061904Y-266666D02*
X3633333Y-266666D01*
X3747619Y-304761D01*
X3823809Y-380952D01*
X3861904Y-495238D01*
X3861904Y-571428D01*
X3861904Y533333D02*
X3861904Y76190D01*
X3861904Y304761D02*
X3061904Y304761D01*
X3176190Y228571D01*
X3252380Y152380D01*
X3290476Y76190D01*
%TO.C,U6*%
X63061904Y-18109523D02*
X63709523Y-18109523D01*
X63785714Y-18071428D01*
X63823809Y-18033333D01*
X63861904Y-17957142D01*
X63861904Y-17804761D01*
X63823809Y-17728571D01*
X63785714Y-17690476D01*
X63709523Y-17652380D01*
X63061904Y-17652380D01*
X63061904Y-16928571D02*
X63061904Y-17080952D01*
X63100000Y-17157142D01*
X63138095Y-17195238D01*
X63252380Y-17271428D01*
X63404761Y-17309523D01*
X63709523Y-17309523D01*
X63785714Y-17271428D01*
X63823809Y-17233333D01*
X63861904Y-17157142D01*
X63861904Y-17004761D01*
X63823809Y-16928571D01*
X63785714Y-16890476D01*
X63709523Y-16852380D01*
X63519047Y-16852380D01*
X63442857Y-16890476D01*
X63404761Y-16928571D01*
X63366666Y-17004761D01*
X63366666Y-17157142D01*
X63404761Y-17233333D01*
X63442857Y-17271428D01*
X63519047Y-17309523D01*
%TO.C,J2*%
X44811904Y-266666D02*
X45383333Y-266666D01*
X45497619Y-304761D01*
X45573809Y-380952D01*
X45611904Y-495238D01*
X45611904Y-571428D01*
X44888095Y76190D02*
X44850000Y114285D01*
X44811904Y190476D01*
X44811904Y380952D01*
X44850000Y457142D01*
X44888095Y495238D01*
X44964285Y533333D01*
X45040476Y533333D01*
X45154761Y495238D01*
X45611904Y38095D01*
X45611904Y533333D01*
%TO.C,U2*%
X31890476Y11438095D02*
X31890476Y10790476D01*
X31928571Y10714285D01*
X31966666Y10676190D01*
X32042857Y10638095D01*
X32195238Y10638095D01*
X32271428Y10676190D01*
X32309523Y10714285D01*
X32347619Y10790476D01*
X32347619Y11438095D01*
X32690476Y11361904D02*
X32728571Y11400000D01*
X32804761Y11438095D01*
X32995238Y11438095D01*
X33071428Y11400000D01*
X33109523Y11361904D01*
X33147619Y11285714D01*
X33147619Y11209523D01*
X33109523Y11095238D01*
X32652380Y10638095D01*
X33147619Y10638095D01*
%TO.C,U5*%
X41140476Y-19311904D02*
X41140476Y-19959523D01*
X41178571Y-20035714D01*
X41216666Y-20073809D01*
X41292857Y-20111904D01*
X41445238Y-20111904D01*
X41521428Y-20073809D01*
X41559523Y-20035714D01*
X41597619Y-19959523D01*
X41597619Y-19311904D01*
X42359523Y-19311904D02*
X41978571Y-19311904D01*
X41940476Y-19692857D01*
X41978571Y-19654761D01*
X42054761Y-19616666D01*
X42245238Y-19616666D01*
X42321428Y-19654761D01*
X42359523Y-19692857D01*
X42397619Y-19769047D01*
X42397619Y-19959523D01*
X42359523Y-20035714D01*
X42321428Y-20073809D01*
X42245238Y-20111904D01*
X42054761Y-20111904D01*
X41978571Y-20073809D01*
X41940476Y-20035714D01*
X37349523Y-27046904D02*
X37349523Y-26246904D01*
X37654285Y-26246904D01*
X37730476Y-26285000D01*
X37768571Y-26323095D01*
X37806666Y-26399285D01*
X37806666Y-26513571D01*
X37768571Y-26589761D01*
X37730476Y-26627857D01*
X37654285Y-26665952D01*
X37349523Y-26665952D01*
X38111428Y-26323095D02*
X38149523Y-26285000D01*
X38225714Y-26246904D01*
X38416190Y-26246904D01*
X38492380Y-26285000D01*
X38530476Y-26323095D01*
X38568571Y-26399285D01*
X38568571Y-26475476D01*
X38530476Y-26589761D01*
X38073333Y-27046904D01*
X38568571Y-27046904D01*
X44969523Y-27046904D02*
X44969523Y-26246904D01*
X45274285Y-26246904D01*
X45350476Y-26285000D01*
X45388571Y-26323095D01*
X45426666Y-26399285D01*
X45426666Y-26513571D01*
X45388571Y-26589761D01*
X45350476Y-26627857D01*
X45274285Y-26665952D01*
X44969523Y-26665952D01*
X46188571Y-27046904D02*
X45731428Y-27046904D01*
X45960000Y-27046904D02*
X45960000Y-26246904D01*
X45883809Y-26361190D01*
X45807619Y-26437380D01*
X45731428Y-26475476D01*
%TO.C,BT1*%
X57442857Y11371428D02*
X57480952Y11485714D01*
X57519047Y11523809D01*
X57595238Y11561904D01*
X57709523Y11561904D01*
X57785714Y11523809D01*
X57823809Y11485714D01*
X57861904Y11409523D01*
X57861904Y11104761D01*
X57061904Y11104761D01*
X57061904Y11371428D01*
X57100000Y11447619D01*
X57138095Y11485714D01*
X57214285Y11523809D01*
X57290476Y11523809D01*
X57366666Y11485714D01*
X57404761Y11447619D01*
X57442857Y11371428D01*
X57442857Y11104761D01*
X57061904Y11790476D02*
X57061904Y12247619D01*
X57861904Y12019047D02*
X57061904Y12019047D01*
X57861904Y12933333D02*
X57861904Y12476190D01*
X57861904Y12704761D02*
X57061904Y12704761D01*
X57176190Y12628571D01*
X57252380Y12552380D01*
X57290476Y12476190D01*
%TO.C,U1*%
X15890476Y32188095D02*
X15890476Y31540476D01*
X15928571Y31464285D01*
X15966666Y31426190D01*
X16042857Y31388095D01*
X16195238Y31388095D01*
X16271428Y31426190D01*
X16309523Y31464285D01*
X16347619Y31540476D01*
X16347619Y32188095D01*
X17147619Y31388095D02*
X16690476Y31388095D01*
X16919047Y31388095D02*
X16919047Y32188095D01*
X16842857Y32073809D01*
X16766666Y31997619D01*
X16690476Y31959523D01*
%TO.C,D1*%
X31611904Y2909523D02*
X30811904Y2909523D01*
X30811904Y3100000D01*
X30850000Y3214285D01*
X30926190Y3290476D01*
X31002380Y3328571D01*
X31154761Y3366666D01*
X31269047Y3366666D01*
X31421428Y3328571D01*
X31497619Y3290476D01*
X31573809Y3214285D01*
X31611904Y3100000D01*
X31611904Y2909523D01*
X31611904Y4128571D02*
X31611904Y3671428D01*
X31611904Y3900000D02*
X30811904Y3900000D01*
X30926190Y3823809D01*
X31002380Y3747619D01*
X31040476Y3671428D01*
%TO.C,D2*%
X26611904Y-590476D02*
X25811904Y-590476D01*
X25811904Y-400000D01*
X25850000Y-285714D01*
X25926190Y-209523D01*
X26002380Y-171428D01*
X26154761Y-133333D01*
X26269047Y-133333D01*
X26421428Y-171428D01*
X26497619Y-209523D01*
X26573809Y-285714D01*
X26611904Y-400000D01*
X26611904Y-590476D01*
X25888095Y171428D02*
X25850000Y209523D01*
X25811904Y285714D01*
X25811904Y476190D01*
X25850000Y552380D01*
X25888095Y590476D01*
X25964285Y628571D01*
X26040476Y628571D01*
X26154761Y590476D01*
X26611904Y133333D01*
X26611904Y628571D01*
%TO.C,JP2*%
X60833333Y-3311904D02*
X60833333Y-3883333D01*
X60795238Y-3997619D01*
X60719047Y-4073809D01*
X60604761Y-4111904D01*
X60528571Y-4111904D01*
X61214285Y-4111904D02*
X61214285Y-3311904D01*
X61519047Y-3311904D01*
X61595238Y-3350000D01*
X61633333Y-3388095D01*
X61671428Y-3464285D01*
X61671428Y-3578571D01*
X61633333Y-3654761D01*
X61595238Y-3692857D01*
X61519047Y-3730952D01*
X61214285Y-3730952D01*
X61976190Y-3388095D02*
X62014285Y-3350000D01*
X62090476Y-3311904D01*
X62280952Y-3311904D01*
X62357142Y-3350000D01*
X62395238Y-3388095D01*
X62433333Y-3464285D01*
X62433333Y-3540476D01*
X62395238Y-3654761D01*
X61938095Y-4111904D01*
X62433333Y-4111904D01*
%TO.C,U3*%
X37640476Y-1461904D02*
X37640476Y-2109523D01*
X37678571Y-2185714D01*
X37716666Y-2223809D01*
X37792857Y-2261904D01*
X37945238Y-2261904D01*
X38021428Y-2223809D01*
X38059523Y-2185714D01*
X38097619Y-2109523D01*
X38097619Y-1461904D01*
X38402380Y-1461904D02*
X38897619Y-1461904D01*
X38630952Y-1766666D01*
X38745238Y-1766666D01*
X38821428Y-1804761D01*
X38859523Y-1842857D01*
X38897619Y-1919047D01*
X38897619Y-2109523D01*
X38859523Y-2185714D01*
X38821428Y-2223809D01*
X38745238Y-2261904D01*
X38516666Y-2261904D01*
X38440476Y-2223809D01*
X38402380Y-2185714D01*
%TO.C,U4*%
X22061904Y-609523D02*
X22709523Y-609523D01*
X22785714Y-571428D01*
X22823809Y-533333D01*
X22861904Y-457142D01*
X22861904Y-304761D01*
X22823809Y-228571D01*
X22785714Y-190476D01*
X22709523Y-152380D01*
X22061904Y-152380D01*
X22328571Y571428D02*
X22861904Y571428D01*
X22023809Y380952D02*
X22595238Y190476D01*
X22595238Y685714D01*
%TO.C,U7*%
X4640476Y15678095D02*
X4640476Y15030476D01*
X4678571Y14954285D01*
X4716666Y14916190D01*
X4792857Y14878095D01*
X4945238Y14878095D01*
X5021428Y14916190D01*
X5059523Y14954285D01*
X5097619Y15030476D01*
X5097619Y15678095D01*
X5402380Y15678095D02*
X5935714Y15678095D01*
X5592857Y14878095D01*
%TO.C,U8*%
X4640476Y5518095D02*
X4640476Y4870476D01*
X4678571Y4794285D01*
X4716666Y4756190D01*
X4792857Y4718095D01*
X4945238Y4718095D01*
X5021428Y4756190D01*
X5059523Y4794285D01*
X5097619Y4870476D01*
X5097619Y5518095D01*
X5592857Y5175238D02*
X5516666Y5213333D01*
X5478571Y5251428D01*
X5440476Y5327619D01*
X5440476Y5365714D01*
X5478571Y5441904D01*
X5516666Y5480000D01*
X5592857Y5518095D01*
X5745238Y5518095D01*
X5821428Y5480000D01*
X5859523Y5441904D01*
X5897619Y5365714D01*
X5897619Y5327619D01*
X5859523Y5251428D01*
X5821428Y5213333D01*
X5745238Y5175238D01*
X5592857Y5175238D01*
X5516666Y5137142D01*
X5478571Y5099047D01*
X5440476Y5022857D01*
X5440476Y4870476D01*
X5478571Y4794285D01*
X5516666Y4756190D01*
X5592857Y4718095D01*
X5745238Y4718095D01*
X5821428Y4756190D01*
X5859523Y4794285D01*
X5897619Y4870476D01*
X5897619Y5022857D01*
X5859523Y5099047D01*
X5821428Y5137142D01*
X5745238Y5175238D01*
%TO.C,U9*%
X4640476Y-4641904D02*
X4640476Y-5289523D01*
X4678571Y-5365714D01*
X4716666Y-5403809D01*
X4792857Y-5441904D01*
X4945238Y-5441904D01*
X5021428Y-5403809D01*
X5059523Y-5365714D01*
X5097619Y-5289523D01*
X5097619Y-4641904D01*
X5516666Y-5441904D02*
X5669047Y-5441904D01*
X5745238Y-5403809D01*
X5783333Y-5365714D01*
X5859523Y-5251428D01*
X5897619Y-5099047D01*
X5897619Y-4794285D01*
X5859523Y-4718095D01*
X5821428Y-4680000D01*
X5745238Y-4641904D01*
X5592857Y-4641904D01*
X5516666Y-4680000D01*
X5478571Y-4718095D01*
X5440476Y-4794285D01*
X5440476Y-4984761D01*
X5478571Y-5060952D01*
X5516666Y-5099047D01*
X5592857Y-5137142D01*
X5745238Y-5137142D01*
X5821428Y-5099047D01*
X5859523Y-5060952D01*
X5897619Y-4984761D01*
%TO.C,U10*%
X35759523Y17438095D02*
X35759523Y16790476D01*
X35797619Y16714285D01*
X35835714Y16676190D01*
X35911904Y16638095D01*
X36064285Y16638095D01*
X36140476Y16676190D01*
X36178571Y16714285D01*
X36216666Y16790476D01*
X36216666Y17438095D01*
X37016666Y16638095D02*
X36559523Y16638095D01*
X36788095Y16638095D02*
X36788095Y17438095D01*
X36711904Y17323809D01*
X36635714Y17247619D01*
X36559523Y17209523D01*
X37511904Y17438095D02*
X37588095Y17438095D01*
X37664285Y17400000D01*
X37702380Y17361904D01*
X37740476Y17285714D01*
X37778571Y17133333D01*
X37778571Y16942857D01*
X37740476Y16790476D01*
X37702380Y16714285D01*
X37664285Y16676190D01*
X37588095Y16638095D01*
X37511904Y16638095D01*
X37435714Y16676190D01*
X37397619Y16714285D01*
X37359523Y16790476D01*
X37321428Y16942857D01*
X37321428Y17133333D01*
X37359523Y17285714D01*
X37397619Y17361904D01*
X37435714Y17400000D01*
X37511904Y17438095D01*
%TO.C,FB1*%
X38083333Y-5442857D02*
X37816666Y-5442857D01*
X37816666Y-5861904D02*
X37816666Y-5061904D01*
X38197619Y-5061904D01*
X38769047Y-5442857D02*
X38883333Y-5480952D01*
X38921428Y-5519047D01*
X38959523Y-5595238D01*
X38959523Y-5709523D01*
X38921428Y-5785714D01*
X38883333Y-5823809D01*
X38807142Y-5861904D01*
X38502380Y-5861904D01*
X38502380Y-5061904D01*
X38769047Y-5061904D01*
X38845238Y-5100000D01*
X38883333Y-5138095D01*
X38921428Y-5214285D01*
X38921428Y-5290476D01*
X38883333Y-5366666D01*
X38845238Y-5404761D01*
X38769047Y-5442857D01*
X38502380Y-5442857D01*
X39721428Y-5861904D02*
X39264285Y-5861904D01*
X39492857Y-5861904D02*
X39492857Y-5061904D01*
X39416666Y-5176190D01*
X39340476Y-5252380D01*
X39264285Y-5290476D01*
%TO.C,SW1*%
X59793809Y3933333D02*
X59831904Y4047619D01*
X59831904Y4238095D01*
X59793809Y4314285D01*
X59755714Y4352380D01*
X59679523Y4390476D01*
X59603333Y4390476D01*
X59527142Y4352380D01*
X59489047Y4314285D01*
X59450952Y4238095D01*
X59412857Y4085714D01*
X59374761Y4009523D01*
X59336666Y3971428D01*
X59260476Y3933333D01*
X59184285Y3933333D01*
X59108095Y3971428D01*
X59070000Y4009523D01*
X59031904Y4085714D01*
X59031904Y4276190D01*
X59070000Y4390476D01*
X59031904Y4657142D02*
X59831904Y4847619D01*
X59260476Y5000000D01*
X59831904Y5152380D01*
X59031904Y5342857D01*
X59831904Y6066666D02*
X59831904Y5609523D01*
X59831904Y5838095D02*
X59031904Y5838095D01*
X59146190Y5761904D01*
X59222380Y5685714D01*
X59260476Y5609523D01*
%TO.C,JP1*%
X4583333Y-12561904D02*
X4583333Y-13133333D01*
X4545238Y-13247619D01*
X4469047Y-13323809D01*
X4354761Y-13361904D01*
X4278571Y-13361904D01*
X4964285Y-13361904D02*
X4964285Y-12561904D01*
X5269047Y-12561904D01*
X5345238Y-12600000D01*
X5383333Y-12638095D01*
X5421428Y-12714285D01*
X5421428Y-12828571D01*
X5383333Y-12904761D01*
X5345238Y-12942857D01*
X5269047Y-12980952D01*
X4964285Y-12980952D01*
X6183333Y-13361904D02*
X5726190Y-13361904D01*
X5954761Y-13361904D02*
X5954761Y-12561904D01*
X5878571Y-12676190D01*
X5802380Y-12752380D01*
X5726190Y-12790476D01*
%TO.C,JP3*%
X35811904Y14083333D02*
X36383333Y14083333D01*
X36497619Y14045238D01*
X36573809Y13969047D01*
X36611904Y13854761D01*
X36611904Y13778571D01*
X36611904Y14464285D02*
X35811904Y14464285D01*
X35811904Y14769047D01*
X35850000Y14845238D01*
X35888095Y14883333D01*
X35964285Y14921428D01*
X36078571Y14921428D01*
X36154761Y14883333D01*
X36192857Y14845238D01*
X36230952Y14769047D01*
X36230952Y14464285D01*
X35811904Y15188095D02*
X35811904Y15683333D01*
X36116666Y15416666D01*
X36116666Y15530952D01*
X36154761Y15607142D01*
X36192857Y15645238D01*
X36269047Y15683333D01*
X36459523Y15683333D01*
X36535714Y15645238D01*
X36573809Y15607142D01*
X36611904Y15530952D01*
X36611904Y15302380D01*
X36573809Y15226190D01*
X36535714Y15188095D01*
%TO.C,D3*%
X63611904Y12909523D02*
X62811904Y12909523D01*
X62811904Y13100000D01*
X62850000Y13214285D01*
X62926190Y13290476D01*
X63002380Y13328571D01*
X63154761Y13366666D01*
X63269047Y13366666D01*
X63421428Y13328571D01*
X63497619Y13290476D01*
X63573809Y13214285D01*
X63611904Y13100000D01*
X63611904Y12909523D01*
X62811904Y13633333D02*
X62811904Y14128571D01*
X63116666Y13861904D01*
X63116666Y13976190D01*
X63154761Y14052380D01*
X63192857Y14090476D01*
X63269047Y14128571D01*
X63459523Y14128571D01*
X63535714Y14090476D01*
X63573809Y14052380D01*
X63611904Y13976190D01*
X63611904Y13747619D01*
X63573809Y13671428D01*
X63535714Y13633333D01*
%TO.C,D4*%
X63611904Y22909523D02*
X62811904Y22909523D01*
X62811904Y23100000D01*
X62850000Y23214285D01*
X62926190Y23290476D01*
X63002380Y23328571D01*
X63154761Y23366666D01*
X63269047Y23366666D01*
X63421428Y23328571D01*
X63497619Y23290476D01*
X63573809Y23214285D01*
X63611904Y23100000D01*
X63611904Y22909523D01*
X63078571Y24052380D02*
X63611904Y24052380D01*
X62773809Y23861904D02*
X63345238Y23671428D01*
X63345238Y24166666D01*
%TO.C,D5*%
X63611904Y17909523D02*
X62811904Y17909523D01*
X62811904Y18100000D01*
X62850000Y18214285D01*
X62926190Y18290476D01*
X63002380Y18328571D01*
X63154761Y18366666D01*
X63269047Y18366666D01*
X63421428Y18328571D01*
X63497619Y18290476D01*
X63573809Y18214285D01*
X63611904Y18100000D01*
X63611904Y17909523D01*
X62811904Y19090476D02*
X62811904Y18709523D01*
X63192857Y18671428D01*
X63154761Y18709523D01*
X63116666Y18785714D01*
X63116666Y18976190D01*
X63154761Y19052380D01*
X63192857Y19090476D01*
X63269047Y19128571D01*
X63459523Y19128571D01*
X63535714Y19090476D01*
X63573809Y19052380D01*
X63611904Y18976190D01*
X63611904Y18785714D01*
X63573809Y18709523D01*
X63535714Y18671428D01*
%TO.C,TP1*%
X43740476Y5188095D02*
X44197619Y5188095D01*
X43969047Y4388095D02*
X43969047Y5188095D01*
X44464285Y4388095D02*
X44464285Y5188095D01*
X44769047Y5188095D01*
X44845238Y5150000D01*
X44883333Y5111904D01*
X44921428Y5035714D01*
X44921428Y4921428D01*
X44883333Y4845238D01*
X44845238Y4807142D01*
X44769047Y4769047D01*
X44464285Y4769047D01*
X45683333Y4388095D02*
X45226190Y4388095D01*
X45454761Y4388095D02*
X45454761Y5188095D01*
X45378571Y5073809D01*
X45302380Y4997619D01*
X45226190Y4959523D01*
%TO.C,TP2*%
X43740476Y-5561904D02*
X44197619Y-5561904D01*
X43969047Y-6361904D02*
X43969047Y-5561904D01*
X44464285Y-6361904D02*
X44464285Y-5561904D01*
X44769047Y-5561904D01*
X44845238Y-5600000D01*
X44883333Y-5638095D01*
X44921428Y-5714285D01*
X44921428Y-5828571D01*
X44883333Y-5904761D01*
X44845238Y-5942857D01*
X44769047Y-5980952D01*
X44464285Y-5980952D01*
X45226190Y-5638095D02*
X45264285Y-5600000D01*
X45340476Y-5561904D01*
X45530952Y-5561904D01*
X45607142Y-5600000D01*
X45645238Y-5638095D01*
X45683333Y-5714285D01*
X45683333Y-5790476D01*
X45645238Y-5904761D01*
X45188095Y-6361904D01*
X45683333Y-6361904D01*
%TD*%
M02*
